<?xml version="1.0" encoding="UTF-8"?>
<svg width="218px" height="250px" viewBox="0 0 218 250" version="1.1" xmlns="http://www.w3.org/2000/svg" xmlns:xlink="http://www.w3.org/1999/xlink">
    <!-- Generator: Sketch 47.1 (45422) - http://www.bohemiancoding.com/sketch -->
    <title>html</title>
    <desc>Created with Sketch.</desc>
    <defs></defs>
    <g id="Page-1" stroke="none" stroke-width="1" fill="none" fill-rule="evenodd">
        <g id="html">
            <g id="Hexagon-Large" fill="#FFFFFF">
                <polygon id="Polygon" points="109.066987 0 217.320163 62.5 217.320163 187.5 109.066987 250 0.813811825 187.5 0.813811825 62.5"></polygon>
            </g>
            <g id="HTML-5-Vector-Logo" transform="translate(48.000000, 38.000000)">
                <polyline id="Fill-1" fill="#D2492B" points="61.2523093 173.957143 11.1629897 160.030612 0 34.6427264 122.656361 34.6427264 111.481959 160.010716 61.2523093 173.957143"></polyline>
                <polyline id="Fill-4" fill="#E05E30" points="102.040097 152.125738 111.578571 44.8071429 61.5 44.8071429 61.5 163.414286 102.040097 152.125738"></polyline>
                <polygon id="Fill-5" fill="#EAEAE9" points="61.5 91.0004856 41.1007546 90.9093387 39.7078561 75.5256904 61.5 75.5256904 61.5 59.7428571 22.8428571 59.7428571 27.0007895 106.307143 61.5 106.307143"></polygon>
                <polygon id="Fill-6" fill="#EAEAE9" points="43.902632 126.335905 42.7990435 114.214286 27.2357143 114.214286 29.4078974 138.077234 61.6220178 147.235843 61.6220178 131.173134"></polygon>
                <polyline id="Fill-7" fill="#1A1919" points="11.4214286 0 19.2578619 0 19.2578619 7.83270113 26.4261545 7.83270113 26.4261545 0 34.2642857 0 34.2642857 23.7214286 26.4261545 23.7214286 26.4261545 15.7779238 19.2578619 15.7779238 19.2578619 23.7214286 11.4214286 23.7214286 11.4214286 0"></polyline>
                <polyline id="Fill-8" fill="#1A1919" points="44.7820142 7.86619991 37.7785714 7.86619991 37.7785714 0 59.7428571 0 59.7428571 7.86619991 52.7363982 7.86619991 52.7363982 23.7214286 44.7820142 23.7214286 44.7820142 7.86619991"></polyline>
                <polyline id="Fill-9" fill="#1A1919" points="62.3785714 0 70.5383495 0 75.5588384 8.33432384 80.5725451 0 88.7357143 0 88.7357143 23.7214286 80.9417486 23.7214286 80.9417486 11.9646464 75.5588384 20.3981781 75.4227714 20.3981781 70.0347746 11.9646464 70.0347746 23.7214286 62.3785714 23.7214286 62.3785714 0"></polyline>
                <polyline id="Fill-10" fill="#1A1919" points="92.25 0 99.9194362 0 99.9194362 15.8805675 110.7 15.8805675 110.7 23.7214286 92.25 23.7214286 92.25 0"></polyline>
                <polyline id="Fill-11" fill="#FFFFFE" points="97.5214286 91 61.5 91 61.5 106.454647 80.5822373 106.454647 78.7825735 126.49787 61.5 131.150685 61.5 147.228571 93.2673288 138.447058 97.1430684 95.1495437 97.5214286 91"></polyline>
                <polyline id="Fill-12" fill="#FFFFFE" points="100.157143 59.7428571 61.5 59.7428571 61.5 75.5571429 98.7748922 75.5571429 99.0837109 72.0031947 99.787155 63.9854807 100.157143 59.7428571"></polyline>
            </g>
        </g>
    </g>
</svg>