<?xml version="1.0" encoding="UTF-8"?>
<svg width="218px" height="250px" viewBox="0 0 218 250" version="1.1" xmlns="http://www.w3.org/2000/svg" xmlns:xlink="http://www.w3.org/1999/xlink">
    <!-- Generator: Sketch 47 (45396) - http://www.bohemiancoding.com/sketch -->
    <title>JavaScript</title>
    <desc>Created with Sketch.</desc>
    <defs>
        <linearGradient x1="50%" y1="0%" x2="50%" y2="100%" id="linearGradient-1">
            <stop stop-color="#EFB8AE" offset="0%"></stop>
            <stop stop-color="#CE291A" offset="100%"></stop>
        </linearGradient>
        <linearGradient x1="50%" y1="30.1000478%" x2="50%" y2="66.8347417%" id="linearGradient-2">
            <stop stop-color="#F18679" offset="0%"></stop>
            <stop stop-color="#DA291E" offset="100%"></stop>
        </linearGradient>
    </defs>
    <g id="Page-1" stroke="none" stroke-width="1" fill="none" fill-rule="evenodd">
        <g id="JavaScript">
            <g id="CSS-3" fill="#FFFFFF">
                <g id="Hexagon-Large">
                    <polygon id="Polygon" points="109.066987 0 217.320163 62.5 217.320163 187.5 109.066987 250 0.813811825 187.5 0.813811825 62.5"></polygon>
                </g>
            </g>
            <g id="Group" transform="translate(60.000000, 25.000000)">
                <path d="M11.001792,74.9786899 C11.1875876,78.587583 25.969199,80.7326132 44.0174451,79.7697488 C61.9258372,78.8143455 72.9594851,76.1108555 73,72.5286011 C67.1215193,73.9658653 63.3273603,74.134754 53.8513984,74.9786899 C35.8471571,76.5821603 19.7489002,76.0378269 19.5315372,73.5087142 C19.3363038,71.2370897 26.0633604,69.9033251 32.1238605,68 C29.1726106,68.0990199 27.2169173,68.2302837 26.2567806,68.3937914 C15.7480531,70.1833881 10.8928575,72.8627477 11.001792,74.9786899 Z" id="Combined-Shape" fill="#57BBF3"></path>
                <path d="M20.0024268,88.0056658 C20.1877094,91.5951709 34.9285079,93.7286773 52.9269218,92.7709858 C60.0599094,92.3914411 65.4176022,91.3321824 69,89.5932099 L63.4705964,85.8070102 C62.2773564,86.1686114 60.4960029,86.5200098 58.1265357,86.8612053 C40.9672094,89.3320927 23.3502722,89.2015341 24.8933616,84.3789075 C24.8968161,84.3681111 25.1968613,83.9084753 25.7934971,83 C20.1997981,84.5747454 19.9691378,87.3607524 20.0024268,88.0056658 Z" id="Combined-Shape" fill="#5CAFDE"></path>
                <path d="M29.504644,97 C26.3133796,98.1908592 23.2654687,100.281148 24.1574802,101.5625 C29.0977783,108.659118 52.5067188,107.007713 57.2101961,106.367987 C60.3458477,105.941504 63.6091156,104.714373 67,102.686595 L60.7399058,99.3669351 C56.3926181,100.30166 53.2190982,100.813104 51.2193458,100.901269 C48.2197174,101.033515 39.6375471,102.168447 30.2871558,99.7771742 C29.1739843,99.4924913 28.9131471,98.5667666 29.504644,97 Z" id="Combined-Shape" fill="#4998C4"></path>
                <path d="M19.1038231,106.133923 C16.3589738,106.474489 13.9799698,105.704837 11.8475873,106.133923 C3.66725745,107.779999 -0.0889316137,111.132596 0.0015969327,113.05126 C0.25183777,118.354872 20.6364874,120.753193 45.2120444,119.79263 C69.7876014,118.832067 89.2505516,113.173021 88.9975614,109.572754 C88.9542403,108.956258 87.746652,108.166189 86.6152726,107.643569 C86.0925293,110.947886 80.3305683,115.183181 49.7171957,115.906371 C19.1038231,116.629561 8.84054212,114.792282 8.07719018,111.381742 C7.79790545,110.13394 11.4734498,108.384667 19.1038231,106.133923 Z" id="Combined-Shape" fill="#3677AA"></path>
                <path d="M59.1641312,0 C64.2786229,5.28056302 64.2786229,11.9151217 59.1641312,19.9036761 C51.4923935,31.8865077 38.9238021,35.4772473 37.128289,44.368624 C35.9312803,50.2962084 39.1437164,58.5066671 46.7655972,69 C37.1999218,59.5573629 31.8111063,53.1776146 30.5991506,49.8607551 C28.7812171,44.8854659 31.3924136,38.7075874 34.5166337,35.4772473 C37.6408538,32.2469072 54.9262182,20.9407342 58.021532,12.5808346 C60.0850745,7.00756816 60.4659409,2.81395663 59.1641312,0 Z" id="Rectangle-15" fill="url(#linearGradient-1)"></path>
                <path d="M76.517498,69.2126603 C80.2926101,67.2623429 83.369552,66.6013348 85.7483238,67.229636 C89.3164816,68.1720877 96.6101703,73.0964525 93.0426128,80.7142012 C90.6642411,85.7927003 84.3167035,89.5546332 74,92 C81.1375686,88.3396358 85.4024477,85.194159 86.7946373,82.5635696 C88.8829217,78.6176856 89.8150513,74.5668259 86.07108,71.2617854 C83.5750991,69.058425 80.3905718,68.3753833 76.517498,69.2126603 Z" id="Path-10" fill="#6C9FCD"></path>
                <path d="M51.9286731,72 C54.1524178,69.0289679 55.1846264,66.1618147 55.0252989,63.3985405 C54.7863076,59.2536292 44.9876638,55.1087179 47.3742723,44.121673 C48.9653446,36.7969764 57.8405872,30.4230854 74,25 C63.8025689,30.8466863 57.4776685,36.1961958 55.0252989,41.0485285 C51.3467444,48.3270274 60.5,54.702354 61.5629824,60.3840304 C62.2716374,64.1718147 59.060201,68.0438046 51.9286731,72 Z" id="Path-2" fill="url(#linearGradient-1)"></path>
                <path d="M18,122.318037 C23.3309555,124.820809 31.7048015,126.047658 43.1215381,125.998584 C60.246643,125.924973 68.3544259,126.19046 81.8299363,122.686092 C90.8136099,120.349846 94.8236206,117.454482 93.8599686,114 C92.1744117,116.428433 87.385987,118.428197 79.4946947,119.999292 C71.6813127,121.554876 59.1204129,123.007288 46.1644286,123.495812 C37.5271058,123.821495 28.1389629,123.428903 18,122.318037 Z" id="Path-9" fill="#3677AA"></path>
            </g>
            <path d="M33.9977137,190.296875 L33.9977137,187.390625 C35.24772,187.796877 36.3518756,188 37.3102137,188 C38.56022,188 39.4326071,187.643233 39.9274012,186.929688 C40.4221954,186.216142 40.6695887,184.968759 40.6695887,183.1875 L40.6695887,162.875 L43.9508387,162.875 L43.9508387,183.078125 C43.9508387,188.1094 41.5706542,190.625 36.8102137,190.625 C36.0810434,190.625 35.1435528,190.515626 33.9977137,190.296875 Z M58.185671,183.84375 C56.3419118,185.541675 54.5658878,186.390625 52.857546,186.390625 C51.4512889,186.390625 50.2846339,185.950525 49.357546,185.070312 C48.430458,184.1901 47.966921,183.078132 47.966921,181.734375 C47.966921,179.880199 48.745559,178.455734 50.3028585,177.460938 C51.8601579,176.466141 54.0919064,175.96875 56.998171,175.96875 L57.732546,175.96875 L57.732546,173.921875 C57.732546,171.953115 56.7221394,170.96875 54.701296,170.96875 C53.0762878,170.96875 51.3210971,171.468745 49.435671,172.46875 L49.435671,169.921875 C51.508598,169.078121 53.4512869,168.65625 55.263796,168.65625 C57.1596388,168.65625 58.5580623,169.083329 59.4591085,169.9375 C60.3601546,170.791671 60.810671,172.119783 60.810671,173.921875 L60.810671,181.609375 C60.810671,183.3698 61.3523322,184.25 62.435671,184.25 C62.5710883,184.25 62.769003,184.229167 63.029421,184.1875 L63.248171,185.890625 C62.5502508,186.22396 61.7794252,186.390625 60.935671,186.390625 C59.4981638,186.390625 58.5815063,185.541675 58.185671,183.84375 Z M57.732546,182.171875 L57.732546,177.78125 L56.701296,177.75 C55.0137875,177.75 53.6492178,178.070309 52.607546,178.710938 C51.5658741,179.351566 51.045046,180.192703 51.045046,181.234375 C51.045046,181.973962 51.30546,182.598956 51.826296,183.109375 C52.3471319,183.619794 52.9825422,183.875 53.732546,183.875 C55.0138024,183.875 56.3471224,183.307297 57.732546,182.171875 Z M70.1548782,186 L63.8423782,169.03125 L66.9205032,169.03125 L71.8580032,182.234375 L77.0611282,169.03125 L79.9361282,169.03125 L73.2330032,186 L70.1548782,186 Z M91.4834605,183.84375 C89.6397013,185.541675 87.8636774,186.390625 86.1553355,186.390625 C84.7490785,186.390625 83.5824235,185.950525 82.6553355,185.070312 C81.7282475,184.1901 81.2647105,183.078132 81.2647105,181.734375 C81.2647105,179.880199 82.0433485,178.455734 83.600648,177.460938 C85.1579474,176.466141 87.389696,175.96875 90.2959605,175.96875 L91.0303355,175.96875 L91.0303355,173.921875 C91.0303355,171.953115 90.0199289,170.96875 87.9990855,170.96875 C86.3740774,170.96875 84.6188866,171.468745 82.7334605,172.46875 L82.7334605,169.921875 C84.8063875,169.078121 86.7490764,168.65625 88.5615855,168.65625 C90.4574283,168.65625 91.8558518,169.083329 92.756898,169.9375 C93.6579442,170.791671 94.1084605,172.119783 94.1084605,173.921875 L94.1084605,181.609375 C94.1084605,183.3698 94.6501217,184.25 95.7334605,184.25 C95.8688778,184.25 96.0667925,184.229167 96.3272105,184.1875 L96.5459605,185.890625 C95.8480403,186.22396 95.0772147,186.390625 94.2334605,186.390625 C92.7959533,186.390625 91.8792958,185.541675 91.4834605,183.84375 Z M91.0303355,182.171875 L91.0303355,177.78125 L89.9990855,177.75 C88.311577,177.75 86.9470074,178.070309 85.9053355,178.710938 C84.8636636,179.351566 84.3428355,180.192703 84.3428355,181.234375 C84.3428355,181.973962 84.6032495,182.598956 85.1240855,183.109375 C85.6449214,183.619794 86.2803317,183.875 87.0303355,183.875 C88.3115919,183.875 89.6449119,183.307297 91.0303355,182.171875 Z M104.374543,186.578125 C102.822452,186.578125 100.838096,186.239587 98.4214177,185.5625 L98.4214177,182.3125 C101.025597,183.520839 103.166201,184.125 104.843293,184.125 C106.134966,184.125 107.174018,183.786462 107.96048,183.109375 C108.746943,182.432288 109.140168,181.541672 109.140168,180.4375 C109.140168,179.531245 108.882358,178.76042 108.36673,178.125 C107.851103,177.48958 106.900591,176.781254 105.515168,176 L103.921418,175.078125 C101.952658,173.953119 100.564651,172.893234 99.7573552,171.898438 C98.9500595,170.903641 98.5464177,169.744798 98.5464177,168.421875 C98.5464177,166.640616 99.1922446,165.174485 100.483918,164.023438 C101.775591,162.87239 103.421408,162.296875 105.421418,162.296875 C107.202677,162.296875 109.082866,162.593747 111.062043,163.1875 L111.062043,166.1875 C108.624531,165.229162 106.80684,164.75 105.608918,164.75 C104.473495,164.75 103.536005,165.05208 102.796418,165.65625 C102.056831,166.26042 101.687043,167.020829 101.687043,167.9375 C101.687043,168.708337 101.957873,169.390622 102.499543,169.984375 C103.041212,170.578128 104.030786,171.286454 105.468293,172.109375 L107.124543,173.046875 C109.124553,174.182297 110.520372,175.255203 111.312043,176.265625 C112.103713,177.276047 112.499543,178.489576 112.499543,179.90625 C112.499543,181.916677 111.757363,183.531244 110.27298,184.75 C108.788598,185.968756 106.822472,186.578125 104.374543,186.578125 Z M123.328125,186.390625 C121.036447,186.390625 119.135424,185.541675 117.625,183.84375 C116.114576,182.145825 115.359375,180.005221 115.359375,177.421875 C115.359375,174.661445 116.106763,172.510424 117.601562,170.96875 C119.096362,169.427076 121.182278,168.65625 123.859375,168.65625 C125.182298,168.65625 126.66145,168.83854 128.296875,169.203125 L128.296875,171.78125 C126.557283,171.270831 125.14063,171.015625 124.046875,171.015625 C122.47395,171.015625 121.210942,171.606765 120.257812,172.789062 C119.304683,173.97136 118.828125,175.546865 118.828125,177.515625 C118.828125,179.421885 119.317703,180.963536 120.296875,182.140625 C121.276047,183.317714 122.557284,183.90625 124.140625,183.90625 C125.546882,183.90625 126.994784,183.546879 128.484375,182.828125 L128.484375,185.484375 C126.494782,186.088545 124.776049,186.390625 123.328125,186.390625 Z M132.625457,186 L132.625457,169.03125 L135.703582,169.03125 L135.703582,172.21875 C136.922338,169.843738 138.693154,168.65625 141.016082,168.65625 C141.328584,168.65625 141.656706,168.682291 142.000457,168.734375 L142.000457,171.609375 C141.469205,171.432291 141.000459,171.34375 140.594207,171.34375 C138.646281,171.34375 137.016089,172.499988 135.703582,174.8125 L135.703582,186 L132.625457,186 Z M145.250915,186 L145.250915,169.03125 L148.32904,169.03125 L148.32904,186 L145.250915,186 Z M145.250915,165.953125 L145.250915,162.875 L148.32904,162.875 L148.32904,165.953125 L145.250915,165.953125 Z M154.032622,192.171875 L154.032622,169.03125 L157.110747,169.03125 L157.110747,172.21875 C158.37117,169.843738 160.261776,168.65625 162.782622,168.65625 C164.824299,168.65625 166.431053,169.401034 167.602934,170.890625 C168.774815,172.380216 169.360747,174.416654 169.360747,177 C169.360747,179.812514 168.696691,182.080721 167.368559,183.804688 C166.040428,185.528654 164.293049,186.390625 162.126372,186.390625 C160.115945,186.390625 158.444087,185.619799 157.110747,184.078125 L157.110747,192.171875 L154.032622,192.171875 Z M157.110747,181.953125 C158.694088,183.369799 160.20449,184.078125 161.641997,184.078125 C164.600345,184.078125 166.079497,181.822939 166.079497,177.3125 C166.079497,173.333313 164.76701,171.34375 162.141997,171.34375 C160.423238,171.34375 158.746172,172.276032 157.110747,174.140625 L157.110747,181.953125 Z M178.798704,186.390625 C177.236196,186.390625 176.017458,185.942713 175.142454,185.046875 C174.26745,184.151037 173.829954,182.906258 173.829954,181.3125 L173.829954,171.34375 L171.704954,171.34375 L171.704954,169.03125 L173.829954,169.03125 L173.829954,165.953125 L176.908079,165.65625 L176.908079,169.03125 L181.345579,169.03125 L181.345579,171.34375 L176.908079,171.34375 L176.908079,180.75 C176.908079,182.968761 177.866403,184.078125 179.783079,184.078125 C180.189331,184.078125 180.684118,184.010417 181.267454,183.875 L181.267454,186 C180.319533,186.260418 179.496624,186.390625 178.798704,186.390625 Z" fill="url(#linearGradient-2)"></path>
        </g>
    </g>
</svg>