<?xml version="1.0" encoding="UTF-8"?>
<svg width="218px" height="250px" viewBox="0 0 218 250" version="1.1" xmlns="http://www.w3.org/2000/svg" xmlns:xlink="http://www.w3.org/1999/xlink">
    <!-- Generator: Sketch 47.1 (45422) - http://www.bohemiancoding.com/sketch -->
    <title>mysql</title>
    <desc>Created with Sketch.</desc>
    <defs></defs>
    <g id="Page-1" stroke="none" stroke-width="1" fill="none" fill-rule="evenodd">
        <g id="mysql">
            <g id="Hexagon-Large" fill="#FFFFFF">
                <polygon id="Polygon" points="109.066987 0 217.320163 62.5 217.320163 187.5 109.066987 250 0.813811825 187.5 0.813811825 62.5"></polygon>
            </g>
            <g id="mysql-logo" transform="translate(19.000000, 63.000000)">
                <g id="Group" transform="translate(90.000000, 62.000000) scale(-1, 1) rotate(-180.000000) translate(-90.000000, -62.000000) ">
                    <g transform="translate(0.958580, 0.748696)" id="Shape">
                        <path d="M43.0370414,10.9437913 L36.131858,10.9437913 C35.8890178,22.6480435 35.2158817,33.6538696 34.115645,43.9634087 L34.0548241,43.9634087 L23.5412265,10.9437913 L18.2836289,10.9437913 L7.83372355,43.9634087 L7.77216142,43.9634087 C6.9967768,34.0624435 6.50896615,23.0566174 6.3055342,10.9437913 L0.00947502959,10.9437913 C0.416338935,25.674913 1.43456379,39.4840696 3.06414959,52.3744696 L11.6227768,52.3744696 L21.5850845,21.9325043 L21.6462174,21.9325043 L31.6696612,52.3744696 L39.8588091,52.3744696 C41.6519925,37.2775565 42.7109038,23.4641217 43.0361819,10.9437913" fill="#00758F" fill-rule="nonzero"></path>
                        <path d="M72.9905325,41.5108957 C70.1785917,26.1893739 66.4695266,15.0552 61.8656805,8.10944348 C58.278568,2.75744609 54.3489231,0.0815008696 50.0698225,0.0815008696 C48.9291124,0.0815008696 47.5224497,0.426542609 45.8532426,1.11213391 L45.8532426,4.80555652 C46.6686746,4.68565826 47.6255503,4.62169826 48.726,4.62169826 C50.7222959,4.62169826 52.3311124,5.17573304 53.5551124,6.28155652 C55.0208876,7.62899478 55.7544142,9.14349913 55.7544142,10.8218609 C55.7544142,11.9682209 55.1822485,14.3205157 54.0431361,17.8788522 L46.4648166,41.5108957 L53.2484734,41.5108957 L58.6875621,23.8363304 C59.909432,19.8234287 60.4190769,17.0220235 60.2152189,15.4252696 C63.1900118,23.404333 65.268213,32.0997913 66.450568,41.5108957 L72.9903195,41.5108957" fill="#00758F" fill-rule="nonzero"></path>
                        <path d="M103.239053,22.427713 C103.239053,18.9140843 101.953491,16.0295739 99.3908876,13.7726843 C96.8261538,11.5257417 93.3805917,10.3992757 89.0659172,10.3992757 C85.0302959,10.3992757 81.1192899,11.6958026 77.3307692,14.2676791 L79.1030769,17.8265504 C82.3633136,16.1900087 85.3136095,15.3727539 87.9624852,15.3727539 C90.4473373,15.3727539 92.3921893,15.9280722 93.7991716,17.0252322 C95.2029586,18.130307 96.0443787,19.6715504 96.0443787,21.6263948 C96.0443787,24.0863948 94.3359763,26.18916 91.2014201,27.9531939 C88.307574,29.5479157 82.524142,32.8773652 82.524142,32.8773652 C79.3906509,35.1727591 77.819645,37.635647 77.819645,41.6936843 C77.819645,45.049873 78.9912426,47.7626113 81.3312426,49.8265513 C83.676568,51.8946626 86.7024852,52.9287183 90.407929,52.9287183 C94.2379882,52.9287183 97.7208284,51.9022565 100.857515,49.856713 L99.264142,46.3011574 C96.5801183,47.4438809 93.9333728,48.0174887 91.3239053,48.0174887 C89.2065089,48.0174887 87.5747929,47.5069852 86.4372781,46.4799887 C85.2933728,45.4618696 84.5861538,44.1516522 84.5861538,42.5547913 C84.5861538,40.1011017 86.3318343,37.9727739 89.5547929,36.1746209 C92.4848521,34.5790435 98.4099408,31.1852061 98.4099408,31.1852061 C101.632899,28.8939835 103.239053,26.4512035 103.239053,22.427713" fill="#F29111" fill-rule="nonzero"></path>
                        <path d="M115.583432,19.2318522 C113.912308,21.9325043 113.075148,26.2662757 113.075148,32.2420435 C113.075148,42.6744757 116.234201,47.8940609 122.549112,47.8940609 C125.850888,47.8940609 128.273964,46.6456643 129.823669,44.1514383 C131.492663,41.4495026 132.329822,37.153273 132.329822,31.2610383 C132.329822,20.745073 129.170769,15.4849513 122.855858,15.4849513 C119.555148,15.4849513 117.131006,16.7320643 115.583432,19.2314243 M140.152899,9.94449652 L132.569467,13.69974 C133.244744,14.255807 133.885917,14.8557261 134.466391,15.5501948 C137.686154,19.3513226 139.297633,24.9773426 139.297633,32.4257948 C139.297633,46.132273 133.939172,52.9892557 123.223314,52.9892557 C117.967101,52.9892557 113.870769,51.2512122 110.937515,47.7700983 C107.716686,43.9643713 106.108402,38.3595287 106.108402,30.9533243 C106.108402,23.6707617 107.533491,18.3281765 110.385799,14.9344461 C112.984615,11.866933 116.914793,10.3310374 122.176331,10.3310374 C124.13929,10.3310374 125.940355,10.5737217 127.577396,11.0591974 L137.452899,5.28814435 L140.145444,9.94492435" fill="#F29111"></path>
                        <polyline fill="#F29111" fill-rule="nonzero" points="164.907692 10.9437913 145.289822 10.9437913 145.289822 52.3744696 151.891243 52.3744696 151.891243 16.0402696 164.907692 16.0402696 164.907692 10.9438983"></polyline>
                        <path d="M169.615385,10.9480696 L170.709231,10.9480696 L170.709231,15.163333 L172.14071,15.163333 L172.14071,16.024333 L168.128521,16.024333 L168.128521,15.163333 L169.615385,15.163333 L169.615385,10.9480696 Z M177.939053,10.9480696 L178.97007,10.9480696 L178.97007,16.024333 L177.419301,16.024333 L176.15717,12.5641826 L174.783206,16.024333 L173.288886,16.024333 L173.288886,10.9480696 L174.264497,10.9480696 L174.264497,14.8114461 L174.319892,14.8114461 L175.758827,10.9480696 L176.502249,10.9480696 L177.939053,14.8114461 L177.939053,10.9480696 L177.939053,10.9480696 Z" fill="#F29111" fill-rule="nonzero"></path>
                        <path d="M173.194083,66.2520783 C169.20426,66.3522912 166.114438,65.952493 163.523077,64.8503061 C162.775385,64.550293 161.580355,64.550293 161.478107,63.5990217 C161.879645,63.1992183 161.927585,62.5490296 162.279053,61.9959574 C162.875503,60.9948443 163.920355,59.6453739 164.869349,58.9426696 C165.916321,58.1413513 166.963314,57.3433487 168.06142,56.6426765 C170.004142,55.4361 172.198225,54.7383157 174.089822,53.5363383 C175.190059,52.8365217 176.28284,51.9361617 177.383077,51.1832948 C177.929467,50.7830635 178.275621,50.1312704 178.97645,49.8835591 L178.97645,50.0351165 C178.62496,50.4843339 178.526982,51.1352713 178.179763,51.6387157 C177.682367,52.1354217 177.18284,52.5888104 176.683314,53.0872278 C175.236923,55.0391843 173.440118,56.7395791 171.500592,58.1413513 C169.904024,59.2455704 166.412663,60.7475609 165.767219,62.5941652 C165.767219,62.5941652 165.71503,62.6472124 165.666036,62.6965194 C166.763077,62.7981292 168.06142,63.1992151 169.107337,63.5028646 C170.799763,63.952082 172.345207,63.8504733 174.089822,64.2996907 C174.888639,64.5014107 175.686391,64.7534003 176.487337,64.9995072 L176.487337,65.4532168 C175.585207,66.3522826 174.939763,67.5555542 173.992899,68.4057516 C171.452663,70.6075585 168.65787,72.7584542 165.767219,74.5633455 C164.219645,75.5647794 162.225799,76.2124011 160.580237,77.0654864 C159.984863,77.3663551 158.988994,77.5145968 158.63858,78.0180411 C157.740699,79.1189446 157.240118,80.5687403 156.593609,81.8723264 C155.149349,84.6224994 153.750888,87.6750385 152.506864,90.5831864 C151.61007,92.5340733 151.061538,94.4849603 149.964497,96.2882472 C144.827574,104.799847 139.246509,109.953012 130.672544,115.009917 C128.827811,116.062369 126.634793,116.512656 124.293728,117.063482 C123.045444,117.115891 121.800355,117.213221 120.554201,117.262421 C119.755385,117.614308 118.956568,118.566221 118.26,119.016508 C115.417278,120.817656 108.092663,124.721569 105.997633,119.566265 C104.651361,116.310508 107.991479,113.10823 109.13858,111.455752 C109.985315,110.305969 111.083432,109.002169 111.678817,107.702647 C112.028176,106.851273 112.128284,105.94856 112.478698,105.049056 C113.275385,102.846821 114.022012,100.393239 115.071124,98.3396733 C115.617515,97.2883014 116.21503,96.185569 116.912663,95.2390037 C117.315256,94.6849797 118.010769,94.4378994 118.160947,93.5341168 C117.465444,92.5340733 117.411124,91.0324037 117.012781,89.7799429 C115.219172,84.1230124 115.91574,77.1152211 118.459172,72.9610298 C119.254793,71.7097455 121.151716,68.9556151 123.694083,70.0093507 C125.93716,70.9088337 125.438698,73.7623481 126.086272,76.2637403 C126.235374,76.8687077 126.135256,77.2655806 126.433491,77.6655124 L126.433491,77.5643401 C127.131114,76.1647071 127.830888,74.8165201 128.478462,73.4101488 C130.026036,70.9597749 132.715385,68.406188 134.960592,66.7057932 C136.153491,65.8012619 137.10142,64.2519967 138.596805,63.6996732 L138.596805,63.8509097 L138.498817,63.8509097 C138.198462,64.3001057 137.751135,64.5018471 137.351716,64.8507179 C136.454901,65.7523507 135.460118,66.8541205 134.75929,67.8546987 C132.666391,70.6568527 130.819527,73.7623353 129.178225,76.9656831 C128.378354,78.5211518 127.681775,80.2215466 127.033136,81.7724161 C126.734901,82.3703138 126.734901,83.2739787 126.235374,83.573564 C125.485562,82.4735161 124.391705,81.5209613 123.84425,80.1735231 C122.896321,78.0184561 122.797278,75.3659344 122.445788,72.6113761 C122.247682,72.5590797 122.3478,72.6113761 122.247682,72.5119076 C120.654309,72.9121282 120.105788,74.5637615 119.506143,75.9608276 C118.010759,79.5196989 117.759398,85.2261502 119.057751,89.3314624 C119.40497,90.3807166 120.904615,93.6845929 120.303905,94.6857059 C120.002496,95.6408169 119.006627,96.1863059 118.459172,96.9403494 C117.812652,97.8911929 117.110769,99.0901755 116.666627,100.143697 C115.469467,102.945958 114.867692,106.050906 113.57574,108.853167 C112.97716,110.156967 111.928047,111.508897 111.083432,112.70788 C110.134438,114.05981 109.088521,115.010654 108.339763,116.610723 C108.092652,117.162619 107.743303,118.064262 108.140592,118.663219 C108.238569,119.064306 108.440936,119.215125 108.840344,119.315664 C109.484734,119.86648 111.331587,119.166995 111.978096,118.866447 C113.823895,118.117751 115.369338,117.412908 116.912652,116.363664 C117.61134,115.862049 118.359043,114.911195 119.254782,114.658777 L120.303884,114.658777 C121.898322,114.311169 123.694062,114.561447 125.190511,114.109021 C127.830866,113.258717 130.223056,112.007325 132.368144,110.655395 C138.896073,106.500134 144.280097,100.591856 147.917375,93.5348644 C148.51702,92.3850818 148.768381,91.3326296 149.315837,90.133647 C150.362819,87.6757862 151.660097,85.1730035 152.704949,82.7725783 C153.750877,80.4195349 154.74992,78.0187888 156.247434,76.0635166 C156.992996,75.0140592 159.984831,74.4633401 161.331103,73.9123001 C162.325907,73.4631896 163.87347,73.0621027 164.77134,72.5122392 C166.465896,71.4627818 168.157257,70.2595209 169.75489,69.1063157 C170.550501,68.5055409 173.043884,67.2555401 173.194062,66.2528227" fill="#00758F"></path>
                        <path d="M122.346746,109.758783 C121.501076,109.758783 120.904615,109.656104 120.30284,109.507424 L120.30284,109.406896 L120.399763,109.406896 C120.802356,108.60793 121.501065,108.052826 121.995266,107.35333 C122.396805,106.552205 122.746143,105.75433 123.144497,104.952157 C123.19348,105.001346 123.241409,105.053776 123.241409,105.053776 C123.944357,105.552183 124.292652,106.352228 124.292652,107.555489 C123.991232,107.908456 123.944357,108.256065 123.693007,108.607952 C123.394782,109.107428 122.746143,109.357717 122.346735,109.758804" fill="#00758F"></path>
                    </g>
                </g>
            </g>
        </g>
    </g>
</svg>