<?xml version="1.0" encoding="UTF-8"?>
<svg width="218px" height="250px" viewBox="0 0 218 250" version="1.1" xmlns="http://www.w3.org/2000/svg" xmlns:xlink="http://www.w3.org/1999/xlink">
    <!-- Generator: Sketch 47.1 (45422) - http://www.bohemiancoding.com/sketch -->
    <title>objective-c</title>
    <desc>Created with Sketch.</desc>
    <defs></defs>
    <g id="Page-1" stroke="none" stroke-width="1" fill="none" fill-rule="evenodd">
        <g id="objective-c">
            <g id="Hexagon-Large" fill="#FFFFFF">
                <polygon id="Polygon" points="109.066987 0 217.320163 62.5 217.320163 187.5 109.066987 250 0.813811825 187.5 0.813811825 62.5"></polygon>
            </g>
            <g id="Objective-C" transform="translate(43.000000, 45.000000)" fill-rule="nonzero" fill="#B0B7BB">
                <path d="M123.841441,116.895541 C121.570396,122.136123 118.882221,126.960052 115.767646,131.395103 C111.522184,137.441216 108.046095,141.626275 105.36719,143.950279 C101.214423,147.764978 96.7650298,149.718623 92.0004714,149.829731 C88.5800005,149.829731 84.4550423,148.857538 79.6534056,146.885375 C74.8360107,144.922472 70.4088646,143.950279 66.3608438,143.950279 C62.1153812,143.950279 57.562169,144.922472 52.6919375,146.885375 C47.8142903,148.857538 43.8849201,149.885285 40.8806528,149.987134 C36.3116823,150.181572 31.7575431,148.172374 27.2117465,143.950279 C24.3103714,141.422578 20.6813352,137.089375 16.3339074,130.950672 C11.6694603,124.395314 7.83463964,116.793692 4.83037236,108.127288 C1.61290499,98.7664594 0,89.7019185 0,80.9262578 C0,70.8737839 2.17464087,62.2036755 6.5304113,54.9381544 C9.95366309,49.1022197 14.5078023,44.4986551 20.2076602,41.1191276 C25.9075181,37.7396001 32.0662197,36.0174299 38.6985963,35.9072481 C42.3276325,35.9072481 47.0866292,37.0285105 53.0006141,39.2321476 C58.8979139,41.4431919 62.6845328,42.5644543 64.3447126,42.5644543 C65.5859078,42.5644543 69.7924382,41.2533828 76.9235176,38.6395729 C83.667129,36.2155721 89.3586443,35.2118987 94.0212374,35.6072572 C106.65566,36.6257449 116.147698,41.6005945 122.460275,50.5632866 C111.16067,57.4019688 105.57112,66.980383 105.682355,79.2679746 C105.78432,88.8389816 109.260409,96.8035557 116.092081,103.127439 C119.188117,106.062535 122.645666,108.330985 126.492537,109.942048 C125.658276,112.358641 124.777667,114.673386 123.841441,116.895541 L123.841441,116.895541 Z M94.8647682,3.00083523 C94.8647682,10.5025529 92.1209758,17.5068783 86.6519301,23.9900157 C80.0519971,31.6971901 72.0690443,36.1507593 63.4121939,35.4480027 C63.3018861,34.5480299 63.237926,33.6008363 63.237926,32.605496 C63.237926,25.4038618 66.3766021,17.6966874 71.9503939,11.395026 C74.7331184,8.20438166 78.2722399,5.55140629 82.5640503,3.43508137 C86.8465911,1.35032956 90.8973927,0.197401441 94.7071855,0 C94.8184204,1.00284006 94.8647682,2.00577271 94.8647682,3.00074264 L94.8647682,3.00083523 Z" id="Shape"></path>
            </g>
        </g>
    </g>
</svg>