<?xml version="1.0" encoding="UTF-8"?>
<svg width="218px" height="250px" viewBox="0 0 218 250" version="1.1" xmlns="http://www.w3.org/2000/svg" xmlns:xlink="http://www.w3.org/1999/xlink">
    <!-- Generator: Sketch 47.1 (45422) - http://www.bohemiancoding.com/sketch -->
    <title>php</title>
    <desc>Created with Sketch.</desc>
    <defs>
        <radialGradient cx="30.0202546%" cy="82.4223047%" fx="30.0202546%" fy="82.4223047%" r="0.180844907%" gradientTransform="translate(0.300203,0.824223),scale(0.524750,1.000000),translate(-0.300203,-0.824223)" id="radialGradient-1">
            <stop stop-color="#AEB2D5" offset="0%"></stop>
            <stop stop-color="#AEB2D5" offset="30%"></stop>
            <stop stop-color="#484C89" offset="75%"></stop>
            <stop stop-color="#484C89" offset="100%"></stop>
        </radialGradient>
    </defs>
    <g id="Page-1" stroke="none" stroke-width="1" fill="none" fill-rule="evenodd">
        <g id="php">
            <g id="Hexagon-Large" fill="#FFFFFF">
                <polygon id="Polygon" points="109.066987 0 217.320163 62.5 217.320163 187.5 109.066987 250 0.813811825 187.5 0.813811825 62.5"></polygon>
            </g>
            <g id="PHP-logo" transform="translate(18.000000, 77.000000)" fill-rule="nonzero">
                <g id="Background">
                    <path d="M0.794729542,47.8952821 C0.794729542,21.5015521 41.5706137,0.104436464 91.8682386,0.104436464 C142.165863,0.104436464 182.941748,21.5018807 182.941748,47.8952821 C182.941748,74.2886835 142.165863,95.6861277 91.8682386,95.6861277 C41.5706137,95.6861277 0.794729542,74.2880263 0.794729542,47.8952821" id="path3462" fill="url(#radialGradient-1)" transform="translate(91.868239, 47.895282) scale(-1, 1) rotate(-180.000000) translate(-91.868239, -47.895282) "></path>
                    <path d="M91.8682386,3.65227585 C140.20163,3.65227585 179.384189,23.4599778 179.384189,47.8942963 C179.384189,72.3286147 140.20163,92.1373025 91.8682386,92.1373025 C43.5348474,92.1373025 4.35228849,72.3289433 4.35228849,47.8952821 C4.35228849,23.4599778 43.5348474,3.65227585 91.8682386,3.65227585" id="path3474" fill="#777BB3" transform="translate(91.868239, 47.894789) scale(-1, 1) rotate(-180.000000) translate(-91.868239, -47.894789) "></path>
                </g>
                <g id="PHP" transform="translate(27.000000, 12.000000)">
                    <path d="M23.2744452,36.0398638 C27.2486997,36.0398638 30.215638,36.7709875 32.0925798,38.2118763 C33.9504161,39.6386354 35.2327843,42.1099978 35.9050971,45.5572872 C36.5319521,48.779489 36.2931345,51.0293784 35.1955617,52.2435367 C34.0732836,53.4836539 31.6468967,54.1125846 27.9839286,54.1125846 L21.633027,54.1125846 L18.1117025,36.0398638 L23.2744452,36.0398638 Z M2.5012656,13.7775578 C2.20644938,13.7775578 1.92645631,13.9089958 1.73902566,14.1363834 C1.5512656,14.3631139 1.47550277,14.6621353 1.53150139,14.9512989 L10.8628467,62.8440089 C10.9550798,63.3073277 11.3602462,63.6418374 11.8345874,63.6418374 L31.9446775,63.6418374 C38.2659327,63.6418374 42.9698162,61.9298578 45.9278606,58.5528878 C48.9023752,55.1585022 49.8181172,50.4129343 48.6579577,44.4495937 C48.1852635,42.0196342 47.3716366,39.7631729 46.2401352,37.7429713 C45.1069868,35.7204696 43.6101768,33.8491215 41.7898925,32.1798593 C39.606276,30.1448709 37.1416782,28.6694797 34.4609917,27.8019891 C31.8257628,26.9443564 28.4401526,26.5106111 24.3990291,26.5106111 L16.2555132,26.5106111 L13.9299237,14.5753863 C13.8396671,14.1120674 13.4331831,13.7775578 12.9601595,13.7775578 L2.50159501,13.7775578 L2.5012656,13.7775578 Z" id="1p" fill="#000000" transform="translate(25.329037, 38.709698) scale(-1, 1) rotate(-180.000000) translate(-25.329037, -38.709698) "></path>
                    <path d="M22.4476422,53.1267998 L27.984258,53.1267998 C32.4048544,53.1267998 33.9408634,52.1590878 34.4626387,51.5824037 C35.3283114,50.6248781 35.4916956,48.6059909 34.9353329,45.7442577 C34.3101248,42.5404572 33.1512829,40.2688805 31.49043,38.993275 C29.7900485,37.6874388 27.0256935,37.0256486 23.275104,37.0256486 L19.3104022,37.0256486 L22.4476422,53.1267998 Z M31.9443481,64.6276221 L11.8329404,64.6276221 C10.8868932,64.6276221 10.0739251,63.9586029 9.89275312,63.0322938 L0.561737171,15.1395837 C0.446445908,14.5612567 0.601265603,13.9632139 0.973491678,13.5090957 C1.34901179,13.054649 1.90899792,12.791773 2.49863037,12.791773 L12.9571949,12.791773 C13.9025832,12.791773 14.7162101,13.4607923 14.8973821,14.3871014 L17.0684813,25.5248263 L24.3977115,25.5248263 C28.5416089,25.5248263 32.0322989,25.9756585 34.767337,26.8645078 C37.5804438,27.7763587 40.1695562,29.3223978 42.4608877,31.4595792 C44.3549584,33.2011323 45.9163315,35.1529861 47.0988904,37.2625655 C48.2814494,39.3721449 49.1313107,41.7314565 49.6244279,44.2616374 C50.8481623,50.5410864 49.8540222,55.5685887 46.6696775,59.2028485 C43.5186026,62.8039203 38.5637136,64.6276221 31.9453363,64.6276221 L31.9443481,64.6276221 Z M16.9136616,35.0540791 L23.2744452,35.0540791 C27.4914702,35.0540791 30.6323336,35.8459928 32.6960472,37.4311347 C34.7600902,39.0162766 36.1521498,41.662123 36.8755201,45.3686737 C37.5672677,48.9283425 37.2523578,51.4401221 35.9301318,52.9033553 C34.6059293,54.3665885 31.9575243,55.0983694 27.9839286,55.0983694 L20.8184119,55.0983694 L16.9130028,35.0540791 L16.9136616,35.0540791 Z M31.9443481,62.6560526 C37.9948336,62.6560526 42.4085125,61.0722251 45.1830791,57.90457 C47.9566574,54.7362577 48.792025,50.3140273 47.6852288,44.6372214 C47.2296637,42.2986113 46.4591886,40.1604442 45.3744626,38.2230485 C44.2907247,36.2849956 42.8709951,34.5125546 41.118568,32.9050683 C39.0301491,30.9565004 36.7111477,29.5665438 34.1582698,28.7407848 C31.6050624,27.9094396 28.3538488,27.4963958 24.4010055,27.4963958 L15.4412275,27.4963958 L12.9601595,14.7633426 L2.50159501,14.7633426 L11.8329404,62.6560526 L31.9443481,62.6560526 L31.9443481,62.6560526 Z" id="1p-outline" fill="#FFFFFF" transform="translate(25.327859, 38.709698) scale(-1, 1) rotate(-180.000000) translate(-25.327859, -38.709698) "></path>
                    <path d="M72.6355756,1.04450453 C72.34043,1.04450453 72.0607663,1.1759425 71.8733356,1.40333019 C71.6855756,1.63006068 71.609154,1.92908206 71.6658114,2.21824559 L75.7932386,23.4093322 C76.1858877,25.4242762 76.089043,26.8707511 75.5208218,27.4819377 C75.1719834,27.8555501 74.1277739,28.4821806 71.0379681,28.4821806 L63.5605062,28.4821806 L58.3707524,1.842333 C58.2801664,1.37901416 57.873353,1.04450453 57.4006588,1.04450453 L47.0244452,1.04450453 C46.7292996,1.04450453 46.4496359,1.1759425 46.2618759,1.40333019 C46.0741158,1.63006068 45.998353,1.92908206 46.0543516,2.21824559 L55.3856969,50.1109556 C55.4759535,50.5742745 55.8830964,50.9087841 56.3557906,50.9087841 L66.7320042,50.9087841 C67.0271498,50.9087841 67.3068135,50.7773461 67.4945735,50.5506156 C67.6823336,50.3228993 67.7580964,50.0242066 67.7020978,49.735043 L65.4502947,38.1757308 L73.495319,38.1757308 C79.6235437,38.1757308 83.7792996,37.0979395 86.1997573,34.8805809 C88.6669903,32.6185335 89.4368065,29.0020178 88.4881241,24.1289551 L84.1465846,1.84299019 C84.0559986,1.37901416 83.649844,1.04450453 83.176491,1.04450453 L72.6355756,1.04450453 Z" id="h" fill="#000000" transform="translate(67.458830, 25.976644) scale(-1, 1) rotate(-180.000000) translate(-67.458830, -25.976644) "></path>
                    <path d="M66.732663,51.8945689 L56.3564494,51.8945689 C55.4100728,51.8945689 54.5967753,51.2255496 54.4162621,50.2992405 L45.0849168,2.40653049 C44.9722607,1.82820342 45.1244452,1.23016066 45.4999653,0.776042478 C45.8754854,0.321595699 46.4348128,0.0587197609 47.025104,0.0587197609 L57.4013176,0.0587197609 C58.3473648,0.0587197609 59.1609917,0.727739024 59.3415049,1.65404811 L64.3757802,27.4963958 L71.0396151,27.4963958 C74.1234917,27.4963958 74.7707698,26.839206 74.7967926,26.8109468 C74.9845527,26.6105039 75.2316054,25.6805803 74.826439,23.5972885 L70.6990118,2.40620189 C70.5870146,1.82787483 70.7385402,1.23048926 71.1140603,0.776371073 C71.4895804,0.321595699 72.0495666,0.0587197609 72.639199,0.0587197609 L83.1801144,0.0587197609 C84.1255028,0.0587197609 84.9391297,0.727739024 85.1203017,1.65404811 L89.4582178,23.9409988 C90.4773925,29.1722299 89.6057906,33.0969677 86.8691054,35.6061185 C84.2575936,37.9982896 79.8831137,39.1615156 73.495319,39.1615156 L66.6496533,39.1615156 L68.6728502,49.5467581 C68.7848474,50.1250852 68.6333218,50.723128 68.2578017,51.1765889 C67.8822816,51.6316929 67.3229542,51.8945689 66.732663,51.8945689 M66.732663,49.9229993 L64.2522538,37.1899461 L73.495319,37.1899461 C79.3119279,37.1899461 83.3237344,36.1772165 85.5317268,34.1543862 C87.7397191,32.1302414 88.4008322,28.8508641 87.5186893,24.3169114 L83.1771498,2.0302893 L72.6362344,2.0302893 L76.7636616,23.2207187 C77.2337205,25.631291 77.061113,27.27558 76.2455097,28.1522713 C75.4285888,29.0289625 73.6926318,29.4679654 71.0376387,29.4679654 L62.7432559,29.4679654 L57.3970354,2.0302893 L47.0208218,2.0302893 L56.3564494,49.9229993 L66.732663,49.9229993" id="h-outline" fill="#FFFFFF" transform="translate(67.459654, 25.976644) scale(-1, 1) rotate(-180.000000) translate(-67.459654, -25.976644) "></path>
                    <path d="M104.907247,36.0398638 C108.881501,36.0398638 111.84844,36.7709875 113.725381,38.2118763 C115.583218,39.6379782 116.865586,42.1096692 117.538228,45.5572872 C118.165083,48.779489 117.926266,51.0293784 116.828363,52.2435367 C115.706085,53.4836539 113.279698,54.1125846 109.61673,54.1125846 L103.265829,54.1125846 L99.7445042,36.0398638 L104.907247,36.0398638 Z M84.1343967,13.7775578 C83.8395804,13.7775578 83.5595874,13.9089958 83.3721567,14.1363834 C83.1843967,14.3631139 83.107975,14.6621353 83.1646325,14.9512989 L92.4956484,62.8440089 C92.5878814,63.3073277 92.9930479,63.6418374 93.467389,63.6418374 L113.577479,63.6418374 C119.898734,63.6418374 124.602618,61.9298578 127.560662,58.5528878 C130.535177,55.1585022 131.450919,50.4135915 130.291418,44.4495937 C129.819053,42.0196342 129.005756,39.7631729 127.873596,37.7429713 C126.740447,35.7204696 125.244296,33.8491215 123.423353,32.1798593 C121.239078,30.1448709 118.77448,28.6694797 116.093793,27.8019891 C113.458564,26.9443564 110.072954,26.5106111 106.031831,26.5106111 L97.887656,26.5106111 L95.5633842,14.5753863 C95.4727982,14.1120674 95.0659847,13.7775578 94.5929612,13.7775578 L84.1343967,13.7775578 Z" id="2p" fill="#000000" transform="translate(106.961995, 38.709698) scale(-1, 1) rotate(-180.000000) translate(-106.961995, -38.709698) "></path>
                    <path d="M104.080444,53.1267998 L109.61706,53.1267998 C114.037656,53.1267998 115.573665,52.1590878 116.09544,51.5824037 C116.961772,50.6248781 117.124827,48.6059909 116.568135,45.7445863 C115.942926,42.5407858 114.783755,40.2688805 113.123232,38.993275 C111.42285,37.6874388 108.658495,37.0256486 104.907906,37.0256486 L100.943533,37.0256486 L104.080444,53.1267998 Z M113.57715,64.6276221 L93.4660714,64.6276221 C92.5200243,64.6276221 91.7070562,63.9586029 91.5258842,63.0322938 L82.1948682,15.1395837 C82.0822122,14.5612567 82.2343967,13.9632139 82.6099168,13.5090957 C82.9854369,13.054649 83.5444348,12.791773 84.1350555,12.791773 L94.59362,12.791773 C95.5390083,12.791773 96.3526352,13.4607923 96.5338072,14.3871014 L98.70293,25.5248263 L106.03216,25.5248263 C110.176058,25.5248263 113.66543,25.9756585 116.401127,26.8645078 C119.214234,27.7763587 121.803346,29.3223978 124.094678,31.4602364 C125.988748,33.1985035 127.546827,35.1503574 128.729386,37.2615797 C129.912275,39.3734593 130.762136,41.7284991 131.256241,44.2613088 C132.479976,50.5391148 131.485836,55.5659599 128.301491,59.2015342 C125.151404,62.8019487 120.195527,64.6276221 113.577809,64.6276221 L113.57715,64.6276221 Z M98.5464632,35.0540791 L104.907247,35.0540791 C109.124272,35.0540791 112.265135,35.8459928 114.328849,37.4311347 C116.393551,39.0162766 117.784951,41.662123 118.508322,45.3686737 C119.200728,48.9283425 118.885489,51.4401221 117.562933,52.9033553 C116.238731,54.3665885 113.590326,55.0983694 109.61673,55.0983694 L102.451214,55.0983694 L98.5464632,35.0540791 L98.5464632,35.0540791 Z M113.57715,62.6560526 C119.627635,62.6560526 124.041314,61.0722251 126.815881,57.90457 C129.589459,54.7362577 130.424827,50.3140273 129.318031,44.6372214 C128.862465,42.2986113 128.09199,40.1604442 127.007264,38.2230485 C125.923526,36.2849956 124.503797,34.5125546 122.75137,32.9050683 C120.662951,30.9565004 118.343949,29.5665438 115.791071,28.7407848 C113.237864,27.9094396 109.98665,27.4963958 106.033807,27.4963958 L97.0740291,27.4963958 L94.59362,14.7633426 L84.1350555,14.7633426 L93.465742,62.6560526 L113.57715,62.6560526 L113.57715,62.6560526 Z" id="2p-outline" fill="#FFFFFF" transform="translate(106.960874, 38.709698) scale(-1, 1) rotate(-180.000000) translate(-106.960874, -38.709698) "></path>
                </g>
            </g>
            <polygon id="Mask" fill="#FFFFFF" points="335.445298 -219 450.14629 -152.777351 450.14629 -20.3320534 335.445298 45.8905955 220.744305 -20.3320534 220.744305 -152.777351"></polygon>
        </g>
    </g>
</svg>