<?xml version="1.0" encoding="UTF-8"?>
<svg width="218px" height="250px" viewBox="0 0 218 250" version="1.1" xmlns="http://www.w3.org/2000/svg" xmlns:xlink="http://www.w3.org/1999/xlink">
    <!-- Generator: Sketch 47.1 (45422) - http://www.bohemiancoding.com/sketch -->
    <title>sass</title>
    <desc>Created with Sketch.</desc>
    <defs></defs>
    <g id="Page-1" stroke="none" stroke-width="1" fill="none" fill-rule="evenodd">
        <g id="sass">
            <g id="Hexagon-Large" fill="#FFFFFF">
                <polygon id="Polygon" points="109.066987 0 217.320163 62.5 217.320163 187.5 109.066987 250 0.813811825 187.5 0.813811825 62.5"></polygon>
            </g>
            <path d="M57.5261219,108.563485 C57.5261219,105.55004 59.2053374,106.32626 60.2689062,107.740678 C60.744248,108.372825 65.2055787,112.736456 72.8965146,113.303251 C82.4139129,114.004651 95.9452612,110.555913 101.90427,106.824753 C112.678707,100.078472 123.389298,92.0107546 124.15434,79.8396292 C124.919382,67.6685038 110.599729,65.1394182 103.359103,65.3733773 C84.9214607,65.9691345 66.1236535,73.8952489 58.3783025,78.7825718 C42.1977735,88.992499 35.7956314,93.2590176 29.8624346,103.982613 C23.9292379,114.706208 29.1533865,121.990925 32.3492796,125.827145 C39.2684563,134.132642 43.9708779,136.005357 50.2000008,141.100246 C54.3527493,144.496839 56.9527491,146.796757 58,148 C62.5550697,145.540328 65.8977579,143.724347 68.0280644,142.552059 C70.1583709,141.37977 73.0876612,139.894241 76.8159352,138.09547 C78.3295792,135.601281 80.732401,133.152693 84.0244006,130.749708 C88.9624001,127.14523 91.5357238,126.159455 95.7782303,126.576751 C99.1838923,126.911734 100.73716,130.92241 100.438033,138.608778 C100.887901,137.478382 102.117834,137.140731 104.127834,137.595825 C106.423615,138.115624 106.975666,139.369148 106.627919,141.460298 C106.280173,143.551449 103.055625,152.16123 101.90427,159.008677 C101.1367,163.573642 101.1367,165.797963 101.90427,165.681642 C113.964723,140.573369 120.248828,127.21001 120.756585,125.591565 C121.264343,123.97312 121.518221,122.275551 121.518221,120.498858 C123.240006,119.646445 125.305411,119.220239 127.714438,119.220239 C130.123464,119.220239 132.100035,119.73528 133.64415,120.765362 L131.327977,129.21034 C131.332886,133.401452 131.527518,136.316294 131.911875,137.954866 C132.296231,139.593438 133.14016,141.458965 134.443662,143.551449 L145.951736,122.162745 L147.835485,114.968901 C149.21457,113.947303 151.269409,113.392086 154,113.303251 C156.730591,113.214417 158.628895,113.769633 159.694911,114.968901 L157.227887,124.100834 C157.293189,127.95924 157.582523,130.822767 158.095887,132.691413 C158.609251,134.560059 159.788167,137.040959 161.632634,140.134111 C166.026236,137.881769 170.132778,136.577929 173.952261,136.22259 C179.681486,135.689582 187.544572,136.55572 193.940667,139.553889 C200.336761,142.552059 204.125579,149.036191 204.733466,152.412705 C205.994025,159.414482 204.405749,163.385334 202.222138,165.681642 C200.038527,167.97795 196.780973,169.044768 195.939446,169.135827 C195.09792,169.226886 194.341027,167.785476 195.473065,167.336925 C196.605102,166.888375 199.710269,165.114153 200.803143,162.60648 C202.214265,159.368567 202.120351,157.235803 201.669281,155.4775 C200.344041,150.311621 194.274407,143.085067 182.014616,142.552059 C173.841421,142.19672 167.769884,142.982702 163.800003,144.910004 C165.727094,150.103885 165.813009,154.314852 164.057748,157.542905 C161.424856,162.384985 154.747305,166.498376 151.300036,167.336925 C144.370934,169.022432 140.732506,166.92301 143.43817,159.008677 C145.241947,153.732455 148.762557,148.999562 154,144.809998 C152.958362,143.070839 151.925122,140.87463 150.900281,138.22137 C149.875439,135.56811 149.142553,132.725401 148.701623,129.693244 L143.43817,139.553889 L137.089996,149 C138.295251,150.369225 139.056581,153.327903 139.373985,157.876035 C139.850092,164.698233 136.242564,168.351956 128.662114,171.934118 C121.119227,175.49853 109.585813,175.126156 116.14121,166.66645 C118.565576,163.537817 120.680647,161.736473 122.983993,159.008677 C124.216501,157.549048 126.109208,155.113098 128.662114,151.700826 C126.994751,148.879326 125.879347,146.718084 125.315902,145.217098 C124.752457,143.716113 123.883952,140.592334 122.710386,135.845762 C111.821699,162.751615 103.865379,176.568999 98.8414268,177.297915 C93.8174748,178.02683 91.8788974,173.038288 93.0256943,162.33229 C86.2341757,179.515915 80.0785547,184.139999 74.5588315,176.204542 C69.0391083,168.269085 68.3724416,158.534238 72.5588315,147 L61.5,153 C67.074426,167.937353 63.3892843,180.824755 50.4445749,191.662205 C43.4300741,197.534821 28.7239887,199.673757 23.1850041,194.516716 C17.9015201,189.597557 18.6414461,180.219614 22.2344276,174.204542 C27.1409035,165.990526 36.7687557,158.579945 51.1179845,151.972799 C34.8171529,141.387913 24.4516277,133.112057 20.0214088,127.14523 C13.3760805,118.194991 11.0221775,113.255578 14.3760805,104.42748 C26.0058606,73.8157309 74.1506062,56.2734356 94.0800768,54.5128545 C114.009548,52.7522733 125.315902,58.3282194 129.598047,63.5228873 C133.880192,68.7175551 143.497512,85.8923709 117.251771,107.563167 C103.262753,119.113732 81.9227623,121.057059 72.0848225,119.220239 C64.5506,117.813541 57.5261219,111.57693 57.5261219,108.563485 Z M54.6534805,156.932362 C42.6036377,163.320965 35.2127056,169.73699 32.4806841,176.180437 C28.3826518,185.845607 38.6083054,188.213667 44.7296144,184.054688 C50.8509234,179.89571 53.3834182,176.344363 55.0333564,171.156271 C56.6952001,165.930744 56.5685748,161.189441 54.6534805,156.932362 Z M94.0800768,141.460298 C95.4530444,135.341396 96.0094503,131.222006 90.0113395,135.470668 C83.7349164,139.916468 79.027599,154.561455 79.8775313,162.5 C80.7274636,170.438545 83.1730007,167.922875 84.9117457,164.956781 C86.6504908,161.990686 92.7071093,147.579201 94.0800768,141.460298 Z M131.325405,157.175596 L121.714464,168.151298 C123.890196,168.127517 126.035953,166.929695 128.151733,164.557831 C130.267514,162.185967 131.325405,159.725222 131.325405,157.175596 Z M156.632316,148.798497 C153.962863,151.546472 152.194957,153.685638 151.328597,155.215998 C150.462236,156.746357 149.808111,158.885524 149.36622,161.633498 C152.548452,160.926336 154.776014,159.388257 156.048907,157.019262 C157.3218,154.650268 157.516269,151.910012 156.632316,148.798497 Z" id="Combined-Shape" fill="#CC6699"></path>
        </g>
    </g>
</svg>