<?xml version="1.0" encoding="UTF-8"?>
<svg width="218px" height="250px" viewBox="0 0 218 250" version="1.1" xmlns="http://www.w3.org/2000/svg" xmlns:xlink="http://www.w3.org/1999/xlink">
    <!-- Generator: Sketch 47.1 (45422) - http://www.bohemiancoding.com/sketch -->
    <title>us</title>
    <desc>Created with Sketch.</desc>
    <defs>
        <polygon id="path-1" points="109.066987 0 217.320163 62.5 217.320163 187.5 109.066987 250 0.813811825 187.5 0.813811825 62.5"></polygon>
    </defs>
    <g id="Page-1" stroke="none" stroke-width="1" fill="none" fill-rule="evenodd">
        <g id="us">
            <g id="Hexagon-Large">
                <mask id="mask-2" fill="white">
                    <use xlink:href="#path-1"></use>
                </mask>
                <use id="Polygon" fill="#FFFFFF" xlink:href="#path-1"></use>
                <path d="M59,38.5 L218,38.5 L218,57.5 L59,57.5 L59,38.5 Z" id="Combined-Shape" fill="#B22234" mask="url(#mask-2)"></path>
                <path d="M59,77 L218,77 L218,96 L59,96 L59,77 Z" id="Combined-Shape" fill="#B22234" mask="url(#mask-2)"></path>
                <rect id="Rectangle-12" fill="#B22234" mask="url(#mask-2)" x="0" y="115.5" width="218" height="19"></rect>
                <rect id="Rectangle" fill="#FFFFFF" mask="url(#mask-2)" x="-11" y="24.5" width="70" height="110"></rect>
                <rect id="Rectangle-12" fill="#B22234" mask="url(#mask-2)" x="0" y="154" width="218" height="19"></rect>
                <rect id="Rectangle-12" fill="#B22234" mask="url(#mask-2)" x="0" y="192.5" width="218" height="19"></rect>
                <rect id="Rectangle-12" fill="#B22234" mask="url(#mask-2)" x="0" y="231" width="218" height="19"></rect>
                <rect id="Rectangle-12" fill="#B22234" mask="url(#mask-2)" x="0" y="0" width="218" height="19"></rect>
                <path d="M-11,78.7751274 L-11,24.5 L59,24.5 L59,134.5 L-11,134.5 L-11,106.494895 L-7.49204786,109.019806 L-9.55519424,114.759959 L-4.72829148,111.179247 L-0.148448411,114.759959 L-2.18429776,109.019806 L2.32365437,105.775127 L-3.37493727,105.775127 L-4.72829148,101 L-6.47412319,105.775127 L-11,105.775127 L-11,79.4948951 L-7.49204786,82.0198059 L-9.55519424,87.7599588 L-4.72829148,84.1792468 L-0.148448411,87.7599588 L-2.18429776,82.0198059 L2.32365437,78.7751274 L-3.37493727,78.7751274 L-4.72829148,74 L-6.47412319,78.7751274 L-11,78.7751274 Z M42.8065221,70.1612711 L47.3863652,73.7419831 L45.3505158,68.0018302 L49.858468,64.7571517 L44.1598763,64.7571517 L42.8065221,59.9820243 L41.0606904,64.7571517 L35.5348136,64.7571517 L40.0427657,68.0018302 L37.9796194,73.7419831 L42.8065221,70.1612711 Z M42.2717085,43.7992674 L46.8515516,47.3799794 L44.8157022,41.6398265 L49.3236544,38.395148 L43.6250627,38.395148 L42.2717085,33.6200206 L40.5258768,38.395148 L35,38.395148 L39.5079521,41.6398265 L37.4448058,47.3799794 L42.2717085,43.7992674 Z M27.2717085,57.1792468 L31.8515516,60.7599588 L29.8157022,55.0198059 L34.3236544,51.7751274 L28.6250627,51.7751274 L27.2717085,47 L25.5258768,51.7751274 L20,51.7751274 L24.5079521,55.0198059 L22.4448058,60.7599588 L27.2717085,57.1792468 Z M27.2717085,84.1792468 L31.8515516,87.7599588 L29.8157022,82.0198059 L34.3236544,78.7751274 L28.6250627,78.7751274 L27.2717085,74 L25.5258768,78.7751274 L20,78.7751274 L24.5079521,82.0198059 L22.4448058,87.7599588 L27.2717085,84.1792468 Z M11.2717085,70.1792468 L15.8515516,73.7599588 L13.8157022,68.0198059 L18.3236544,64.7751274 L12.6250627,64.7751274 L11.2717085,60 L9.52587681,64.7751274 L4,64.7751274 L8.50795214,68.0198059 L6.44480576,73.7599588 L11.2717085,70.1792468 Z M27.2717085,110.179247 L31.8515516,113.759959 L29.8157022,108.019806 L34.3236544,104.775127 L28.6250627,104.775127 L27.2717085,100 L25.5258768,104.775127 L20,104.775127 L24.5079521,108.019806 L22.4448058,113.759959 L27.2717085,110.179247 Z M11.2717085,124.179247 L15.8515516,127.759959 L13.8157022,122.019806 L18.3236544,118.775127 L12.6250627,118.775127 L11.2717085,114 L9.52587681,118.775127 L4,118.775127 L8.50795214,122.019806 L6.44480576,127.759959 L11.2717085,124.179247 Z M43.2717085,97.1792468 L47.8515516,100.759959 L45.8157022,95.0198059 L50.3236544,91.7751274 L44.6250627,91.7751274 L43.2717085,87 L41.5258768,91.7751274 L36,91.7751274 L40.5079521,95.0198059 L38.4448058,100.759959 L43.2717085,97.1792468 Z M43.2717085,124.179247 L47.8515516,127.759959 L45.8157022,122.019806 L50.3236544,118.775127 L44.6250627,118.775127 L43.2717085,114 L41.5258768,118.775127 L36,118.775127 L40.5079521,122.019806 L38.4448058,127.759959 L43.2717085,124.179247 Z M11.2717085,97.1792468 L15.8515516,100.759959 L13.8157022,95.0198059 L18.3236544,91.7751274 L12.6250627,91.7751274 L11.2717085,87 L9.52587681,91.7751274 L4,91.7751274 L8.50795214,95.0198059 L6.44480576,100.759959 L11.2717085,97.1792468 Z" id="Combined-Shape" fill="#3C3B6E" mask="url(#mask-2)"></path>
            </g>
        </g>
    </g>
</svg>