<?xml version="1.0" encoding="UTF-8"?>
<svg width="218px" height="250px" viewBox="0 0 218 250" version="1.1" xmlns="http://www.w3.org/2000/svg" xmlns:xlink="http://www.w3.org/1999/xlink">
    <!-- Generator: Sketch 47.1 (45422) - http://www.bohemiancoding.com/sketch -->
    <title>bower</title>
    <desc>Created with Sketch.</desc>
    <defs></defs>
    <g id="Page-1" stroke="none" stroke-width="1" fill="none" fill-rule="evenodd">
        <g id="bower">
            <g id="Hexagon-Large" fill="#FFFFFF">
                <polygon id="Polygon" points="109.066987 0 217.320163 62.5 217.320163 187.5 109.066987 250 0.813811825 187.5 0.813811825 62.5"></polygon>
            </g>
            <g id="bower-logo" transform="translate(35.000000, 60.000000)" fill-rule="nonzero">
                <path d="M145.171334,63.4971851 C137.559014,56.1888351 99.4945317,51.6265116 87.4837684,50.2984182 C88.0654917,48.9255649 88.5608205,47.5057135 88.9697548,46.0436599 C90.6070916,45.32718 92.3746602,44.6605757 94.2020651,44.103953 C94.4247711,44.7603265 95.473665,47.2751995 96.0713873,48.4686931 C120.223146,49.1343383 121.463068,30.5355964 122.445406,25.440309 C123.405985,20.4582005 123.357028,15.6442618 131.641306,6.84380504 C119.299364,3.25021592 101.550722,12.4135485 95.6058167,26.0522423 C93.3717174,25.2158696 91.1328185,24.5981815 88.918238,24.2161228 C87.331138,17.8199179 79.0673386,0 57.3816649,0 C29.9251547,0 0,22.632258 0,60.9442661 C0,93.149091 22.0056536,121.372513 34.4387903,121.372513 C39.8685282,121.372513 44.539274,117.309903 45.6358449,113.668037 C46.5551469,116.165006 49.3757692,123.92767 50.3021109,125.903825 C51.6713046,128.826014 58.0033857,131.354634 60.7744111,128.322144 C64.3373866,130.299897 70.8748948,131.491152 74.4381903,126.216825 C81.300158,127.667049 87.3666558,123.578542 87.4991274,118.700021 C90.8662753,118.520342 92.5180112,113.796562 91.7826975,110.034484 C91.2406517,107.264799 85.4506165,97.3264785 83.1921988,93.8959437 C87.6629571,97.5294971 98.9873636,98.5580181 100.362637,93.8981817 C107.570823,99.5513706 118.804035,96.5841018 119.694859,91.9866097 C128.453347,94.2604181 138.499114,89.2664802 136.849618,83.2181244 C150.920092,82.2458731 149.119245,67.2877182 145.171334,63.4971851 Z" id="outline" fill="#543729"></path>
                <g id="leaf" transform="translate(97.000000, 10.000000)" fill="#00ACEE">
                    <path d="M9.0925977,21.9803241 C12.1407356,15.8906481 15.9709425,9.2412963 20.8088276,5.1275 C15.484,7.28842593 10.2267586,13.7481944 7.11843678,20.6525926 C5.53402299,19.6385648 3.92547126,18.7340741 2.3034023,17.9430093 C6.63954023,8.62328704 16.7150345,0.84 27.8188046,0.232037037 C20.3814253,7.02398148 23.0214713,21.1406481 16.9065287,28.6137963 C15.1566897,26.8440278 11.1388506,23.4286111 9.0925977,21.9803241 Z M4.28496552,31.8966667 C4.28818391,31.6636574 4.37475862,29.8660185 4.53728736,29.045463 C4.11085057,28.9443519 1.46018391,28.4222685 0.0782068966,28.455 C-0.0225287356,30.2027315 0.807494253,33.1761111 1.62786207,34.9659722 C7.27774713,34.846713 11.3586667,33.1430556 13.7605517,31.5768056 C11.7155862,30.6168981 8.2262069,29.7636111 5.57296552,29.2531944 C5.27687356,29.8699074 4.54822989,31.4413426 4.28496552,31.8966667 Z" id="Shape"></path>
                </g>
                <path d="M80.3671317,88.4023819 C80.3684126,88.4104071 80.3719351,88.4213214 80.3728958,88.4293466 C79.6603866,86.8923569 78.9036858,85.0253703 78,82.5850621 C81.5186747,87.7192754 92.5467161,85.0712746 91.9683827,80.4705778 C97.3661603,84.5419312 108.477141,79.7922864 105.951176,74.0834676 C111.35824,76.6091641 117.529691,71.5272753 116.145661,69.3129572 C125.36409,71.0951975 134.198243,72.8716597 136.971425,73.583015 C135.129148,76.5940767 130.93351,78.7204383 124.60899,77.2428353 C128.026472,81.9096598 121.39133,87.5083727 112.149526,84.424763 C114.183939,89.0061993 105.955339,93.1308401 96.603055,88.3555146 C96.7218599,92.9388769 85.0008433,93.4666152 80.3671317,88.4023819 Z M98.6538006,65.2361466 C109.352967,66.059534 127.046252,67.6587993 138,69.195468 C137.307985,65.6219991 135.417674,64.6011914 129.471345,63 C123.076054,63.6837485 106.851019,65.2814089 98.6538006,65.2361466 Z" id="wingtip" fill="#2BAF2B"></path>
                <path d="M92.4965097,80.5509598 C97.8943634,84.5669503 109.0055,79.8818919 106.4795,74.2507026 C111.88664,76.7420542 118.058178,71.7292697 116.674129,69.5450623 C105.775307,67.4672472 94.3388123,65.3818326 91.7446018,65.0173758 C93.3182285,65.1000198 95.9265293,65.2767069 99.1820217,65.5240055 C107.379676,65.5686523 123.60494,63.9927172 130,63.3182664 C119.644934,60.7221057 98.503127,56.9334653 83.9024069,56 C83.2257538,56.9777954 81.9819674,58.6360578 79.8155886,60.3981793 C73.4275734,73.7627548 61.8533789,82.6461904 49.0472465,82.6461904 C45.3152469,82.6461904 41.139724,82.0236691 36.4595134,80.5443103 C33.5409064,83.6360182 21.0969581,85.978864 11,81.078488 C19.0090365,99.6217692 37.5825718,112 58.1418741,112 C75.4568923,112 83.1348075,94.5168415 81.454543,89.8909954 C81.0468859,88.7678607 79.4313086,85.0438156 78.5272898,82.6370077 C82.0466545,87.7010885 93.074531,85.0890956 92.4965097,80.5509598 Z" id="body" fill="#FFCC2F"></path>
                <path d="M81.5553988,46 C83.1034643,45.1631879 88.4532727,41.9409617 93.5511232,40.730049 C93.4707042,40.1690595 93.4100657,39.6032365 93.3724503,39.0341914 C90.0279283,39.8300813 83.7224959,42.5154846 80.109154,38.8147578 C87.7324202,41.1006051 91.5387028,36.7779886 97.1417661,36.7779886 C100.480451,36.7779886 105.244628,37.7047009 109,39.1698471 C105.979424,36.3971215 96.0742689,28.029 83.8103731,28 C81.0722363,31.298593 78.1126229,38.4438796 81.5553988,46 Z" id="beak" fill="#CECECE"></path>
                <path d="M35.7038173,80.61333 C40.3956509,82.1058202 44.5815434,82.7338673 48.3228112,82.7338673 C61.1607466,82.7338673 72.7633639,73.7712591 79.1675643,60.2883733 C74.4311077,64.2227718 66.1992912,67.5891806 53.3436992,67.5891806 C64.7944699,65.0054347 74.6519754,59.3271355 79.6664428,51.0270754 C76.1415483,45.4442931 72.3184182,33.0935532 82,23.3297537 C80.5107481,18.5686077 73.2619214,6 57.2146626,6 C29.2094078,6 6,29.3192013 6,60.5707709 C6,67.9686922 7.50080891,74.9069189 10.1813981,81.1519299 C20.3031102,86.0961232 32.7779622,83.7324812 35.7038173,80.61333 Z" id="head" fill="#EF5734"></path>
                <path d="M44,33 C44,40.1793115 49.8200432,46 56.9996774,46 C64.1793115,46 70,40.1793115 70,33 C70,25.8203658 64.1793115,20 56.9996774,20 C49.8200432,20 44,25.8203658 44,33 Z" id="eye_rim" fill="#FFCC2F"></path>
                <path d="M50,33.5001555 C50,37.6419674 53.3583435,41 57.4998445,41 C61.6422783,41 65,37.6419674 65,33.5001555 C65,29.3580326 61.6425892,26 57.4998445,26 C53.3583435,26 50,29.3580326 50,33.5001555 Z" id="eye" fill="#543729"></path>
                <ellipse id="pupil_highlight" fill="#FFFFFF" cx="57.5" cy="29.5" rx="4.5" ry="2.5"></ellipse>
            </g>
        </g>
    </g>
</svg>