<?xml version="1.0" encoding="UTF-8"?>
<svg width="218px" height="250px" viewBox="0 0 218 250" version="1.1" xmlns="http://www.w3.org/2000/svg" xmlns:xlink="http://www.w3.org/1999/xlink">
    <!-- Generator: Sketch 47.1 (45422) - http://www.bohemiancoding.com/sketch -->
    <title>git</title>
    <desc>Created with Sketch.</desc>
    <defs></defs>
    <g id="Page-1" stroke="none" stroke-width="1" fill="none" fill-rule="evenodd">
        <g id="git">
            <g id="Hexagon-Large" fill="#FFFFFF">
                <polygon id="Polygon" points="109.066987 0 217.320163 62.5 217.320163 187.5 109.066987 250 0.813811825 187.5 0.813811825 62.5"></polygon>
            </g>
            <g id="if_github_alt_115504" transform="translate(17.000000, 55.000000)" fill="#000000">
                <path d="M134.3384,0 C136.7304,5.39098068 138.280089,14.3448376 135.967822,20.9004486 C145.423378,28.9128621 148.674044,48.3910008 144.1088,64.3082923 C157.585778,65.3288656 173.638756,63.8172809 184,67.9218928 C174.313422,66.6862484 161.083822,64.2616259 148.590222,65.1056786 C146.2248,65.2659674 142.716533,65.0164038 142.888267,68.3216005 C157.350667,69.4497093 171.723111,70.6752089 183.597244,74.3537365 C171.8192,72.4465021 157.5224,69.5369552 142.888267,69.1311606 C136.842844,80.9702168 124.676356,86.7913397 107.881244,88.0168392 C109.686489,91.914496 113.143644,93.3976751 113.988,99.6712589 C115.247378,109.039026 112.017156,122.762998 115.204444,129.008176 C116.733689,132.000911 119.225867,132.080041 120.9064,134.636547 C116.792978,139.46956 106.595289,134.094811 105.434044,129.008176 C103.4448,120.293738 108.463911,106.782808 102.997067,100.876469 C103.381422,110.380177 100.731822,123.730818 103.403911,132.222069 C104.4568,135.561758 107.496889,136.850156 106.660711,139.861152 C87.5410667,141.788676 95.5328,115.302465 92.4068444,99.6672009 C89.5221333,99.8721272 90.7896889,103.95442 90.7794667,105.699337 C90.6976889,120.963299 93.9279111,141.904327 77.3474667,139.861152 C76.8629333,136.653346 79.5718222,135.561758 80.6042667,132.631922 C83.628,124.04328 80.0379556,111.24452 81.4240889,100.878498 C75.0965333,105.612091 82.0885333,122.142132 78.1672889,130.615123 C75.9081778,135.492773 68.6279111,137.617108 63.1058667,135.435962 C63.8255111,131.808159 67.6036444,132.392503 69.2064889,129.010205 C71.4472,124.292844 69.2228444,117.497814 70.0222222,110.524234 C58.3096,112.84335 49.2240889,110.187425 44.7774222,102.887181 C42.7881778,99.6103897 42.2954667,95.7431676 39.8912,92.8417365 C37.4992,89.9362475 33.6760889,89.5446557 32.568,85.6104775 C47.0733333,82.147021 47.6294222,100.428066 60.6566222,100.878498 C64.6514667,101.020526 66.7286222,99.734157 70.4249778,98.8718436 C71.4594667,94.2620175 73.6736,90.8249376 76.9385778,88.4165469 C60.7261333,86.2130824 47.3391111,81.2015197 41.1137778,69.1291316 C26.3774222,69.849417 12.8922667,71.8012888 0.402755556,74.7514152 C11.7392,70.665064 25.7211556,69.2001457 40.7089778,68.7192791 C39.8257778,63.4520658 32.0834667,64.9007523 27.2769778,65.1036496 C18.3448,65.4972703 7.10035556,66.5990026 0,67.9218928 C10.2917333,64.2798867 24.7336889,64.7343766 38.6768,64.705971 C34.4120889,51.436489 35.8902222,30.3574907 45.1904,22.5073951 C42.5551111,15.9152625 43.3728889,5.13330114 46.8177778,7.20835935e-15 C57.2015111,0.462605794 63.4984,4.9567805 70.0222222,9.24602896 C78.1120889,6.96343458 86.6190222,5.82720983 97.704,6.43184372 C102.365333,6.68749429 107.212711,8.76719139 110.725067,8.4384978 C114.169956,8.1179201 117.966489,4.28113257 121.3112,2.81621422 C125.667911,0.906950833 129.354044,0.178549605 134.3384,0 Z M91.5827373,83.3900435 C104.304288,83.3900435 113.845451,81.8818701 120.379564,78.8580571 C126.823241,75.8417103 130.116675,69.6148953 130.116675,60.2224094 C130.116675,54.7720798 128.059221,50.2176948 123.921702,46.5741867 C121.826565,44.6105748 119.30185,43.4010496 116.46814,42.9456111 C113.641966,42.4901726 109.316036,42.4901726 103.505423,42.9456111 C97.7098821,43.4085158 93.7230929,43.6175695 91.5827373,43.6175695 C88.6811988,43.6175695 85.5535664,43.4831779 81.6421419,43.1770634 C77.7231808,42.8784152 74.6483037,42.6917601 72.425047,42.5946995 C70.2093267,42.5275036 67.8353407,42.796287 65.2051149,43.4010496 C62.605035,44.0132784 60.4646793,45.0734795 58.7765115,46.5741867 C54.850014,50.0758369 52.8227053,54.6152895 52.8227053,60.2224094 C52.8227053,69.6148953 56.0332388,75.8417103 62.4693786,78.8580571 C68.8753726,81.8818701 78.3939261,83.3900435 91.123013,83.3900435 L91.5827373,83.3900435 Z" id="Combined-Shape" fill-rule="nonzero"></path>
                <path d="M109.609351,52 C111.638009,52 113.319759,52.9708029 114.782805,54.8905109 C116.230769,56.8248175 117,59.1824818 117,62.0072993 C117,64.8175182 116.230769,67.1970803 114.782805,69.1094891 C113.3273,71.0437956 111.638009,72 109.609351,72 C107.512821,72 105.6727,71.0437956 104.217195,69.1094891 C102.769231,67.1970803 102,64.8175182 102,62.0072993 C102,59.1824818 102.769231,56.8248175 104.217195,54.8905109 C105.665158,52.9635036 107.505279,52 109.609351,52" id="Path"></path>
                <path d="M73.6168929,52 C75.638009,52 77.3273002,52.9708029 78.7828054,54.8905109 C80.2307692,56.8248175 81,59.1824818 81,62.0072993 C81,64.8175182 80.2307692,67.1970803 78.7828054,69.1094891 C77.3348416,71.0437956 75.638009,72 73.6168929,72 C71.5128205,72 69.6802413,71.0437956 68.2171946,69.1094891 C66.7692308,67.1970803 66,64.8175182 66,62.0072993 C66,59.1824818 66.7692308,56.8248175 68.2171946,54.8905109 C69.6726998,52.9635036 71.505279,52 73.6168929,52" id="Path"></path>
            </g>
        </g>
    </g>
</svg>