<?xml version="1.0" encoding="UTF-8"?>
<svg width="218px" height="250px" viewBox="0 0 218 250" version="1.1" xmlns="http://www.w3.org/2000/svg" xmlns:xlink="http://www.w3.org/1999/xlink">
    <!-- Generator: Sketch 47.1 (45422) - http://www.bohemiancoding.com/sketch -->
    <title>gulp</title>
    <desc>Created with Sketch.</desc>
    <defs></defs>
    <g id="Page-1" stroke="none" stroke-width="1" fill="none" fill-rule="evenodd">
        <g id="gulp">
            <g id="Hexagon-Large" fill="#FFFFFF">
                <polygon id="Polygon" points="109.066987 0 217.320163 62.5 217.320163 187.5 109.066987 250 0.813811825 187.5 0.813811825 62.5"></polygon>
            </g>
            <g id="gulp-logo" transform="translate(73.000000, 44.000000)" fill-rule="nonzero" fill="#DA4648">
                <path d="M35.688,128.142379 C26.3470345,128.142379 19.1292414,126.729509 15.6583448,125.887454 C13.2848276,125.31164 11.3788966,124.715826 9.93103448,124.103763 L14.5601379,132.067248 L16.3708966,156.949335 C16.3708966,159.738825 25.1714483,162 36.0273103,162 C46.8831724,162 55.6837241,159.738825 55.6837241,156.949335 L57.1175172,131.796423 L61.4975172,124.080431 C60.0434483,124.700827 58.1205517,125.304557 55.7172414,125.887454 C52.2463448,126.729509 45.0285517,128.142379 35.688,128.142379 Z M61.6477241,47.1750775 C54.792,48.139212 45.6931034,48.6704443 36.0273103,48.6704443 C26.3615172,48.6704443 17.2626207,48.139212 10.4068966,47.1750775 C7.01089655,46.6975934 4.32413793,46.1342789 2.42110345,45.5017999 C1.96717241,45.350555 1.19793103,45.0926469 0.457655172,44.6818273 L4.70524138,84.0442652 C4.90262069,83.3663711 5.12234483,82.6893104 5.36606897,82.0147495 C5.86468966,80.6322956 6.44151724,79.280674 7.09613793,77.9603013 C7.75117241,76.6403453 8.46413793,75.3924703 9.23503448,74.2170928 C10.0055172,73.0421319 10.826069,71.9600847 11.6954483,70.9713676 C12.5652414,69.9830672 13.4573793,69.1330956 14.3735172,68.4206193 C15.2892414,67.7089764 16.2136552,67.1523283 17.1467586,66.7515083 C18.0802759,66.3506883 19.0046897,66.1498617 19.9204138,66.1498617 C20.9751724,66.1498617 21.9955862,66.4402687 22.9812414,67.0210826 C23.9664828,67.60148 24.8875862,68.5418653 25.7457931,69.8414053 C25.9427586,70.1318123 26.0677241,70.4255525 26.1194483,70.7226259 C26.172,71.020116 26.1976552,71.3001067 26.1976552,71.5625979 C26.1976552,72.1846605 26.049931,72.6758941 25.7544828,73.0350488 C25.4590345,73.3946202 25.1081379,73.5741975 24.7026207,73.5741975 C24.3310345,73.5741975 23.9863448,73.3771208 23.6677241,72.9833839 C23.3486897,72.5892304 22.9924138,72.0259158 22.598069,71.2930236 C22.2268966,70.6292957 21.8184828,70.1493117 21.3724138,69.8518216 C20.925931,69.5547482 20.4422069,69.4060031 19.9204138,69.4060031 C19.1089655,69.4060031 18.2424828,69.7447418 17.3209655,70.4222193 C16.3990345,71.09928 15.4862069,71.9946668 14.5824828,73.1075464 C13.677931,74.2208426 12.8114483,75.4924669 11.9826207,76.9236692 C11.1537931,78.3544549 10.4201379,79.8198227 9.78248276,81.3197727 C9.14482759,82.820556 8.63834483,84.30009 8.26137931,85.7583747 C7.88441379,87.2166594 7.69613793,88.5266158 7.69613793,89.6878271 C7.69613793,90.0753142 7.72262069,90.4732176 7.77434483,90.8802873 C7.82689655,91.288607 7.92496552,91.6581781 8.0702069,91.9902503 C8.21462069,92.3223226 8.412,92.5948135 8.66110345,92.8085564 C8.91062069,93.0235492 9.22634483,93.1302123 9.60868966,93.1302123 C10.0377931,93.1302123 10.5244138,92.9852172 11.0697931,92.6948102 C11.6143448,92.4052365 12.1795862,92.0244159 12.7646897,91.5548482 C13.3502069,91.0844472 13.9386207,90.5523816 14.529931,89.9574014 C15.1216552,89.3632546 15.672,88.7620246 16.1817931,88.1532949 C16.6915862,87.5453985 17.1438621,86.9608346 17.5377931,86.40127 C17.9321379,85.8412886 18.2275862,85.3538049 18.4249655,84.9388187 L20.042069,80.0652312 C20.2390345,79.5402487 20.4968276,79.1669278 20.8158621,78.9456851 C21.1344828,78.7244425 21.4622069,78.6136129 21.7986207,78.6136129 C21.9604138,78.6136129 22.1226207,78.6415286 22.2852414,78.6965268 C22.4478621,78.7519416 22.5922759,78.8386054 22.7201379,78.9556848 C22.8475862,79.0735975 22.9489655,79.2252592 23.0242759,79.4123363 C23.0995862,79.59858 23.1372414,79.8164895 23.1372414,80.0652312 C23.1372414,80.728959 23.0793103,81.350605 22.9634483,81.9318356 C22.8475862,82.5130662 22.6998621,83.0792974 22.5198621,83.6326122 C22.3402759,84.1850938 22.14,84.7417419 21.9198621,85.3017233 C21.6997241,85.8617046 21.4849655,86.4458518 21.2768276,87.0545815 C21.2304828,87.1237459 21.1464828,87.340822 21.0244138,87.7070598 C20.9027586,88.0741309 20.7554483,88.5341155 20.5812414,89.0865971 C20.4074483,89.639912 20.2187586,90.2582247 20.016,90.9427852 C19.8128276,91.6273458 19.6046897,92.3252392 19.3903448,93.0372988 C19.1755862,93.7493584 18.969931,94.4476684 18.7729655,95.1322289 C18.5755862,95.8163728 18.3984828,96.4351022 18.2424828,96.9884171 C18.086069,97.5408986 17.9557241,98.0037999 17.8510345,98.3775374 C17.7467586,98.7508583 17.6830345,98.9716843 17.6598621,99.0416819 C17.601931,99.2620913 17.5088276,99.5079164 17.3817931,99.7770741 C17.2543448,100.046648 17.1037241,100.30289 16.9295172,100.544549 C16.7557241,100.786207 16.5645517,100.98745 16.3555862,101.145778 C16.1470345,101.304523 15.9326897,101.384521 15.7121379,101.384521 C15.3413793,101.384521 15.0715862,101.259941 14.904,101.011616 C14.7355862,100.762458 14.652,100.306223 14.652,99.6429119 L14.652,99.3525049 C14.652,99.2554248 14.6573793,99.1512616 14.6689655,99.0416819 C14.6801379,98.8200227 14.7674483,98.4050365 14.930069,97.7963068 C15.0922759,97.1884104 15.2863448,96.5009333 15.5126897,95.7334589 C15.7386207,94.9659845 15.9823448,94.171011 16.2430345,93.3481217 C16.5033103,92.5256491 16.7383448,91.7898403 16.9473103,91.139862 C16.332,91.8315056 15.6662069,92.5189827 14.9474483,93.2035432 C14.2282759,93.8876871 13.4921379,94.5030832 12.7390345,95.0488984 C11.9851034,95.5951302 11.2257931,96.0409486 10.4611034,96.3867704 C9.696,96.7321756 8.95986207,96.9055031 8.25268966,96.9055031 C7.44124138,96.9055031 6.74275862,96.7255091 6.15682759,96.3659378 C6.05131034,96.3005233 5.95158621,96.2276091 5.85227586,96.1551115 L8.21586207,121.107613 C8.83117241,122.660478 20.4148966,126.475767 35.688,126.475767 C50.9681379,126.475767 62.5564138,122.656728 63.1609655,121.105113 L66.5561379,91.438602 C66.2751724,91.6981767 66.0016552,91.9519183 65.7401379,92.1977434 C64.766069,93.1097963 63.8470345,93.8943535 62.9834483,94.5509983 C62.1202759,95.2076431 61.2765517,95.7163761 60.4535172,96.0751142 C59.630069,96.4351022 58.7491034,96.6146795 57.8102069,96.6146795 C56.9292414,96.6146795 56.2477241,96.420936 55.7668966,96.0338655 C55.286069,95.6472118 55.0452414,95.1151462 55.0452414,94.4372521 L55.0452414,94.2818406 C55.0452414,94.2335089 55.0510345,94.1743442 55.0630345,94.1051798 C55.1089655,93.691027 55.2893793,93.2131262 55.6022069,92.6743942 C55.9150345,92.1348288 56.2915862,91.5752642 56.7318621,90.9948668 C57.1725517,90.4140529 57.6417931,89.8261558 58.1404138,89.2315923 C58.6390345,88.6374454 59.1,88.0741309 59.5233103,87.541232 C59.9462069,87.0099997 60.2966897,86.5225159 60.5747586,86.079614 C60.8536552,85.6371288 60.9926897,85.2779741 60.9926897,85.0013166 C60.9926897,84.8354888 60.9343448,84.7042432 60.8188966,84.6067464 C60.7026207,84.5109163 60.5110345,84.4617513 60.2449655,84.4617513 C59.7811034,84.4617513 59.3027586,84.5829972 58.8107586,84.8246558 C58.3175172,85.0663145 57.830069,85.3921369 57.3492414,85.7996233 C56.8684138,86.2075264 56.3987586,86.6745942 55.9406897,87.1995767 C55.4834483,87.7249758 55.0543448,88.2712076 54.6542069,88.8374388 C54.254069,89.4049198 53.8895172,89.9753175 53.5588966,90.5490484 C53.2282759,91.1227792 52.9473103,91.6515116 52.7151724,92.1348288 C52.6456552,92.2873238 52.5471724,92.5018999 52.4193103,92.7777241 C52.2918621,93.0543815 52.1528276,93.3660378 52.0022069,93.711443 C51.8511724,94.0572648 51.6918621,94.4135029 51.5238621,94.7789074 C51.3558621,95.1459785 51.2023448,95.4918003 51.0633103,95.8163728 C50.9242759,96.141362 50.7997241,96.4309356 50.690069,96.6871771 C50.5791724,96.9425852 50.5009655,97.119246 50.4546207,97.2163261 C50.3966897,97.3404887 50.3011034,97.5750642 50.1678621,97.920886 C50.0346207,98.2667078 49.8806897,98.6712776 49.7073103,99.1341789 C49.5335172,99.5970801 49.3506207,100.084564 49.1590345,100.59663 C48.9686897,101.107446 48.7882759,101.592014 48.6202759,102.048248 C48.4518621,102.504067 48.3041379,102.905303 48.1771034,103.251125 C48.0496552,103.596113 47.9677241,103.831522 47.9329655,103.956101 C47.8175172,104.315673 47.6809655,104.653578 47.5249655,104.972734 C47.3681379,105.290224 47.1889655,105.570214 46.9857931,105.812706 C46.7830345,106.054365 46.5513103,106.247692 46.2902069,106.392687 C46.0291034,106.538515 45.7365517,106.610596 45.4125517,106.610596 C44.9946207,106.610596 44.6503448,106.509766 44.3772414,106.309773 C44.1053793,106.109363 43.9688276,105.725209 43.9688276,105.158978 C43.9688276,104.882321 44.0035862,104.598997 44.0731034,104.309006 C44.1426207,104.018599 44.229931,103.731109 44.3342069,103.448202 C44.4384828,103.164045 44.546069,102.88822 44.6561379,102.618646 C44.7657931,102.348655 44.8675862,102.089914 44.9598621,101.840755 C45.5863448,100.458301 46.224,99.0725142 46.8728276,97.6825606 C47.5216552,96.2934402 48.1448276,94.9180694 48.7423448,93.5560315 C48.8664828,93.2718743 48.9806897,92.9935502 49.101931,92.7110596 C49.0655172,92.7468918 49.029931,92.7843905 48.9943448,92.8193894 C48.2404138,93.5526982 47.4902069,94.19851 46.7424828,94.7584914 C45.9943448,95.3184727 45.2524138,95.7642912 44.5171034,96.0963635 C43.7805517,96.4276024 43.0646897,96.5938469 42.3686897,96.5938469 C41.8936552,96.5938469 41.4968276,96.5180161 41.1782069,96.3659378 C40.8591724,96.2134429 40.6046897,96.0059498 40.4131034,95.7438752 C40.2215172,95.481384 40.0849655,95.1701443 40.0038621,94.810573 C39.9765517,94.6876604 39.9595862,94.5593314 39.9417931,94.431419 C39.7382069,94.590997 39.5329655,94.7464085 39.326069,94.8939035 C38.6073103,95.4047198 37.9001379,95.8163728 37.2045517,96.1271958 C36.5093793,96.4384354 35.8828966,96.5938469 35.3271724,96.5938469 C34.7702069,96.5938469 34.3183448,96.4071864 33.969931,96.0338655 C33.6223448,95.6609613 33.4489655,95.0247325 33.4489655,94.1264291 C33.4489655,93.4897837 33.5416552,92.750225 33.7266207,91.9073364 C33.4253793,92.4464851 33.0488276,92.9927169 32.5969655,93.5451985 C32.1442759,94.0985134 31.6286897,94.6030799 31.0493793,95.0597313 C30.4688276,95.5155495 29.82,95.8855371 29.1016552,96.168861 C28.3824828,96.4521849 27.6,96.5938469 26.7542069,96.5938469 C26.3714483,96.5938469 26.0035862,96.5455151 25.6497931,96.4488517 C25.296,96.3517716 24.986069,96.1859438 24.7195862,95.9509516 C24.4526897,95.7163761 24.2387586,95.4013866 24.0761379,95.0076497 C23.913931,94.6139129 23.8328276,94.1189294 23.8328276,93.5247825 C23.8328276,93.511033 23.856,93.3002067 23.9023448,92.8918869 C23.9486897,92.4839839 24.0964138,91.8410886 24.345931,90.9632012 C24.5950345,90.0857305 24.9806897,88.9482684 25.5016552,87.5516483 C26.0238621,86.1554448 26.76,84.4617513 27.7104828,82.471401 C27.9537931,81.9455851 28.2351724,81.568931 28.5533793,81.341022 C28.8728276,81.1126962 29.2171034,80.9985334 29.5878621,80.9985334 C29.7504828,80.9985334 29.9184828,81.0231159 30.0922759,81.071031 C30.2668966,81.1197793 30.4286897,81.1956101 30.5797241,81.2993567 C30.729931,81.4031032 30.852,81.5347655 30.9451034,81.6935102 C31.0369655,81.8522549 31.0841379,82.0351655 31.0841379,82.2426586 C31.0841379,82.3809873 31.0663448,82.5130662 31.0315862,82.6363955 C30.9732414,82.8726376 30.8486897,83.179294 30.6583448,83.5592814 C30.4667586,83.940102 30.2433103,84.3755041 29.988,84.8663211 C29.7335172,85.3571381 29.4637241,85.8858705 29.1798621,86.4533516 C28.8955862,87.0195827 28.632,87.6070631 28.3886897,88.2157928 C28.1453793,88.8245225 27.9364138,89.4428352 27.7626207,90.0719809 C27.5888276,90.7011266 27.489931,91.3131896 27.4671724,91.9073364 C27.4671724,92.1560781 27.5246897,92.3839872 27.6409655,92.5914803 C27.7568276,92.7989734 27.9484138,92.9023033 28.2148966,92.9023033 C28.968,92.9023033 29.6867586,92.6531449 30.3711724,92.1560781 C31.0547586,91.6581781 31.6862069,91.0394487 32.2663448,90.29989 C32.846069,89.5603313 33.3703448,88.7649412 33.84,87.9145528 C34.3096552,87.0641645 34.7006897,86.2871071 35.0135172,85.5817139 C35.234069,85.1121463 35.4281379,84.6067464 35.5961379,84.0680144 C35.7641379,83.5284491 35.9470345,83.0313823 36.144,82.5747308 C36.3413793,82.1180794 36.5668966,81.7380921 36.8222069,81.4339355 C37.0766897,81.1301957 37.3961379,80.9777007 37.778069,80.9777007 C38.196,80.9777007 38.5257931,81.1368621 38.769931,81.4547682 C39.0132414,81.7730909 39.1344828,82.1530782 39.1344828,82.5951468 C39.1344828,82.8438885 39.0566897,83.1867938 38.8998621,83.6221959 C38.7430345,84.0575981 38.546069,84.5554982 38.3085517,85.1154795 C38.0706207,85.6754608 37.8128276,86.2733576 37.5351724,86.908753 C37.2571034,87.5453985 36.9984828,88.1912103 36.7617931,88.8482717 C36.5230345,89.5049165 36.3268966,90.1478117 36.170069,90.7769574 C36.0132414,91.4056865 35.9354483,91.9902503 35.9354483,92.5289824 C35.9354483,93.0268824 36.1903448,93.2760408 36.7001379,93.2760408 C37.0597241,93.2760408 37.5057931,93.1514616 38.0391724,92.9023033 C38.5725517,92.6531449 39.132,92.3044065 39.7171034,91.8548382 C39.8631724,91.7427586 40.0104828,91.6256791 40.1565517,91.5027666 C40.32,90.8240392 40.5115862,90.1965601 40.7346207,89.6261625 C41.1401379,88.5470318 41.5518621,87.4762341 41.9693793,86.4116863 C42.3864828,85.3471384 42.7688276,84.3721709 43.1172414,83.4872004 L48.3856552,70.1109796 C48.5942069,69.5718309 48.8755862,69.191427 49.2285517,68.9701843 C49.5827586,68.7493584 49.9390345,68.6385287 50.2986207,68.6385287 C50.6573793,68.6385287 50.9846897,68.7560248 51.2805517,68.991017 C51.5764138,69.2264258 51.7245517,69.6064131 51.7245517,70.1318123 C51.7245517,70.380554 51.6748966,70.6434619 51.5764138,70.9197027 C51.477931,71.1963601 51.3533793,71.4934336 51.2023448,71.8113396 C50.9131034,72.4617346 50.568,73.2562915 50.1678621,74.1962601 C49.7677241,75.1366454 49.3386207,76.1599447 48.8809655,77.2657411 C48.4228966,78.3719543 47.9532414,79.5227492 47.4724138,80.7185427 C46.9915862,81.9147528 46.521931,83.0792974 46.0638621,84.2130096 C45.6066207,85.3471384 45.1771034,86.4212693 44.7769655,87.4379021 C44.3772414,88.4541182 44.0329655,89.3357555 43.7424828,90.0819806 C43.6150345,90.3998867 43.4904828,90.770291 43.3692414,91.1919436 C43.2471724,91.6131796 43.1867586,91.9902503 43.1867586,92.3223226 C43.1867586,92.5289824 43.2215172,92.6948102 43.2910345,92.8193894 C43.3605517,92.9439685 43.4937931,93.0064665 43.6907586,93.0064665 C43.934069,93.0064665 44.2382069,92.9202193 44.6035862,92.7468918 C44.9685517,92.5743975 45.3624828,92.3456551 45.7857931,92.0623313 C46.2095172,91.779424 46.6497931,91.4544349 47.1070345,91.0877804 C47.5655172,90.7215426 48.0202759,90.3415553 48.4721379,89.9474018 C48.9248276,89.5528316 49.3564138,89.1590947 49.7677241,88.7649412 C50.1790345,88.3712043 50.5477241,88.0082997 50.8725517,87.6762275 C50.9486897,87.5966468 51.0397241,87.5403987 51.1398621,87.4983167 C51.3355862,86.9095863 51.5143448,86.3329389 51.672,85.768791 C51.7646897,85.5196327 51.8925517,85.1675611 52.0547586,84.7109096 C52.2165517,84.2542582 52.4023448,83.8051065 52.6108966,83.3626212 C52.8194483,82.9205526 53.0548966,82.5363988 53.3147586,82.2118263 C53.5758621,81.8872538 53.8572414,81.7243425 54.1584828,81.7243425 C54.6223448,81.7243425 54.9587586,81.8318389 55.1673103,82.0455818 C55.3758621,82.2605746 55.4801379,82.5747308 55.4801379,82.989717 C55.4801379,83.0726309 55.4685517,83.2038765 55.4453793,83.3834539 C55.4217931,83.5634479 55.3936552,83.7538582 55.3588966,83.9542682 C55.3241379,84.1542615 55.286069,84.3446718 55.2455172,84.5246658 C55.2045517,84.7042432 55.1673103,84.8354888 55.1325517,84.9184027 C55.5608276,84.4480017 56.0246897,83.9817673 56.5233103,83.518866 C57.021931,83.0555481 57.5375172,82.6363955 58.0708966,82.2639079 C58.6046897,81.8901703 59.1492414,81.5868471 59.7062069,81.350605 C60.261931,81.1164461 60.8188966,80.9985334 61.3750345,80.9985334 C61.7573793,80.9985334 62.1372414,81.0539482 62.5137931,81.1647778 C62.8903448,81.2751908 63.2271724,81.4376854 63.5222069,81.6518449 C63.818069,81.8668378 64.0588966,82.1359955 64.2438621,82.4609846 C64.4292414,82.7855571 64.521931,83.1622113 64.521931,83.590947 C64.521931,84.1584281 64.3804138,84.7629912 64.0961379,85.4058865 C63.8122759,86.0487817 63.456,86.6950102 63.0268966,87.3441552 C62.5977931,87.9945502 62.133931,88.6266124 61.6361379,89.2420086 C61.1375172,89.8574048 60.6711724,90.4169694 60.2362759,90.9215359 C59.8013793,91.4269358 59.436,91.8548382 59.1401379,92.2073264 C58.8455172,92.560648 58.6907586,92.7989734 58.6795862,92.9235525 C58.6795862,93.0893804 58.7321379,93.2239592 58.8364138,93.3281224 C58.9406897,93.4314523 59.1144828,93.4835339 59.3577931,93.4835339 C59.5547586,93.4835339 59.8452414,93.3727042 60.2271724,93.1514616 C60.6095172,92.930219 61.1462069,92.5468984 61.8355862,92.0006666 C62.5249655,91.4544349 63.4009655,90.7215426 64.4615172,89.8019899 C65.1889655,89.1720109 66.0405517,88.420786 67.0001379,87.5662311 L71.5990345,44.6805773 C70.8583448,45.0922303 70.0878621,45.350555 69.6335172,45.5017999 C67.7308966,46.1342789 65.0441379,46.6975934 61.6477241,47.1750775 Z M36,37 C16.1178612,37 0,39.2384174 0,41.9998333 C0,44.7612492 16.1178612,46.9996667 36,46.9996667 C55.8821388,46.9996667 72,44.7612492 72,41.9998333 C72,39.2384174 55.8821388,37 36,37 Z M50.3743448,43.4610346 C50.3743448,44.1089297 48.4588966,44.6343289 46.0957241,44.6343289 C43.7329655,44.6343289 41.8175172,44.1089297 41.8175172,43.4610346 C41.8175172,42.8127229 43.7329655,42.2873238 46.0957241,42.2873238 C48.4588966,42.2873238 50.3743448,42.8127229 50.3743448,43.4610346 Z" id="Cup"></path>
                <path d="M43.0328427,41.1436497 C43.0111886,41.1774304 43,41.2119242 43,41.2469761 C43,41.6631644 44.5742342,42 46.5155221,42 C48.4572324,42 50.0310442,41.6631644 50.0310442,41.2469761 L54.6228069,23.0297493 L72.8838581,4.16498757 C72.8898205,4.15923206 72.8955878,4.15327585 72.9011565,4.14711711 C73.2876401,3.71935656 72.5032685,2.39557196 71.201896,1.26024998 C69.9005234,0.124928001 68.4952438,-0.259436556 68.0584963,0.172870247 C68.0552317,0.176103383 68.0520477,0.179382193 68.0489432,0.182706308 L48.5653634,20.2433129 L43.0328427,41.1436497 Z" id="Straw"></path>
            </g>
        </g>
    </g>
</svg>