<?xml version="1.0" encoding="UTF-8"?>
<svg width="218px" height="250px" viewBox="0 0 218 250" version="1.1" xmlns="http://www.w3.org/2000/svg" xmlns:xlink="http://www.w3.org/1999/xlink">
    <!-- Generator: Sketch 47.1 (45422) - http://www.bohemiancoding.com/sketch -->
    <title>modx</title>
    <desc>Created with Sketch.</desc>
    <defs>
        <linearGradient x1="61.9889981%" y1="55.7807153%" x2="39.7351382%" y2="-16.8290998%" id="linearGradient-1">
            <stop stop-color="#80C3E6" offset="0%"></stop>
            <stop stop-color="#3380C2" offset="100%"></stop>
        </linearGradient>
        <linearGradient x1="123.372644%" y1="55.600833%" x2="40.5484837%" y2="44.3747693%" id="linearGradient-2">
            <stop stop-color="#F38649" offset="0%"></stop>
            <stop stop-color="#F28147" offset="18.49%"></stop>
            <stop stop-color="#EF7242" offset="40.91%"></stop>
            <stop stop-color="#EA5A3A" offset="65.37%"></stop>
            <stop stop-color="#E4382E" offset="91.1%"></stop>
            <stop stop-color="#E12A29" offset="100%"></stop>
        </linearGradient>
        <linearGradient x1="13.8425304%" y1="79.6928428%" x2="64.6382929%" y2="21.2866003%" id="linearGradient-3">
            <stop stop-color="#42AB4A" offset="0%"></stop>
            <stop stop-color="#ADD155" offset="100%"></stop>
        </linearGradient>
        <linearGradient x1="40.6522573%" y1="124.295675%" x2="59.3482862%" y2="-24.2950001%" id="linearGradient-4">
            <stop stop-color="#42AB4A" offset="0%"></stop>
            <stop stop-color="#ADD155" offset="100%"></stop>
        </linearGradient>
    </defs>
    <g id="Page-1" stroke="none" stroke-width="1" fill="none" fill-rule="evenodd">
        <g id="modx">
            <g id="Hexagon-Large" fill="#FFFFFF">
                <polygon id="Polygon" points="109.066987 0 217.320163 62.5 217.320163 187.5 109.066987 250 0.813811825 187.5 0.813811825 62.5"></polygon>
            </g>
            <g id="modx-seeklogo.com" transform="translate(49.000000, 48.000000)" fill-rule="nonzero">
                <g id="Group" transform="translate(8.000000, 0.000000)">
                    <polygon id="Shape" fill="url(#linearGradient-1)" points="86.9152019 47.8700408 109.755046 11.0711962 54.8164277 11.0711962 47.2257104 23.3347818"></polygon>
                    <polygon id="Shape" fill="#000000" opacity="0.15" points="47.2303001 23.3347818 51.1174447 17.0400753 86.9197916 47.8700408"></polygon>
                    <polygon id="Shape" fill="url(#linearGradient-2)" points="98.9965578 114.587227 98.9965578 59.265909 87.1446675 51.8053878 62.2224252 91.4488665"></polygon>
                    <polygon id="Shape" fill="#000000" opacity="0.15" points="62.2224252 91.4465557 68.3789831 95.3171994 87.1446675 51.8053878"></polygon>
                    <polygon id="Shape" fill="url(#linearGradient-3)" points="10.5123859 0 10.5123859 55.3224741 23.2236245 62.7818397 86.907171 47.8631084"></polygon>
                    <polygon id="Shape" fill="url(#linearGradient-4)" points="22.9574446 67.0002636 0.11874837 103.176339 55.0539242 103.176339 87.1504043 51.8053878"></polygon>
                </g>
                <path d="M0.00231242834,149.803511 L3.22121268,149.803511 L4.83066281,130.234472 L1.53429621,130.234472 L1.53429621,126.458092 L10.3862719,126.458092 L16.4402093,141.755827 C16.8992263,143.090969 17.0911579,144.006002 17.0911579,144.006002 L17.167468,144.006002 C17.167468,144.006002 17.3593996,143.090969 17.8577278,141.755827 L23.8735102,126.458092 L32.7243297,126.458092 L32.7243297,130.234472 L29.4684306,130.234472 L31.0385694,149.803511 L34.2574697,149.803511 L34.2574697,153.541908 L23.105784,153.541908 L23.105784,149.803511 L26.1327527,149.803511 L25.1372523,136.149381 C25.0609422,135.194064 25.2528737,133.631027 25.2528737,133.631027 L25.1372523,133.631027 C25.1372523,133.631027 24.8296993,135.116948 24.4863037,136.034283 L19.2740902,148.506351 L14.9822232,148.506351 L9.77116594,136.034283 C9.4254579,135.116948 9.15837247,133.631027 9.15837247,133.631027 L9.00459594,133.631027 C9.00459594,133.631027 9.1965275,135.191762 9.12021739,136.149381 L8.12471699,149.803511 L11.1898407,149.803511 L11.1898407,153.541908 L0,153.541908 L0,149.803511 L0.00231242834,149.803511 Z M50.2444428,126 C58.2905376,126 64.3444749,132.065688 64.3444749,139.810663 C64.3444749,147.783533 58.2905376,154 50.2444428,154 C42.1960362,154 36.1420988,147.783533 36.1420988,139.810663 C36.1420988,132.064537 42.1960362,126 50.2444428,126 Z M50.2444428,149.612447 C55.1491037,149.612447 59.1738851,145.379126 59.1738851,139.809512 C59.1738851,134.467793 55.1502597,130.385251 50.2444428,130.385251 C45.3386263,130.385251 41.3150009,134.468944 41.3150009,139.809512 C41.3150009,145.380277 45.3397825,149.612447 50.2444428,149.612447 Z M66.840741,149.803511 L70.095484,149.803511 L70.095484,130.234472 L66.840741,130.234472 L66.840741,126.458092 L78.6040643,126.458092 C80.7916216,126.458092 82.5143806,126.57319 84.2764507,127.104945 C89.5638184,128.669133 93.0902715,133.323714 93.0902715,139.998274 C93.0902715,146.406955 89.8320601,151.022403 84.6603139,152.739672 C82.8184646,153.386525 80.9049302,153.538455 78.6422195,153.538455 L66.840741,153.538455 L66.840741,149.803511 Z M78.4132889,149.537633 C80.1360479,149.537633 81.5165676,149.384552 82.8577762,148.848193 C85.9622114,147.589016 87.9162133,144.423809 87.9162133,139.999425 C87.9162133,135.420809 85.8477459,132.294734 82.6658444,131.07354 C81.2876375,130.539483 80.0215828,130.464669 78.4132889,130.464669 L75.1157659,130.464669 L75.1157659,149.537633 L78.4132889,149.537633 L78.4132889,149.537633 Z M95.9750261,149.803511 L98.3903571,149.803511 L105.24902,139.809512 L98.5799765,130.234472 L96.164645,130.234472 L96.164645,126.458092 L106.436452,126.458092 L106.436452,130.234472 L103.754035,130.234472 L107.509418,135.84322 C108.010059,136.450939 108.277145,136.987298 108.277145,136.987298 L108.352299,136.987298 C108.352299,137.02413 108.618228,136.488922 109.080713,135.84322 L112.71932,130.234472 L110.113213,130.234472 L110.113213,126.458092 L120,126.458092 L120,130.234472 L117.62398,130.234472 L110.727163,140.189337 L117.508359,149.803511 L119.922534,149.803511 L119.922534,153.541908 L109.613728,153.541908 L109.613728,149.803511 L112.296145,149.803511 L108.502607,144.119949 C108.005434,143.473096 107.737192,142.939039 107.737192,142.939039 L107.660883,142.939039 C107.584572,142.939039 107.35333,143.474247 106.933624,144.119949 L103.293862,149.803511 L105.935811,149.803511 L105.935811,153.541908 L95.976182,153.541908 L95.9750261,149.803511 Z" id="Shape" fill="#000000"></path>
            </g>
        </g>
    </g>
</svg>