<?xml version="1.0" encoding="UTF-8"?>
<svg width="218px" height="250px" viewBox="0 0 218 250" version="1.1" xmlns="http://www.w3.org/2000/svg" xmlns:xlink="http://www.w3.org/1999/xlink">
    <!-- Generator: Sketch 47.1 (45422) - http://www.bohemiancoding.com/sketch -->
    <title>wordpress</title>
    <desc>Created with Sketch.</desc>
    <defs></defs>
    <g id="Page-1" stroke="none" stroke-width="1" fill="none" fill-rule="evenodd">
        <g id="wordpress">
            <g id="Hexagon-Large" fill="#FFFFFF">
                <polygon id="Polygon" points="109.066987 0 217.320163 62.5 217.320163 187.5 109.066987 250 0.813811825 187.5 0.813811825 62.5"></polygon>
            </g>
            <g id="wordpress-01" transform="translate(13.000000, 57.000000)">
                <g id="Logo" transform="translate(47.000000, 0.000000)" fill="#1488B3">
                    <path d="M87.7346939,29.1099793 C87.9203011,30.4630525 88.0242412,31.9129834 88.0242412,33.4788501 C88.0242412,37.7890193 87.2060845,42.6392438 84.7530992,48.7016575 L71.6195311,86.2296271 C84.4041576,78.8640366 93,65.1762776 93,49.4985325 C93,42.1094613 91.0889879,35.1606526 87.7346939,29.1099793 Z M50.7557927,53.2158149 L37.8538624,90.2683011 C41.7070686,91.3865677 45.7815187,92 50,92 C55.0084257,92 59.811941,91.1458909 64.2813633,89.5888294 C64.1670292,89.4083218 64.0601195,89.2131388 63.9739977,89.0047479 L50.7557927,53.2158149 Z M79.028972,47.3544544 C79.028972,42.1006561 77.1194447,38.4626209 75.4846162,35.6346685 C73.3048448,32.1316471 71.2616803,29.1672134 71.2616803,25.6656595 C71.2616803,21.7575967 74.2566387,18.1239641 78.4810594,18.1239641 C78.6726061,18.1239641 78.8537588,18.1474448 79.0378811,18.1577175 C71.3893781,11.230922 61.1958286,7 50,7 C34.9776926,7 21.7624573,14.6180076 14.0723782,26.1528833 C15.0835664,26.1866367 16.0338755,26.2071823 16.8401533,26.2071823 C21.3377879,26.2071823 28.3017715,25.6656595 28.3017715,25.6656595 C30.6196347,25.5306457 30.8913637,28.8986533 28.5764702,29.1672134 C28.5764702,29.1672134 26.2452433,29.437241 23.6556511,29.5722548 L39.3134777,75.6075622 L48.7245071,47.7125345 L42.0248282,29.5722548 C39.7084499,29.437241 37.5153148,29.1672134 37.5153148,29.1672134 C35.1989364,29.0321996 35.4691806,25.5306457 37.7885286,25.6656595 C37.7885286,25.6656595 44.8876342,26.2071823 49.1135398,26.2071823 C53.6096896,26.2071823 60.575158,25.6656595 60.575158,25.6656595 C62.8915363,25.5306457 63.166235,28.8986533 60.8483718,29.1672134 C60.8483718,29.1672134 58.5156601,29.437241 55.9290376,29.5722548 L71.4665907,75.2553522 L75.7563452,61.0921098 C77.9376014,55.5697514 79.028972,50.9910221 79.028972,47.3544544 Z M7,49.4985325 C7,66.3180249 16.8921233,80.8584254 31.2373355,87.7455974 L10.7240236,32.2035566 C8.33934183,37.4881733 7,43.336326 7,49.4985325 L7,49.4985325 Z" id="Fill-4"></path>
                    <path d="M2.29282382,49.5 C2.29282382,23.4552402 23.6954751,2.27132828 49.9992594,2.27132828 C76.3045249,2.27132828 97.7086573,23.4552402 97.7086573,49.5 C97.7086573,75.5418271 76.3045249,96.7316044 49.9992594,96.7316044 C23.6954751,96.7316044 2.29282382,75.5418271 2.29282382,49.5 Z M0,49.5 C0,76.7955299 22.4290898,99 49.9992594,99 C77.5723913,99 100,76.7955299 100,49.5 C100,22.2044701 77.5723913,0 49.9992594,0 C22.4290898,0 0,22.2044701 0,49.5 L0,49.5 Z" id="Fill-5"></path>
                </g>
                <g id="Name" transform="translate(0.000000, 110.000000)">
                    <path d="M86.981535,22.7178095 L86.5943057,22.7178095 C84.607758,22.7178095 84.3323949,22.217619 84.3323949,19.6621905 L84.3323949,7.60438095 C84.3323949,7.60438095 86.7590318,7.60438095 86.981535,7.60438095 C92.7174459,7.60438095 93.7660382,11.8275238 93.7660382,15.106 C93.7660382,18.4934286 92.7174459,22.7178095 86.981535,22.7178095 Z M63.6986051,14.9945714 L63.6986051,7.60438095 L65.9605159,7.60438095 C68.4437006,7.60438095 69.5476115,9.32657143 69.5476115,11.3260952 C69.5476115,13.272381 68.4437006,14.9945714 65.9605159,14.9945714 L63.6986051,14.9945714 Z M86.8155796,5.93666667 L76.9406178,5.93666667 L76.9406178,6.9927619 C80.0286178,6.9927619 80.5252548,7.66009524 80.5252548,11.6046667 L80.5252548,18.7187619 C80.5252548,22.6620952 80.0286178,23.3851429 76.9406178,23.3851429 C74.5680701,23.0520952 72.9675223,21.7731429 70.7609299,19.3279048 L68.2224268,16.549619 C71.6435669,15.938 73.4641592,13.7713333 73.4641592,11.3260952 C73.4641592,8.27171429 70.8703376,5.93666667 66.0158344,5.93666667 L56.306828,5.93666667 L56.306828,6.9927619 C59.3960573,6.9927619 59.891465,7.66009524 59.891465,11.6046667 L59.891465,18.7187619 C59.891465,22.6620952 59.3960573,23.3851429 56.306828,23.3851429 L56.306828,24.44 L67.2857006,24.44 L67.2857006,23.3851429 C64.1964713,23.3851429 63.6986051,22.6620952 63.6986051,18.7187619 L63.6986051,16.7167619 L64.6365605,16.7167619 L70.7609299,24.44 L86.8155796,24.44 C94.7052229,24.44 98.1239045,20.2180952 98.1239045,15.1617143 C98.1239045,10.1053333 94.7052229,5.93666667 86.8155796,5.93666667 L86.8155796,5.93666667 Z" id="Fill-6" fill="#1488B3"></path>
                    <path d="M25.5792611,17.0498095 L29.3839427,5.71380952 C30.4890828,2.43780952 29.9912166,1.49190476 26.4606688,1.49190476 L26.4606688,0.381333333 L36.8334968,0.381333333 L36.8334968,1.49190476 C33.3582675,1.49190476 32.5297197,2.32638095 31.1504459,6.38114286 L24.8613503,25.3859048 L24.1446688,25.3859048 L18.515707,7.99190476 L12.7797962,25.3859048 L12.0618854,25.3859048 L5.93874522,6.38114286 C4.61356051,2.32638095 3.73092357,1.49190476 0.532286624,1.49190476 L0.532286624,0.381333333 L12.7797962,0.381333333 L12.7797962,1.49190476 C9.52338217,1.49190476 8.64074522,2.27066667 9.79997452,5.71380952 L13.4952484,17.0498095 L19.0676624,0.381333333 L20.1162548,0.381333333 L25.5792611,17.0498095" id="Fill-7" fill="#1488B3"></path>
                    <path d="M44.3346815,6.93704762 C39.2601338,6.93704762 37.4936306,11.5489524 37.4936306,15.1617143 C37.4936306,18.8301905 39.2601338,23.3851429 44.3346815,23.3851429 C49.4657771,23.3851429 51.231051,18.8301905 51.231051,15.1617143 C51.231051,11.5489524 49.4657771,6.93704762 44.3346815,6.93704762 Z M44.3346815,25.1630476 C38.2668599,25.1630476 33.3004904,20.6625714 33.3004904,15.1617143 C33.3004904,9.71533333 38.2668599,5.21609524 44.3346815,5.21609524 C50.4037325,5.21609524 55.3688726,9.71533333 55.3688726,15.1617143 C55.3688726,20.6625714 50.4037325,25.1630476 44.3346815,25.1630476 L44.3346815,25.1630476 Z" id="Fill-8" fill="#1488B3"></path>
                    <path d="M110.537369,2.38209524 L107.391592,2.38209524 L107.391592,12.0491429 L110.537369,12.0491429 C113.627828,12.0491429 115.061191,9.88247619 115.061191,7.27133333 C115.061191,4.60447619 113.627828,2.38209524 110.537369,2.38209524 Z M111.749459,23.3281905 L111.749459,24.44 L99.1171783,24.44 L99.1171783,23.3281905 C102.813682,23.3281905 103.476274,22.3847619 103.476274,16.8281905 L103.476274,7.93866667 C103.476274,2.38209524 102.813682,1.49190476 99.1171783,1.49190476 L99.1171783,0.381333333 L110.537369,0.381333333 C116.219191,0.381333333 119.363739,3.3267619 119.363739,7.27133333 C119.363739,11.1057143 116.219191,14.1068571 110.537369,14.1068571 L107.391592,14.1068571 L107.391592,16.8281905 C107.391592,22.3847619 108.054185,23.3281905 111.749459,23.3281905 L111.749459,23.3281905 Z" id="Fill-9" fill="#000000"></path>
                    <path d="M128.026611,14.9945714 L128.026611,7.60438095 L130.287293,7.60438095 C132.770478,7.60438095 133.874389,9.32657143 133.874389,11.3260952 C133.874389,13.272381 132.770478,14.9945714 130.287293,14.9945714 L128.026611,14.9945714 Z M157.264268,19.2164762 L156.988904,20.2180952 C156.492268,22.0504762 155.884994,22.7178095 151.968446,22.7178095 L151.195217,22.7178095 C148.326032,22.7178095 147.831854,22.0504762 147.831854,18.1071429 L147.831854,15.5504762 C152.134401,15.5504762 152.465083,15.938 152.465083,18.8301905 L153.513675,18.8301905 L153.513675,10.5498095 L152.465083,10.5498095 C152.465083,13.4395238 152.134401,13.8270476 147.831854,13.8270476 L147.831854,7.60438095 L150.865764,7.60438095 C154.782312,7.60438095 155.388357,8.27171429 155.884994,10.1053333 L156.160357,11.1589524 L157.044223,11.1589524 L156.658223,5.93666667 L140.436389,5.93666667 L140.436389,6.9927619 C143.526847,6.9927619 144.023484,7.66009524 144.023484,11.6046667 L144.023484,18.7187619 C144.023484,22.3265714 143.600605,23.2353333 141.166592,23.3665714 C138.851822,23.0087619 137.261108,21.736 135.087707,19.3279048 L132.549204,16.549619 C135.969115,15.938 137.790936,13.7713333 137.790936,11.3260952 C137.790936,8.27171429 135.197115,5.93666667 130.342611,5.93666667 L120.633605,5.93666667 L120.633605,6.9927619 C123.722834,6.9927619 124.218242,7.66009524 124.218242,11.6046667 L124.218242,18.7187619 C124.218242,22.6620952 123.722834,23.3851429 120.633605,23.3851429 L120.633605,24.44 L131.611248,24.44 L131.611248,23.3851429 C128.523248,23.3851429 128.026611,22.6620952 128.026611,18.7187619 L128.026611,16.7167619 L128.963338,16.7167619 L135.087707,24.44 L157.762134,24.44 L158.092815,19.2164762 L157.264268,19.2164762 L157.264268,19.2164762 Z" id="Fill-10" fill="#000000"></path>
                    <path d="M168.463185,25.1630476 C166.256592,25.1630476 164.326592,23.9955238 163.498045,23.2749524 C163.221452,23.5522857 162.727274,24.3842857 162.615408,25.1630476 L161.568045,25.1630476 L161.568045,17.4955238 L162.670726,17.4955238 C163.112045,21.1615238 165.649318,23.3281905 168.904503,23.3281905 C170.669777,23.3281905 172.105599,22.3290476 172.105599,20.6625714 C172.105599,19.2164762 170.835732,18.1071429 168.573822,17.0498095 L165.429274,15.5504762 C163.221452,14.494381 161.568045,12.6607619 161.568045,10.2167619 C161.568045,7.54866667 164.05,5.27180952 167.47114,5.27180952 C169.291732,5.27180952 170.835732,5.93666667 171.773688,6.71542857 C172.05028,6.49257143 172.325643,5.88095238 172.491599,5.21609524 L173.538962,5.21609524 L173.538962,11.7718095 L172.382191,11.7718095 C171.993732,9.15942857 170.560369,6.9927619 167.637096,6.9927619 C166.090637,6.9927619 164.656045,7.88295238 164.656045,9.27085714 C164.656045,10.7169524 165.815274,11.4932381 168.463185,12.7164762 L171.498325,14.2158095 C174.146236,15.4947619 175.194828,17.5512381 175.194828,19.2164762 C175.194828,22.7178095 172.159688,25.1630476 168.463185,25.1630476" id="Fill-11" fill="#000000"></path>
                    <path d="M185.454561,25.1630476 C183.247968,25.1630476 181.316739,23.9955238 180.48942,23.2749524 C180.214057,23.5522857 179.716191,24.3842857 179.608013,25.1630476 L178.55942,25.1630476 L178.55942,17.4955238 L179.662102,17.4955238 C180.10342,21.1615238 182.640694,23.3281905 185.897108,23.3281905 C187.661153,23.3281905 189.096975,22.3290476 189.096975,20.6625714 C189.096975,19.2164762 187.827108,18.1071429 185.565197,17.0498095 L182.42065,15.5504762 C180.214057,14.494381 178.55942,12.6607619 178.55942,10.2167619 C178.55942,7.54866667 181.041376,5.27180952 184.462516,5.27180952 C186.283108,5.27180952 187.827108,5.93666667 188.766293,6.71542857 C189.040427,6.49257143 189.317019,5.88095238 189.482975,5.21609524 L190.530338,5.21609524 L190.530338,11.7718095 L189.371108,11.7718095 C188.986338,9.15942857 187.550516,6.9927619 184.627242,6.9927619 C183.083242,6.9927619 181.64865,7.88295238 181.64865,9.27085714 C181.64865,10.7169524 182.80665,11.4932381 185.454561,12.7164762 L188.489701,14.2158095 C191.137611,15.4947619 192.184975,17.5512381 192.184975,19.2164762 C192.184975,22.7178095 189.151064,25.1630476 185.454561,25.1630476" id="Fill-12" fill="#000000"></path>
                </g>
            </g>
        </g>
    </g>
</svg>