<?xml version="1.0" encoding="UTF-8"?>
<svg width="231px" height="265px" viewBox="0 0 231 265" version="1.1" xmlns="http://www.w3.org/2000/svg" xmlns:xlink="http://www.w3.org/1999/xlink">
    <!-- Generator: Sketch 46 (44423) - http://www.bohemiancoding.com/sketch -->
    <title>education</title>
    <desc>Created with Sketch.</desc>
    <defs></defs>
    <g id="Page-1" stroke="none" stroke-width="1" fill="none" fill-rule="evenodd">
        <g id="education" transform="translate(-17.000000, 0.000000)">
            <polygon id="Mask" fill="#FFFFFF" points="132.445298 0 247.14629 66.2226489 247.14629 198.667947 132.445298 264.890595 17.7443053 198.667947 17.7443053 66.2226489"></polygon>
            <g id="rim" transform="translate(79.789474, 131.526316)">
                <path d="M49.2171799,50.9055302 C76.4880139,50.9055302 98.5953929,43.0653505 98.5953929,33.3939987 L98.5953929,0.648937354 L51.4647763,19.2146163 L51.4647763,19.2146163 C50.5226504,19.5857383 49.4748328,19.5857383 48.5327069,19.2146163 L4.24428113,1.76853233 L0.634568451,26.0881001 C2.07143893,26.984245 3.07688259,29.0469195 3.07688259,31.448273 C3.07688259,33.5169696 2.33071015,35.3343216 1.20534901,36.3710628 L1.48459295,37.8940456 C7.08497549,45.3848249 26.3331402,50.9055302 49.2171799,50.9055302 Z" fill="#585858"></path>
                <path d="M50.3360812,19.4787117 C50.7199721,19.4462288 51.1002841,19.358197 51.4647763,19.2146163 L51.4647763,19.2146163 L98.5953929,0.648937354 L98.5953929,33.3939987 C98.5953929,42.9327316 77.0901538,50.6901682 50.3360812,50.901123 L50.3360812,19.4787117 Z" id="shadow-rim" fill="#474747"></path>
            </g>
            <g id="top" transform="translate(40.000000, 69.000000)">
                <path d="M88.8851263,75.4528033 C89.3013883,75.6209893 89.7512433,75.6209893 90.1675053,75.4528033 L177.234735,40.2742792 C177.843002,40.028516 178.320261,39.4484158 178.522456,38.7090789 C178.876575,37.4142173 178.300043,36.0155959 177.234735,35.5851705 L90.1675053,0.406646417 C89.7512433,0.238460485 89.3013883,0.238460485 88.8851263,0.406646417 L1.81789626,35.5851705 C1.20962962,35.8309338 0.732370108,36.4110339 0.530176001,37.1503708 C0.176056812,38.4452324 0.752588808,39.8438539 1.81789626,40.2742792 L35.2560865,53.7845997 L87.07354,37.3120514 L48.2986463,59.0542977 L88.8851263,75.4528033 Z" fill="#585858"></path>
                <path d="M90.3277788,71.0721372 L90.3747324,75.2259376 L178.05696,39.461087 C178.558316,39.2565882 178.955332,38.8575497 179.157282,38.3551617 C179.569256,37.3302954 179.072409,36.1655059 178.047543,35.7535314 L178.047543,35.7535314 L89.5263158,0.169874788 L89.5320694,0.678874512 L172.063935,35.2307414 L172.063935,35.2307414 C172.573377,35.4440187 172.813466,36.0298986 172.600189,36.5393406 C172.498471,36.7823075 172.305,36.9753311 172.061798,37.076486 L90.3277788,71.0721372 Z" id="shadow-top" fill="#505050"></path>
            </g>
            <g id="tassel" transform="translate(66.526316, 105.947368)">
                <path d="M4.94125226,59.8948932 C4.46281064,59.1246008 4.18095203,58.1789747 4.18095203,57.1569625 C4.18095203,54.7543964 5.73860154,52.7739672 7.74604691,52.5011471 L7.74604691,16.6436108 L7.74604691,16.6436108 C7.74604691,16.2014311 8.03645177,15.8117469 8.46017878,15.6853418 L8.46017878,15.6853418 L60.5664362,0.141148325 L13.4278404,22.4818776 L9.71387083,52.7994743 C11.2062806,53.4884196 12.2612249,55.1797414 12.2612249,57.1569625 C12.2612249,58.9246317 11.4180433,60.4637913 10.1729045,61.2624768 L10.2124845,61.2884821 L13.896514,81.4121004 L9.50815616,79.0693697 L7.89201417,83.9729005 L6.27378932,76.9635986 L2.38297375,82.7278654 L0.65441539,75.2406566 L4.14067474,67.7240643 L0.447626358,69.5834306 L4.94125226,59.8948932 Z" fill="#F5A623"></path>
                <path d="M14.8701641,18.6732059 L41.9319109,9.06773713 L13.3447553,22.5256372 L13.5479966,20.3702419 L13.5479966,20.3702419 C13.6210486,19.5955179 14.1368289,18.9335006 14.8701641,18.6732059 Z" id="shadow-tassel-top" fill-opacity="0.072435462" fill="#000000"></path>
                <polygon id="shadow-tassel-2" fill-opacity="0.1" fill="#000000" points="7.73976844 65.5247209 9.57266676 79.0786775 7.94539958 84.2832719 6.31813241 77.1064102"></polygon>
                <polygon id="shadow-tassel-1" fill-opacity="0.1" fill="#000000" transform="translate(3.251451, 78.385892) rotate(12.000000) translate(-3.251451, -78.385892) " points="3.56020134 73.6509937 4.74434888 79.2777353 3.27950385 83.1207902 1.75855292 79.5826839"></polygon>
                <path d="M4.38084736,58.6509388 C4.9214511,60.4948527 6.44755019,61.823764 8.24571538,61.823764 C10.4959444,61.823764 12.3201154,59.742677 12.3201154,57.1755262 C12.3201154,56.1448861 12.0260953,55.1925897 11.5285262,54.4218501 C11.6644355,54.8854152 11.7380582,55.3815303 11.7380582,55.8972626 C11.7380582,58.4644134 9.91388721,60.5455004 7.66365824,60.5455004 C6.31683407,60.5455004 5.12263891,59.7999816 4.38084736,58.6509388 L4.38084736,58.6509388 Z" id="shadow-tassel-moon" fill-opacity="0.0651890851" fill="#000000"></path>
            </g>
        </g>
    </g>
</svg>