<?xml version="1.0" encoding="UTF-8"?>
<svg width="231px" height="265px" viewBox="0 0 231 265" version="1.1" xmlns="http://www.w3.org/2000/svg" xmlns:xlink="http://www.w3.org/1999/xlink">
    <!-- Generator: Sketch 46 (44423) - http://www.bohemiancoding.com/sketch -->
    <title>science</title>
    <desc>Created with Sketch.</desc>
    <defs></defs>
    <g id="Page-1" stroke="none" stroke-width="1" fill="none" fill-rule="evenodd">
        <g id="science" transform="translate(-17.000000, 0.000000)">
            <polygon id="Mask" fill="#FFFFFF" points="132.445298 0 247.14629 66.2226489 247.14629 198.667947 132.445298 264.890595 17.7443053 198.667947 17.7443053 66.2226489"></polygon>
            <path d="M197.741111,174.034788 C182.017205,152.012412 152.011444,114.018674 149.995379,111.046337 L149.995379,64.9008762 C149.44395,65.0236352 148.87227,65.0952758 148.282288,65.0952758 L116.60783,65.0952758 C116.019016,65.0952758 115.448505,65.0243815 114.898245,64.9019956 L114.898245,111.046711 C112.88218,114.019047 83.1719932,151.620628 67.1525124,174.035161 C55.4525591,190.405024 67.157575,201.388414 80.9623828,200.902601 L132.446617,200.902601 L183.931241,200.902601 C197.736438,201.38804 209.433276,190.409874 197.741111,174.034788 L197.741111,174.034788 Z M173.743044,194.142645 L132.510094,194.142645 L91.2767538,194.142645 C80.2205238,194.531817 70.8462302,185.735329 80.2166295,172.625111 C85.923297,164.640549 93.7982955,154.250432 100.926762,144.963654 L164.091478,144.963654 C171.265897,154.309386 179.176333,164.743532 184.803558,172.625111 C194.167337,185.739807 184.799663,194.531817 173.743044,194.142645 L173.743044,194.142645 Z" id="vase" fill="#F7F1E6"></path>
            <path d="M164.091089,144.963654 L100.926762,144.963654 C93.7982955,154.250432 85.923297,164.640176 80.2166295,172.625111 C70.8462302,185.735329 80.2205238,194.531817 91.2767538,194.142645 L132.510094,194.142645 L173.743044,194.142645 C184.799663,194.531817 194.167337,185.739434 184.803168,172.625111 C179.175944,164.743532 171.265508,154.309386 164.091089,144.963654 L164.091089,144.963654 Z" id="liquid" fill="#D43D21"></path>
            <path d="M148.282288,65.4684036 C148.87266,65.4684036 149.444339,65.3971362 149.995379,65.274004 C153.338222,64.529614 155.832115,61.6639925 155.832115,58.2345749 C155.832115,54.2387493 152.451886,51 148.282288,51 L116.60783,51 C112.437843,51 109.058004,54.2387493 109.058004,58.2345749 C109.058004,61.665485 111.553454,64.5318528 114.898634,65.2751234 C115.448895,65.3971362 116.019016,65.4684036 116.60822,65.4684036 L148.282288,65.4684036 L148.282288,65.4684036 Z" id="rim" fill="#E0DCD3"></path>
            <ellipse id="big-bubble" fill="#BA361D" cx="126.976515" cy="161.09434" rx="11.0421687" ry="11.0377358"></ellipse>
            <ellipse id="bubble-1" fill="#BA361D" cx="109.70543" cy="173.830189" rx="5.09638554" ry="5.09433962"></ellipse>
            <ellipse id="bubble-2" fill="#BA361D" cx="121.596996" cy="181.754717" rx="5.09638554" ry="5.09433962"></ellipse>
            <ellipse id="bubble-3" fill="#BA361D" cx="159.536756" cy="171" rx="5.09638554" ry="5.09433962"></ellipse>
            <ellipse id="bubble-4" fill="#BA361D" cx="149.343984" cy="157.981132" rx="5.09638554" ry="5.09433962"></ellipse>
            <ellipse id="bubble-5" fill="#BA361D" cx="149.343984" cy="181.188679" rx="5.09638554" ry="5.09433962"></ellipse>
            <path d="M69.9115841,198.532456 C73.0586981,200.203902 76.92054,201.04484 80.9623828,200.902601 L132.446617,200.902601 L183.931241,200.902601 C197.736438,201.38804 209.433276,190.409874 197.741111,174.034788 C182.017205,152.012412 152.011444,114.018674 149.995379,111.046337 L149.995379,64.9008762 C149.44395,65.0236352 148.87227,65.0952758 148.282288,65.0952758 L144.636665,65.0952758 L144.636665,109.145461 C145.761979,110.80454 171.775406,146.065906 166.608709,170.30969 C162.518971,189.500044 127.087903,199.001725 127.087903,199.001725 L75.6036688,199.001725 C73.6436526,199.070701 71.725965,198.908475 69.9115841,198.532456 Z" id="shadow" fill-opacity="0.0217391304" fill="#000000"></path>
        </g>
    </g>
</svg>