<?xml version="1.0" encoding="UTF-8"?>
<svg width="231px" height="265px" viewBox="0 0 231 265" version="1.1" xmlns="http://www.w3.org/2000/svg" xmlns:xlink="http://www.w3.org/1999/xlink">
    <!-- Generator: Sketch 46 (44423) - http://www.bohemiancoding.com/sketch -->
    <title>sustainability</title>
    <desc>Created with Sketch.</desc>
    <defs></defs>
    <g id="Page-1" stroke="none" stroke-width="1" fill="none" fill-rule="evenodd">
        <g id="sustainability" transform="translate(-17.000000, 0.000000)">
            <polygon id="Mask" fill="#FFFFFF" points="132.445298 0 247.14629 66.2226489 247.14629 198.667947 132.445298 264.890595 17.7443053 198.667947 17.7443053 66.2226489"></polygon>
            <g id="top-leaf" transform="translate(141.280702, 54.000000)">
                <path d="M3.61493104,38.4414392 C4.61055772,38.497184 5.69802412,38.5060283 6.02870009,38.9016635 C6.68866975,39.69128 7.31225807,43.800088 8.127106,44.4863261 C10.9925165,46.8994805 12.6976832,47.5203081 17.3027598,48.0312112 C26.7019043,49.0739845 37.9689893,41.6782866 46.482975,29.445138 C52.1589655,20.7985373 53.7309993,14.4115226 57.3636332,0 C52.9900538,5.54918532 51.2033477,5.24969624 45.1153762,7.42039245 C39.0274046,9.59108866 29.0891342,10.0015577 16.3035602,14.2606594 C4.09340931,17.935981 -0.82757438,26.533213 0.112320816,33.1843656 C1.33225772,34.8314065 2.51650213,36.592705 3.61493104,38.4414392 Z" id="Combined-Shape" fill="#539A05"></path>
                <path d="M42.7122801,38.5844635 C39.3743187,32.6153383 34.7098885,27.8298395 28.7189897,24.2279672 C22.7280909,20.6260949 15.4680989,18.0078364 6.93901373,16.3731918 C15.6155802,19.8750904 22.75788,23.737591 28.3659132,27.9606936 C33.7841139,32.0408436 37.5834802,35.3241282 39.7640124,37.8105472 L39.7639992,37.8105587 C39.9112659,37.9784842 40.1105107,38.092275 40.329971,38.1337913 L42.7122801,38.5844635 Z" id="Path-7" fill-opacity="0.695623868" fill="#447D06" transform="translate(24.825647, 27.478828) scale(-1, 1) translate(-24.825647, -27.478828) "></path>
            </g>
            <g id="stem" transform="translate(116.543860, 73.780220)">
                <path d="M20.8289889,128.581287 C8.24505141,115.247305 1.95308266,100.841518 1.95308266,85.3639244 C1.95308266,62.1475345 28.8493774,52.8530094 24.1272345,30.3425516 C19.4050917,7.83209373 5.95125544,2.51533167 8.40445152,0.673545258 C10.8576476,-1.16824115 29.7834962,15.8082262 32.6180337,34.1774031 C35.4525712,52.5465801 12.4174626,61.4910154 13.4524393,85.3639244 C14.1424238,101.279197 22.4094774,115.691811 38.2536001,128.601765 L20.8289889,128.581287 Z" id="Path-5" fill="#447D06"></path>
                <path d="M19.1798661,128.581287 C6.5959286,115.247305 0.303959849,100.841518 0.303959849,85.3639244 C0.303959849,62.1475345 27.2002546,52.8530094 22.4781117,30.3425516 C17.7559688,7.83209373 6.07391208,1.64414928 8.30734571,0.382364053 C10.5407793,-0.879421171 28.1343734,15.8082262 30.9689109,34.1774031 C33.8034484,52.5465801 10.7683398,61.4910154 11.8033165,85.3639244 C12.4933009,101.279197 20.7603546,115.691811 36.6044773,128.601765 L19.1798661,128.581287 Z" id="Path-5" fill="#539A05"></path>
            </g>
            <g id="ground" transform="translate(81.912281, 192.461538)">
                <polygon id="Path-6" fill="#9E6103" points="0.70272605 7.41379298 25.074828 0.615456677 35.2771032 4.01462483 51.7141022 7.41379298 65.8839289 4.01462483 89.1224447 0.615456677 102.158685 10.8129611 0.70272605 10.8129611"></polygon>
                <polygon id="Path-6" fill="#87560A" transform="translate(52.934820, 7.054832) scale(-1, 1) translate(-52.934820, -7.054832) " points="15.5448313 8.30754186 33.5087364 3.2967033 41.0285106 5.80212258 53.1437024 8.30754186 63.5878333 5.80212258 80.7162079 3.2967033 90.3248083 10.8129611 15.5448313 10.8129611"></polygon>
            </g>
            <g id="big-leaf" transform="translate(58.000000, 97.681319)">
                <path d="M70.7951711,32.9758703 C71.1467288,30.0389474 70.7295468,26.8636581 69.2337058,23.4998332 C62.0804078,7.41360335 44.1309888,1.21717211 30.1460416,0.264167853 C20.8227436,-0.371168317 10.774063,0.139505647 0,1.79618975 L4.08759887,4.86023353 C7.03894847,6.32802108 9.50853945,9.30695254 11.4963718,13.7970279 C14.4781204,20.5321409 13.5401712,23.4998332 16.8613453,33.7133125 C19.3922367,41.4964656 42.2953143,55.3877921 50.584036,53.3742601 C52.3198869,52.9525797 54.4603518,52.1027946 56.694126,50.8749586 C58.7185482,49.7621968 59.6234821,45.112639 61.5694579,43.4161178 C62.1969934,42.8690261 62.9702701,42.7301236 63.762424,42.6794329 C65.8986982,39.292879 68.3896262,36.1263845 70.7951711,32.9758703 Z" id="Combined-Shape" fill="#539A05"></path>
                <path d="M61.0175439,38.9592032 C58.2589858,32.947392 54.1516374,27.5535411 48.6954988,22.7776506 C43.2393602,18.0017601 36.6274103,14.530089 28.8596491,12.3626374 C36.7617271,17.0059682 43.2664902,22.1274379 48.3739386,27.7270466 C51.9007463,31.593702 54.9131527,35.6153948 57.4111578,39.7921248 L57.4111224,39.792146 C57.9623659,40.7138395 59.1564173,41.0141486 60.0781108,40.4629051 C60.6148399,40.1419 60.9644227,39.5823408 61.0175439,38.9592032 L61.0175439,38.9592032 Z" id="Path-7" fill-opacity="0.695623868" fill="#447D06"></path>
            </g>
            <g id="baby-leaf" transform="translate(136.333333, 161.142857)">
                <path d="M9.20244976,23.6148861 C14.2013723,24.1275731 20.1937564,20.4914257 24.7219084,14.4769112 C27.7406763,10.2257486 28.5767604,7.08552748 30.5087719,0 C28.1826896,2.72829638 27.2324323,2.58105045 23.9945528,3.64828866 C20.7566732,4.71552687 15.4710173,4.91733688 8.67102678,7.01135448 C1.87103626,8.90351015 -0.67821576,13.4490151 0.151099897,16.7709251 C0.35253469,17.590218 0.487596122,17.9202034 0.96262836,18.6614467 C1.21263476,19.0515584 2.88431119,18.7700881 3.20635611,19.1262792 C3.5573601,19.5144998 3.88901472,21.5346244 4.32239051,21.8720182 C5.84635526,23.0584627 6.75324591,23.363697 9.20244976,23.6148861 Z" id="Oval-3" fill="#539A05"></path>
                <path d="M18.6575155,18.9145685 C17.301299,16.4893078 15.406137,14.5449556 12.9720298,13.0815118 C10.5379225,11.618068 7.58818157,10.5542674 4.12280702,9.89010989 C7.64810334,11.3129343 10.5500258,12.8822716 12.8285745,14.5981217 C14.9292166,16.1800002 16.4309665,17.4670761 17.3338243,18.4593494 L17.3338301,18.4593442 C17.4799238,18.6199064 17.6742978,18.7285687 17.8875945,18.768919 L18.6575155,18.9145685 Z" id="Path-7" fill-opacity="0.695623868" fill="#447D06" transform="translate(11.390161, 14.402339) scale(-1, 1) translate(-11.390161, -14.402339) "></path>
            </g>
        </g>
    </g>
</svg>