<?xml version="1.0" encoding="UTF-8"?>
<svg width="230px" height="266px" viewBox="0 0 230 266" version="1.1" xmlns="http://www.w3.org/2000/svg" xmlns:xlink="http://www.w3.org/1999/xlink">
    <!-- Generator: Sketch 46 (44423) - http://www.bohemiancoding.com/sketch -->
    <title>systems</title>
    <desc>Created with Sketch.</desc>
    <defs>
        <polygon id="path-1" points="132.980143 0.898369985 247.681136 67.1210189 247.681136 199.566317 132.980143 265.788965 18.2791507 199.566317 18.2791507 67.1210189"></polygon>
    </defs>
    <g id="Page-1" stroke="none" stroke-width="1" fill="none" fill-rule="evenodd">
        <g id="systems" transform="translate(-18.000000, 0.000000)">
            <mask id="mask-2" fill="white">
                <use xlink:href="#path-1"></use>
            </mask>
            <use id="Mask" fill="#FFFFFF" xlink:href="#path-1"></use>
            <g id="iur" mask="url(#mask-2)">
                <g transform="translate(128.177538, 128.909293) rotate(-344.000000) translate(-128.177538, -128.909293) translate(37.313369, 37.492301)" id="Layer_1">
                    <g>
                        <g id="Group">
                            <path d="M138.582901,99.9271922 L129.857534,99.9271922 C129.225697,96.8298402 128.383248,93.8527737 127.300099,91.026064 L134.611355,86.816071 C136.386515,85.8237155 136.958177,83.5683621 135.935203,81.8242221 L128.623947,69.1942429 C127.631061,67.4200316 125.344413,66.8486754 123.629427,67.8711023 L116.047384,72.2314522 C114.001435,69.8858846 111.774962,67.7207454 109.42814,65.7661057 L113.640386,58.4587607 C114.633272,56.6845493 114.091698,54.4893386 112.316537,53.4669117 L99.6797983,46.1595667 C97.9046374,45.1672112 95.7082518,45.708496 94.6852778,47.5428501 L90.3225942,55.1208376 C87.4341967,54.1284821 84.395362,53.3466262 81.2963522,52.8654842 L81.2963522,44.4454981 C81.2963522,42.4307157 79.6415412,40.7767898 77.6256805,40.7767898 L62.9730811,40.7767898 C60.927133,40.7767898 59.3024094,42.4307157 59.3024094,44.4454981 L59.3024094,53.166198 C56.2635746,53.7976969 53.2849148,54.6396955 50.3965174,55.7222652 L46.1842712,48.4149201 C45.1612971,46.6407087 42.9348241,46.0693525 41.1897506,47.0917794 L28.5530119,54.2487676 C26.777851,55.2411231 26.206189,57.4964765 27.2291631,59.2406165 L31.5918467,66.818604 C29.2450238,68.8634578 27.0787258,71.0887398 25.12304,73.4343074 L17.8117841,69.2243143 C16.0366231,68.2319588 13.8402376,68.8333864 12.8172635,70.6075977 L5.50600757,83.2375769 C4.51312096,85.0117883 5.05469548,87.2069989 6.89003133,88.2294258 L14.4419871,92.5897757 C13.4491005,95.4766281 12.6668262,98.4536946 12.1854266,101.611189 L3.76093413,101.611189 C1.71498597,101.611189 0.0902624192,103.265115 0.0902624192,105.279898 L0.0902624192,119.864516 C0.0902624192,121.90937 1.74507344,123.533225 3.76093413,123.533225 L12.4863013,123.533225 C13.1181383,126.570434 13.9605875,129.607643 15.0437365,132.434353 L7.73248058,136.644346 C5.95731967,137.636701 5.38565768,139.892055 6.40863176,141.636195 L13.7198877,154.266174 C14.7127743,156.040385 16.9693348,156.611742 18.7144083,155.589315 L26.2964515,151.228965 C28.3423996,153.574532 30.5688726,155.739672 32.9156955,157.694311 L28.7034493,165.001656 C27.7105627,166.775868 28.2521372,168.971078 30.0272981,169.993505 L42.6640368,177.30085 C44.4391977,178.293206 46.6355833,177.751921 47.6585573,175.97771 L52.0212409,168.399722 C54.9096384,169.392078 57.9484731,170.173933 61.0474829,170.655075 L61.0474829,179.075062 C61.0474829,181.089844 62.7022939,182.74377 64.7181546,182.74377 L79.370754,182.74377 C81.3866147,182.74377 83.0414257,181.089844 83.0414257,179.075062 L83.0414257,170.354362 C86.1404354,169.722863 89.1190952,168.880864 91.9473177,167.798294 L96.1595639,175.10564 C97.1524505,176.879851 99.409011,177.451207 101.154084,176.42878 L113.790823,169.121435 C115.565984,168.12908 116.137646,165.873726 115.114672,164.129586 L110.751988,156.551599 C113.098811,154.506745 115.265109,152.281463 117.220795,149.935895 L124.532051,154.206031 C126.307212,155.198387 128.503597,154.596959 129.526572,152.882891 L136.837828,140.252911 C137.830714,138.4787 137.228965,136.283489 135.513979,135.261062 L127.931935,130.900713 C128.924822,128.01386 129.707096,125.036794 130.188496,121.939442 L138.612988,121.939442 C140.628849,121.939442 142.28366,120.285516 142.28366,118.270733 L142.28366,103.625972 C142.253573,101.611189 140.568674,99.9271922 138.582901,99.9271922 L138.582901,99.9271922 Z M71.0966989,149.665253 C50.1558176,149.665253 33.1563953,132.674924 33.1563953,111.745244 C33.1563953,90.8155644 50.1558176,73.8252353 71.0966989,73.8252353 C92.0375801,73.8252353 109.006915,90.8155644 109.006915,111.745244 C109.06709,132.674924 92.0676676,149.665253 71.0966989,149.665253 L71.0966989,149.665253 Z" id="Shape" fill="#0E303F"></path>
                            <path d="M179.411602,29.9811648 L174.116207,29.9811648 C172.88262,29.9811648 171.558771,29.0489521 171.167634,27.8160255 L170.174748,25.4103152 C169.633173,24.3277456 169.873873,22.7038911 170.776497,21.8318211 L174.537431,18.0728987 C175.409968,17.2008288 175.409968,15.7574026 174.537431,14.8853326 L168.760636,9.11162782 C167.8881,8.23955783 166.443901,8.23955783 165.571364,9.11162782 L161.81043,12.8705502 C160.937893,13.7426202 159.31317,13.9831912 158.230021,13.4719778 L155.823023,12.4796223 C154.649612,12.0886943 153.7169,10.7655537 153.7169,9.53262712 L153.7169,4.27013581 C153.7169,3.03720927 152.724013,2.01478239 151.460339,2.01478239 L143.216372,2.01478239 C141.982785,2.01478239 140.959811,3.00713789 140.959811,4.27013581 L140.959811,9.5626985 C140.959811,10.795625 140.0271,12.1187657 138.793513,12.5096936 L136.386515,13.5020491 C135.303366,14.043334 133.678643,13.8027629 132.806106,12.9006216 L129.075259,9.11162782 C128.202723,8.23955783 126.758524,8.23955783 125.885987,9.11162782 L120.109193,14.8853326 C119.236656,15.7574026 119.236656,17.2008288 120.109193,18.0728987 L123.870127,21.8318211 C124.742663,22.7038911 124.983363,24.3277456 124.471876,25.4103152 L123.478989,27.8160255 C123.087852,28.9888093 121.764004,29.9811648 120.530417,29.9811648 L115.235022,29.9811648 C114.001435,29.9811648 112.978461,30.9735203 112.978461,32.2365182 L112.978461,40.476076 C112.978461,41.7090026 113.971348,42.7314295 115.235022,42.7314295 L120.530417,42.7314295 C121.764004,42.7314295 123.087852,43.6636422 123.478989,44.8965688 L124.471876,47.3022791 C125.013451,48.3848487 124.772751,50.0087032 123.870127,50.8807732 L120.109193,54.6396955 C119.236656,55.5117655 119.236656,56.9551917 120.109193,57.8272617 L125.885987,63.6009665 C126.758524,64.4730364 128.202723,64.4730364 129.075259,63.6009665 L132.836194,59.8420441 C133.70873,58.9699741 135.333454,58.7294031 136.416603,59.2406165 L138.823601,60.232972 C139.997012,60.6238999 140.989899,61.9470406 140.989899,63.1799671 L140.989899,68.4725298 C140.989899,69.7054564 141.982785,70.7278833 143.246459,70.7278833 L151.490427,70.7278833 C152.724013,70.7278833 153.746987,69.7355278 153.746987,68.4725298 L153.746987,63.1498958 C153.746987,61.9169692 154.679699,60.5938286 155.853111,60.2029006 L158.260108,59.2105451 C159.343257,58.6692603 160.967981,58.9098313 161.840518,59.8119727 L165.601452,63.5708951 C166.473989,64.4429651 167.918187,64.4429651 168.790724,63.5708951 L174.567519,57.7971903 C175.440055,56.9251203 175.440055,55.4816941 174.567519,54.6096241 L170.806585,50.8507018 C169.934048,49.9786318 169.693348,48.3547773 170.204835,47.2722077 L171.197722,44.8664974 C171.588859,43.6937136 172.912708,42.7013581 174.146294,42.7013581 L179.441689,42.7013581 C180.675276,42.7013581 181.69825,41.7090026 181.69825,40.4460047 L181.69825,32.1763755 C181.668162,30.9735203 180.585013,29.9811648 179.411602,29.9811648 L179.411602,29.9811648 Z M147.308268,47.1218508 C141.320861,47.1218508 136.476778,42.2803588 136.476778,36.2961544 C136.476778,30.31195 141.320861,25.470458 147.308268,25.470458 C153.295675,25.470458 158.139758,30.31195 158.139758,36.2961544 C158.139758,42.2803588 153.265588,47.1218508 147.308268,47.1218508 L147.308268,47.1218508 Z" id="Shape" fill="#36D3DE"></path>
                            <path d="M112.196187,16.0881877 L109.157352,16.0881877 C108.435253,16.0881877 107.683066,15.5469029 107.502541,14.8552612 L106.900792,13.4719778 C106.56983,12.8404788 106.750354,11.9082661 107.231754,11.427124 L109.398052,9.26198471 C109.879452,8.78084265 109.879452,7.93884404 109.398052,7.45770198 L106.058343,4.11977891 C105.576943,3.63863685 104.734494,3.63863685 104.253094,4.11977891 L102.086796,6.2849182 C101.605397,6.76606026 100.672685,6.91641716 100.040848,6.61570337 L98.6568242,6.01427579 C97.9648123,5.77370476 97.4834128,5.02192028 97.4834128,4.36034995 L97.4834128,1.32314067 C97.4834128,0.601427579 96.8816633,0.0601427579 96.2197389,0.0601427579 L91.4659181,0.0601427579 C90.7438188,0.0601427579 90.2022443,0.661570337 90.2022443,1.32314067 L90.2022443,4.36034995 C90.2022443,5.08206304 89.6606698,5.83384751 88.9686579,6.01427579 L87.5846341,6.61570337 C86.9527972,6.94648853 86.0200855,6.76606026 85.5386859,6.2849182 L83.3723879,4.11977891 C82.8909883,3.63863685 82.0485391,3.63863685 81.5671395,4.11977891 L78.22743,7.45770198 C77.7460304,7.93884404 77.7460304,8.78084265 78.22743,9.26198471 L80.393728,11.427124 C80.8751276,11.9082661 81.025565,12.8404788 80.7246902,13.4719778 L80.1831157,14.8552612 C79.942416,15.5469029 79.1902291,16.0881877 78.5283047,16.0881877 L75.4894699,16.0881877 C74.7673706,16.0881877 74.2257961,16.6896153 74.2257961,17.3511856 L74.2257961,22.0423208 C74.2257961,22.7640339 74.8275455,23.3053187 75.4894699,23.3053187 L78.5283047,23.3053187 C79.2504041,23.3053187 80.0025909,23.8466035 80.1831157,24.5382452 L80.7246902,25.9215286 C81.0556525,26.5530276 80.8751276,27.4852403 80.393728,27.9663824 L78.22743,30.1315217 C77.7460304,30.6126638 77.7460304,31.4546624 78.22743,31.9358044 L81.5671395,35.2737275 C82.0485391,35.7548696 82.8909883,35.7548696 83.3723879,35.2737275 L85.5386859,33.1085882 C86.0200855,32.6274461 86.9527972,32.4770893 87.5846341,32.777803 L88.9686579,33.3190879 C89.6606698,33.5596589 90.2022443,34.3114434 90.2022443,34.9730137 L90.2022443,38.010223 C90.2022443,38.7319361 90.8039937,39.2732209 91.4659181,39.2732209 L96.1595639,39.2732209 C96.8816633,39.2732209 97.4232378,38.6717933 97.4232378,38.010223 L97.4232378,34.9730137 C97.4232378,34.2513006 97.9648123,33.4995161 98.5966493,33.3190879 L99.980673,32.777803 C100.61251,32.4470179 101.545222,32.6274461 102.026621,33.1085882 L104.192919,35.2737275 C104.674319,35.7548696 105.516768,35.7548696 105.998168,35.2737275 L109.337877,31.9358044 C109.819277,31.4546624 109.819277,30.6126638 109.337877,30.1315217 L107.171579,27.9663824 C106.69018,27.4852403 106.539742,26.5530276 106.840617,25.9215286 L107.442366,24.5382452 C107.683066,23.8466035 108.435253,23.3053187 109.097177,23.3053187 L112.136012,23.3053187 C112.858111,23.3053187 113.399686,22.7038911 113.399686,22.0423208 L113.399686,17.3511856 C113.489948,16.6595439 112.888199,16.0881877 112.196187,16.0881877 L112.196187,16.0881877 Z M93.872916,25.9215286 C90.4429441,25.9215286 87.704984,23.1248904 87.704984,19.756896 C87.704984,16.3287588 90.503119,13.5922633 93.872916,13.5922633 C97.3028879,13.5922633 100.040848,16.3889015 100.040848,19.756896 C100.040848,23.1248904 97.2728004,25.9215286 93.872916,25.9215286 L93.872916,25.9215286 Z" id="Shape" fill="#FD6120"></path>
                        </g>
                    </g>
                </g>
            </g>
        </g>
    </g>
</svg>