<?xml version="1.0" encoding="UTF-8"?>
<svg width="280px" height="25px" viewBox="0 0 280 25" version="1.1" xmlns="http://www.w3.org/2000/svg" xmlns:xlink="http://www.w3.org/1999/xlink">
    <!-- Generator: Sketch 46 (44423) - http://www.bohemiancoding.com/sketch -->
    <defs>
        <style type="text/css">
            #Path {
                fill: #D9D5C2;
            }
        </style>
    </defs>
    <g id="Page-1" stroke="none" stroke-width="1" fill="none" fill-rule="evenodd">
        <path d="M10.9375,8.925 L10.9375,0.95 C10.9375,0.65 11.0375,0.55 11.3125,0.55 L12.4375,0.55 C12.7125,0.55 12.8125,0.65 12.8125,0.95 L12.8125,18.6 C12.8125,18.9 12.7125,19 12.4375,19 L11.8625,19 C11.6375,19 11.5375,18.9 11.4375,18.6 L11.2375,16.275 C10.6125,17.225 9.2625,19.275 6.3125,19.275 C2.8125,19.275 0.5375,16.25 0.5375,12.625 C0.5375,8.975 2.8125,6 6.3125,6 C9.2625,6 10.6375,8.225 10.9375,8.925 Z M6.6875,17.6 C9.2875,17.6 10.9625,15.125 10.9625,12.65 C10.9625,10.15 9.2875,7.7 6.6875,7.7 C4.0625,7.7 2.4125,10.05 2.4125,12.625 C2.4125,15.4 4.0625,17.6 6.6875,17.6 Z M18.2875,8.05 C17.9625,8.125 17.8875,8 17.8125,7.7 L17.6125,6.95 C17.5375,6.675 17.6125,6.55 17.9125,6.45 C18.2125,6.375 20.2875,6 22.2125,6 C26.4125,6 27.5625,7.875 27.5625,12 L27.5625,18.6 C27.5625,18.9 27.4625,19 27.1875,19 L26.4625,19 C26.2625,19 26.1625,18.9 26.0875,18.6 L25.9875,16.9 C25.3125,17.825 23.6625,19.275 20.9625,19.275 C18.5625,19.275 16.5125,17.8 16.5125,15.125 C16.5125,12.4 18.5625,11.075 21.6375,11.075 C22.9625,11.075 24.4125,11.425 25.6875,11.95 C25.6875,8.8 24.7625,7.65 22.1375,7.65 C20.5375,7.65 19.2375,7.875 18.2875,8.05 Z M22.0125,12.475 C19.6375,12.475 18.3875,13.425 18.3875,15.125 C18.3875,16.675 19.5125,17.8 21.5375,17.8 C23.2625,17.8 24.8875,16.625 25.6875,15.45 L25.6875,13.375 C24.4125,12.85 23.4375,12.475 22.0125,12.475 Z M35.4125,19.075 C35.5625,19.325 35.5875,19.425 35.7125,19.425 L35.7875,19.425 C35.9375,19.425 35.9625,19.3 36.1125,19.075 L41.9625,6.675 C42.0375,6.475 41.9875,6.275 41.7125,6.275 L40.4625,6.275 C40.2375,6.275 40.1125,6.35 39.9625,6.675 L35.7625,15.825 L35.7625,15.8 L31.5375,6.675 C31.3875,6.35 31.2875,6.275 31.0125,6.275 L29.7625,6.275 C29.5375,6.275 29.4375,6.45 29.5375,6.675 L35.4125,19.075 Z M45.1375,18.6 C45.1375,18.9 45.2125,19 45.5125,19 L46.6125,19 C46.9125,19 47.0125,18.9 47.0125,18.6 L47.0125,6.675 C47.0125,6.375 46.9375,6.275 46.6125,6.275 L45.5125,6.275 C45.2125,6.275 45.1375,6.375 45.1375,6.675 L45.1375,18.6 Z M44.7375,2.1 C44.7375,2.825 45.3125,3.4 46.0375,3.4 C46.7625,3.4 47.3625,2.825 47.3625,2.1 C47.3625,1.375 46.7625,0.8 46.0375,0.8 C45.3125,0.8 44.7375,1.375 44.7375,2.1 Z M61.5375,8.925 L61.5375,0.95 C61.5375,0.65 61.6375,0.55 61.9125,0.55 L63.0375,0.55 C63.3125,0.55 63.4125,0.65 63.4125,0.95 L63.4125,18.6 C63.4125,18.9 63.3125,19 63.0375,19 L62.4625,19 C62.2375,19 62.1375,18.9 62.0375,18.6 L61.8375,16.275 C61.2125,17.225 59.8625,19.275 56.9125,19.275 C53.4125,19.275 51.1375,16.25 51.1375,12.625 C51.1375,8.975 53.4125,6 56.9125,6 C59.8625,6 61.2375,8.225 61.5375,8.925 Z M57.2875,17.6 C59.8875,17.6 61.5625,15.125 61.5625,12.65 C61.5625,10.15 59.8875,7.7 57.2875,7.7 C54.6625,7.7 53.0125,10.05 53.0125,12.625 C53.0125,15.4 54.6625,17.6 57.2875,17.6 Z M67.6375,17.825 C67.6375,18.65 68.2625,19.275 69.0875,19.275 C69.8875,19.275 70.5375,18.65 70.5375,17.825 C70.5375,17 69.8875,16.35 69.0875,16.35 C68.2625,16.35 67.6375,17 67.6375,17.825 Z M76.6875,0.95 C76.6875,0.65 76.5875,0.55 76.3125,0.55 L75.1875,0.55 C74.9125,0.55 74.8125,0.65 74.8125,0.95 L74.8125,18.6 C74.8125,18.9 74.9125,19 75.1875,19 L76.3125,19 C76.5875,19 76.6875,18.9 76.6875,18.6 L76.6875,12.3 C76.6875,9.8 78.0875,7.7 80.2625,7.7 C82.2875,7.7 83.7875,9.15 83.7875,12.125 L83.7875,18.6 C83.7875,18.9 83.8875,19 84.1625,19 L85.2875,19 C85.5625,19 85.6625,18.9 85.6625,18.6 L85.6625,11.625 C85.6625,7.625 83.3875,6 80.7125,6 C78.4125,6 77.1375,7.8 76.6875,8.65 L76.6875,0.95 Z M90.5875,8.05 C90.2625,8.125 90.1875,8 90.1125,7.7 L89.9125,6.95 C89.8375,6.675 89.9125,6.55 90.2125,6.45 C90.5125,6.375 92.5875,6 94.5125,6 C98.7125,6 99.8625,7.875 99.8625,12 L99.8625,18.6 C99.8625,18.9 99.7625,19 99.4875,19 L98.7625,19 C98.5625,19 98.4625,18.9 98.3875,18.6 L98.2875,16.9 C97.6125,17.825 95.9625,19.275 93.2625,19.275 C90.8625,19.275 88.8125,17.8 88.8125,15.125 C88.8125,12.4 90.8625,11.075 93.9375,11.075 C95.2625,11.075 96.7125,11.425 97.9875,11.95 C97.9875,8.8 97.0625,7.65 94.4375,7.65 C92.8375,7.65 91.5375,7.875 90.5875,8.05 Z M94.3125,12.475 C91.9375,12.475 90.6875,13.425 90.6875,15.125 C90.6875,16.675 91.8125,17.8 93.8375,17.8 C95.5625,17.8 97.1875,16.625 97.9875,15.45 L97.9875,13.375 C96.7125,12.85 95.7375,12.475 94.3125,12.475 Z M113.2375,8.925 L113.2375,0.95 C113.2375,0.65 113.3375,0.55 113.6125,0.55 L114.7375,0.55 C115.0125,0.55 115.1125,0.65 115.1125,0.95 L115.1125,18.6 C115.1125,18.9 115.0125,19 114.7375,19 L114.1625,19 C113.9375,19 113.8375,18.9 113.7375,18.6 L113.5375,16.275 C112.9125,17.225 111.5625,19.275 108.6125,19.275 C105.1125,19.275 102.8375,16.25 102.8375,12.625 C102.8375,8.975 105.1125,6 108.6125,6 C111.5625,6 112.9375,8.225 113.2375,8.925 Z M108.9875,17.6 C111.5875,17.6 113.2625,15.125 113.2625,12.65 C113.2625,10.15 111.5875,7.7 108.9875,7.7 C106.3625,7.7 104.7125,10.05 104.7125,12.625 C104.7125,15.4 106.3625,17.6 108.9875,17.6 Z M119.8625,6.625 C119.7625,6.35 119.6125,6.275 119.3625,6.275 L118.0125,6.275 C117.7375,6.275 117.6875,6.375 117.8125,6.675 L121.6875,18.9 C121.7875,19.15 121.9125,19.275 122.0375,19.275 L122.1875,19.275 C122.3375,19.275 122.4375,19.15 122.5625,18.9 L126.6375,8.875 L130.6875,18.9 C130.8125,19.15 130.9125,19.275 131.0625,19.275 L131.2375,19.275 C131.3375,19.275 131.4625,19.15 131.5625,18.9 L135.4375,6.675 C135.5625,6.375 135.5375,6.275 135.2375,6.275 L133.8875,6.275 C133.6125,6.275 133.4625,6.35 133.3625,6.675 L130.7125,15.4 L127.0625,6.25 C126.9625,6.075 126.8875,5.9 126.7125,5.9 L126.5375,5.9 C126.3375,5.9 126.2875,6.075 126.1875,6.25 L122.5375,15.4 L119.8625,6.625 Z M138.7625,18.6 C138.7625,18.9 138.8375,19 139.1375,19 L140.2375,19 C140.5375,19 140.6375,18.9 140.6375,18.6 L140.6375,6.675 C140.6375,6.375 140.5625,6.275 140.2375,6.275 L139.1375,6.275 C138.8375,6.275 138.7625,6.375 138.7625,6.675 L138.7625,18.6 Z M138.3625,2.1 C138.3625,2.825 138.9375,3.4 139.6625,3.4 C140.3875,3.4 140.9875,2.825 140.9875,2.1 C140.9875,1.375 140.3875,0.8 139.6625,0.8 C138.9375,0.8 138.3625,1.375 138.3625,2.1 Z M147.4625,6.675 C147.3375,6.375 147.2375,6.275 147.0375,6.275 L146.4125,6.275 C146.1375,6.275 146.0375,6.375 146.0375,6.675 L146.0375,18.6 C146.0375,18.9 146.1375,19 146.4125,19 L147.5375,19 C147.8125,19 147.9125,18.9 147.9125,18.6 L147.9125,12.3 C147.9125,9.8 149.3125,7.7 151.4875,7.7 C153.5125,7.7 155.0125,9.15 155.0125,12.125 L155.0125,18.6 C155.0125,18.9 155.1125,19 155.3875,19 L156.5125,19 C156.7875,19 156.8875,18.9 156.8875,18.6 L156.8875,11.625 C156.8875,7.625 154.6125,6 151.9375,6 C149.4875,6 148.1875,7.925 147.6625,8.925 L147.4625,6.675 Z M182.1125,12.5 C182.1125,6.05 177.3375,2.575 171.7875,2.575 C165.9625,2.575 161.6125,7.05 161.6125,12.625 C161.6125,18.225 165.9625,22.7 171.5125,22.7 C172.6125,22.7 173.9125,22.45 174.6875,22.075 C175.0125,21.95 175.1625,21.925 175.2125,22.2 L175.4125,22.975 C175.4875,23.275 175.4875,23.4 175.1875,23.55 C174.1125,24.05 172.8875,24.3 171.5125,24.3 C164.8625,24.3 159.9375,19.075 159.9375,12.625 C159.9375,6.2 164.8625,0.975 171.7875,0.975 C178.4125,0.975 183.7875,5.1 183.7875,12.5 C183.7875,15.775 183.0375,19.975 179.7125,19.925 C177.9625,19.925 176.6875,18.95 176.2625,17.1 L176.0625,16.275 C175.4625,17.2 174.1125,19.275 171.1625,19.275 C167.6625,19.275 165.4375,16.25 165.4375,12.625 C165.4375,8.975 167.6625,6 171.1625,6 C174.1125,6 175.4625,8.275 175.8375,8.95 L176.0625,6.6 C176.1375,6.4 176.2375,6.275 176.4375,6.275 L177.2375,6.275 C177.5125,6.275 177.6125,6.375 177.6125,6.675 L177.6125,15.875 C177.6125,17.625 178.4375,18.375 179.6125,18.375 C181.7125,18.375 182.1125,15.575 182.1125,12.5 Z M171.5125,17.6 C174.1375,17.6 175.7875,15.15 175.7875,12.65 C175.7875,10.15 174.1375,7.7 171.5125,7.7 C168.9125,7.7 167.2375,10.05 167.2375,12.625 C167.2375,15.425 168.8875,17.6 171.5125,17.6 Z M197.2875,9.075 C196.8375,7.875 195.5125,6 193.0625,6 C190.6875,6 189.5375,7.95 189.0875,9 L188.8875,6.675 C188.7625,6.375 188.6625,6.275 188.4625,6.275 L187.8375,6.275 C187.5625,6.275 187.4625,6.375 187.4625,6.675 L187.4625,18.6 C187.4625,18.9 187.5625,19 187.8375,19 L188.9625,19 C189.2375,19 189.3375,18.9 189.3375,18.6 L189.3375,12.3 C189.3375,9.65 190.5875,7.7 192.6125,7.7 C194.6625,7.7 195.8875,9.5 195.8875,12.125 L195.8875,18.6 C195.8875,18.9 196.0125,19 196.2625,19 L197.3875,19 C197.6875,19 197.7625,18.9 197.7625,18.6 L197.7625,12.175 C197.7625,9.425 199.1875,7.7 201.0375,7.7 C202.8125,7.7 204.3125,9.15 204.3125,12.125 L204.3125,18.6 C204.3125,18.9 204.4375,19 204.6875,19 L205.8125,19 C206.1125,19 206.1875,18.9 206.1875,18.6 L206.1875,11.625 C206.1875,7.625 203.9375,6 201.4875,6 C199.1125,6 197.7875,7.95 197.2875,9.075 Z M220.4375,16.4 L220.9125,16.975 C221.0875,17.2 221.0875,17.35 220.9125,17.525 C219.7375,18.675 217.7125,19.275 215.8625,19.275 C212.0875,19.275 209.1875,16.3 209.1875,12.65 C209.1875,9 212.0875,6 215.7375,6 C219.6375,6 221.9125,9.15 221.9125,12.9 C221.9125,13.2 221.8625,13.3 221.5375,13.3 L211.1125,13.3 C211.2875,15.625 213.4125,17.625 215.9375,17.625 C217.1625,17.625 218.6625,17.25 219.8625,16.375 C220.1375,16.225 220.2375,16.175 220.4375,16.4 Z M211.1625,12 L219.9875,12 C219.8875,9.75 218.2625,7.575 215.7125,7.575 C213.1375,7.575 211.2375,9.75 211.1625,12 Z M224.8625,17.825 C224.8625,18.65 225.4875,19.275 226.3125,19.275 C227.1125,19.275 227.7625,18.65 227.7625,17.825 C227.7625,17 227.1125,16.35 226.3125,16.35 C225.4875,16.35 224.8625,17 224.8625,17.825 Z M237.4125,17.575 C234.7875,17.575 232.6875,15.425 232.6875,12.65 C232.6875,9.9 234.7875,7.7 237.4125,7.7 C238.7875,7.7 240.0375,8.25 240.8875,9.1 C241.0875,9.3 241.2375,9.25 241.4125,9.025 L242.0125,8.4 C242.2125,8.175 242.2125,8.05 242.0125,7.875 C240.7375,6.6 239.1125,6 237.3875,6 C233.7375,6 230.8375,9 230.8375,12.65 C230.8375,16.3 233.7375,19.275 237.3875,19.275 C239.1125,19.275 240.7375,18.675 242.0125,17.4 C242.2125,17.225 242.2125,17.1 242.0125,16.875 L241.4125,16.25 C241.2375,16.025 241.0875,15.975 240.8875,16.175 C240.0375,17.025 238.7875,17.575 237.4125,17.575 Z M244.3625,12.65 C244.3625,9 247.2875,6 250.9375,6 C254.5875,6 257.5125,9 257.5125,12.65 C257.5125,16.3 254.5875,19.275 250.9375,19.275 C247.2875,19.275 244.3625,16.3 244.3625,12.65 Z M250.9375,17.6 C253.5625,17.6 255.6625,15.4 255.6625,12.65 C255.6625,9.9 253.5625,7.7 250.9375,7.7 C248.3375,7.7 246.2375,9.9 246.2375,12.65 C246.2375,15.4 248.3375,17.6 250.9375,17.6 Z M270.9625,9.075 C270.5125,7.875 269.1875,6 266.7375,6 C264.3625,6 263.2125,7.95 262.7625,9 L262.5625,6.675 C262.4375,6.375 262.3375,6.275 262.1375,6.275 L261.5125,6.275 C261.2375,6.275 261.1375,6.375 261.1375,6.675 L261.1375,18.6 C261.1375,18.9 261.2375,19 261.5125,19 L262.6375,19 C262.9125,19 263.0125,18.9 263.0125,18.6 L263.0125,12.3 C263.0125,9.65 264.2625,7.7 266.2875,7.7 C268.3375,7.7 269.5625,9.5 269.5625,12.125 L269.5625,18.6 C269.5625,18.9 269.6875,19 269.9375,19 L271.0625,19 C271.3625,19 271.4375,18.9 271.4375,18.6 L271.4375,12.175 C271.4375,9.425 272.8625,7.7 274.7125,7.7 C276.4875,7.7 277.9875,9.15 277.9875,12.125 L277.9875,18.6 C277.9875,18.9 278.1125,19 278.3625,19 L279.4875,19 C279.7875,19 279.8625,18.9 279.8625,18.6 L279.8625,11.625 C279.8625,7.625 277.6125,6 275.1625,6 C272.7875,6 271.4625,7.95 270.9625,9.075 Z" id="Path" fill="#000000"></path>
    </g>
</svg>