<?xml version="1.0" encoding="UTF-8"?>
<svg id="logo" width="50%" height="50%" viewBox="0 0 327 102" version="1.1" xmlns="http://www.w3.org/2000/svg" xmlns:xlink="http://www.w3.org/1999/xlink">
    <!-- Generator: Sketch 47 (45396) - http://www.bohemiancoding.com/sketch -->
    <title>Animated Logo 2017</title>
    <desc>Created with Sketch.</desc>
    <defs>
        <style type="text/css">
            #Dfirst, #D1, #A, #Amiddlefirst, #Amiddlelast, #Alast, #Vfirst, #V, #I, #D2 {
              opacity: .5;
              stroke-dasharray: 1000;
              stroke-dashoffset: 1000;
            }
            #Dfirst {
              animation: dash 2s linear 0s;
            }
            #D1 {
              animation: dash 2s linear .1s;
            }
            #A {
              animation: dash 2s linear .5s;
            }
            #Amiddlefirst {
              animation: dash 1s linear .7s;
            }
            #Amiddlelast {
              animation: dash 1s linear .75s;
            }
            #Alast {
              animation: dash 2s linear .7s;
            }
            #Vfirst {
              animation: dash 2s linear .9s;
            }
            #V {
              animation: dash 2s linear 1s;
            }
            #I {
              animation: dash 2s linear 1.3s;
            }
            #D2 {
              animation: dash 2s linear 1.4s;
            }
            #Logo {
              opacity: 0;
              animation: appear 2.3s cubic-bezier(0.95, 0.05, 0.795, 0.035) 0s 1 forwards;
            }
            #David, #Hadwin {
              opacity: 0;
              animation: appear 1.5s linear 2s 1 forwards;
            }

            #dLine, #hLine {
              stroke-dasharray: 300;
              stroke-dashoffset: 300;
              animation: strike 2s linear 2s 1 forwards;
            }

            #title {
              opacity: 0;
              animation: appear 1s ease-out 2s 1 forwards;
            }

            @keyframes dash {
              to {
                stroke-dashoffset: 0;
                opacity: 0;
              }
            }
            @keyframes strike {
              to {
                stroke-dashoffset: 0;
              }
            }
            @keyframes appear {
              from {
                opacity: 0;
              }
              to {
                opacity: 1;
              }
            }
        </style>
    </defs>
    <g id="Page-1" stroke="none" stroke-width="1" fill="none" fill-rule="evenodd">
        <g id="fullAnimatedLogo">
            <path d="M237.4,33.35 L227.55,33.35 L227.55,25.9 C227.55,25.6 227.475,25.5 227.175,25.5 L225.975,25.5 C225.675,25.5 225.575,25.6 225.575,25.9 L225.575,42.6 C225.575,42.9 225.675,43 225.975,43 L227.175,43 C227.475,43 227.55,42.9 227.55,42.6 L227.55,35.1 L237.4,35.1 L237.4,42.6 C237.4,42.9 237.475,43 237.775,43 L238.975,43 C239.275,43 239.375,42.9 239.375,42.6 L239.375,25.9 C239.375,25.6 239.275,25.5 238.975,25.5 L237.775,25.5 C237.475,25.5 237.4,25.6 237.4,25.9 L237.4,33.35 Z M250.9,28.5 L250.875,28.5 L247.2,36.65 L254.575,36.65 L250.9,28.5 Z M251.225,25.425 L259.4,42.6 C259.5,42.825 259.4,43 259.15,43 L257.7,43 C257.45,43 257.35,42.9 257.2,42.6 L255.25,38.35 L246.525,38.35 L244.575,42.6 C244.425,42.9 244.325,43 244.05,43 L242.6,43 C242.375,43 242.275,42.825 242.375,42.6 L250.525,25.425 C250.65,25.225 250.7,25.075 250.85,25.075 L250.925,25.075 C251.05,25.075 251.125,25.225 251.225,25.425 Z M262.625,25.5 L268.75,25.5 C273.675,25.5 277.45,29.275 277.45,34.25 C277.45,39.225 273.675,43 268.75,43 L262.625,43 C262.35,43 262.225,42.9 262.225,42.6 L262.225,25.9 C262.225,25.6 262.325,25.5 262.625,25.5 Z M268.725,27.2 L264.2,27.2 L264.2,41.3 L268.725,41.3 C272.8,41.3 275.45,38 275.45,34.25 C275.45,30.475 272.8,27.2 268.725,27.2 Z M281.35,25.9 C281.25,25.6 281.125,25.5 280.85,25.5 L279.325,25.5 C279.075,25.5 279.025,25.6 279.15,25.9 L285.625,43.075 C285.725,43.325 285.8,43.425 285.9,43.425 L286.075,43.425 C286.175,43.425 286.25,43.3 286.35,43.075 L290.75,28.9 L295.15,43.075 C295.25,43.3 295.325,43.425 295.425,43.425 L295.6,43.425 C295.725,43.425 295.775,43.3 295.875,43.075 L302.35,25.9 C302.475,25.6 302.425,25.5 302.175,25.5 L300.65,25.5 C300.375,25.5 300.25,25.6 300.15,25.9 L295.425,39.225 L291.225,25.575 C291.125,25.3 291.05,25.175 290.875,25.175 L290.625,25.175 C290.45,25.175 290.375,25.3 290.275,25.575 L286.075,39.225 L281.35,25.9 Z M305.3,42.6 C305.3,42.9 305.4,43 305.7,43 L306.9,43 C307.2,43 307.275,42.9 307.275,42.6 L307.275,25.9 C307.275,25.6 307.2,25.5 306.9,25.5 L305.7,25.5 C305.4,25.5 305.3,25.6 305.3,25.9 L305.3,42.6 Z M314.375,29.15 L326,43.125 C326.15,43.275 326.25,43.325 326.375,43.325 L326.5,43.325 C326.65,43.325 326.7,43.3 326.7,43.125 L326.7,25.9 C326.7,25.575 326.625,25.5 326.325,25.5 L325.125,25.5 C324.825,25.5 324.725,25.575 324.725,25.9 L324.725,39.25 L313.075,25.35 C312.975,25.225 312.9,25.175 312.75,25.175 L312.625,25.175 C312.45,25.175 312.4,25.2 312.4,25.375 L312.4,42.6 C312.4,42.9 312.5,43 312.8,43 L313.975,43 C314.275,43 314.375,42.9 314.375,42.6 L314.375,29.15 Z" id="Hadwin" fill="#000000"></path>
            <path d="M0.875,25.5 L7,25.5 C11.925,25.5 15.7,29.275 15.7,34.25 C15.7,39.225 11.925,43 7,43 L0.875,43 C0.6,43 0.475,42.9 0.475,42.6 L0.475,25.9 C0.475,25.6 0.575,25.5 0.875,25.5 Z M6.975,27.2 L2.45,27.2 L2.45,41.3 L6.975,41.3 C11.05,41.3 13.7,38 13.7,34.25 C13.7,30.475 11.05,27.2 6.975,27.2 Z M31.7,28.5 L31.675,28.5 L28,36.65 L35.375,36.65 L31.7,28.5 Z M32.025,25.425 L40.2,42.6 C40.3,42.825 40.2,43 39.95,43 L38.5,43 C38.25,43 38.15,42.9 38,42.6 L36.05,38.35 L27.325,38.35 L25.375,42.6 C25.225,42.9 25.125,43 24.85,43 L23.4,43 C23.175,43 23.075,42.825 23.175,42.6 L31.325,25.425 C31.45,25.225 31.5,25.075 31.65,25.075 L31.725,25.075 C31.85,25.075 31.925,25.225 32.025,25.425 Z M53.625,43.075 C53.775,43.325 53.8,43.425 53.95,43.425 L54.025,43.425 C54.15,43.425 54.2,43.3 54.325,43.075 L62.5,25.9 C62.575,25.7 62.525,25.5 62.25,25.5 L60.8,25.5 C60.575,25.5 60.45,25.575 60.3,25.9 L54,39.625 L53.975,39.625 L47.675,25.9 C47.525,25.575 47.425,25.5 47.15,25.5 L45.7,25.5 C45.475,25.5 45.375,25.675 45.475,25.9 L53.625,43.075 Z M71.675,42.6 C71.675,42.9 71.775,43 72.075,43 L73.275,43 C73.575,43 73.65,42.9 73.65,42.6 L73.65,25.9 C73.65,25.6 73.575,25.5 73.275,25.5 L72.075,25.5 C71.775,25.5 71.675,25.6 71.675,25.9 L71.675,42.6 Z M85.35,25.5 L91.475,25.5 C96.4,25.5 100.175,29.275 100.175,34.25 C100.175,39.225 96.4,43 91.475,43 L85.35,43 C85.075,43 84.95,42.9 84.95,42.6 L84.95,25.9 C84.95,25.6 85.05,25.5 85.35,25.5 Z M91.45,27.2 L86.925,27.2 L86.925,41.3 L91.45,41.3 C95.525,41.3 98.175,38 98.175,34.25 C98.175,30.475 95.525,27.2 91.45,27.2 Z" id="David" fill="#000000"></path>
            <path d="M44.484,88.424 C44.428,88.256 44.358,88.2 44.204,88.2 L43.35,88.2 C43.21,88.2 43.182,88.256 43.252,88.424 L46.878,98.042 C46.934,98.182 46.976,98.238 47.032,98.238 L47.13,98.238 C47.186,98.238 47.228,98.168 47.284,98.042 L49.748,90.104 L52.212,98.042 C52.268,98.168 52.31,98.238 52.366,98.238 L52.464,98.238 C52.534,98.238 52.562,98.168 52.618,98.042 L56.244,88.424 C56.314,88.256 56.286,88.2 56.146,88.2 L55.292,88.2 C55.138,88.2 55.068,88.256 55.012,88.424 L52.366,95.886 L50.014,88.242 C49.958,88.088 49.916,88.018 49.818,88.018 L49.678,88.018 C49.58,88.018 49.538,88.088 49.482,88.242 L47.13,95.886 L44.484,88.424 Z M64.2939999,96.544 L64.5599999,96.866 C64.6579999,96.992 64.6579999,97.076 64.5599999,97.174 C63.9019999,97.818 62.7679999,98.154 61.7319999,98.154 C59.6179999,98.154 57.9939999,96.488 57.9939999,94.444 C57.9939999,92.4 59.6179999,90.72 61.6619999,90.72 C63.8459999,90.72 65.1199999,92.484 65.1199999,94.584 C65.1199999,94.752 65.0919999,94.808 64.9099999,94.808 L59.0719999,94.808 C59.1699999,96.11 60.3599999,97.23 61.7739999,97.23 C62.4599999,97.23 63.2999999,97.02 63.9719999,96.53 C64.1259999,96.446 64.1819999,96.418 64.2939999,96.544 Z M59.0999999,94.08 L64.0419999,94.08 C63.9859999,92.82 63.0759999,91.602 61.6479999,91.602 C60.2059999,91.602 59.1419999,92.82 59.0999999,94.08 Z M69.4879997,87.892 L69.4879997,92.358 C69.6699997,91.966 70.4259997,90.72 72.0779997,90.72 C74.0379997,90.72 75.3119997,92.386 75.3119997,94.43 C75.3119997,96.46 74.0379997,98.154 72.0779997,98.154 C70.4259997,98.154 69.6699997,97.006 69.3339997,96.474 L69.2219997,97.776 C69.1519997,97.944 69.1099997,98 68.9839997,98 L68.6479997,98 C68.4939997,98 68.4379997,97.944 68.4379997,97.776 L68.4379997,87.892 C68.4379997,87.724 68.4939997,87.668 68.6479997,87.668 L69.2779997,87.668 C69.4319997,87.668 69.4879997,87.724 69.4879997,87.892 Z M71.8819997,97.216 C73.3379997,97.216 74.2759997,95.984 74.2759997,94.43 C74.2759997,92.988 73.3379997,91.672 71.8819997,91.672 C70.4119997,91.672 69.4879997,93.044 69.4879997,94.444 C69.4879997,95.83 70.4119997,97.216 71.8819997,97.216 Z M82.1719996,88.424 C82.2279996,88.256 82.1719996,88.2 81.9899996,88.2 L81.4159996,88.2 C81.2759996,88.2 81.1919996,88.242 81.1359996,88.396 L77.9159996,97.776 C77.8599996,97.944 77.9159996,98 78.0839996,98 L78.6719996,98 C78.8259996,98 78.8819996,97.972 78.9519996,97.804 L82.1719996,88.424 Z M85.6999994,97.776 C85.6999994,97.944 85.7419994,98 85.9099994,98 L86.5259994,98 C86.6939994,98 86.7499994,97.944 86.7499994,97.776 L86.7499994,91.098 C86.7499994,90.93 86.7079994,90.874 86.5259994,90.874 L85.9099994,90.874 C85.7419994,90.874 85.6999994,90.93 85.6999994,91.098 L85.6999994,97.776 Z M85.4759994,88.536 C85.4759994,88.942 85.7979994,89.264 86.2039994,89.264 C86.6099994,89.264 86.9459994,88.942 86.9459994,88.536 C86.9459994,88.13 86.6099994,87.808 86.2039994,87.808 C85.7979994,87.808 85.4759994,88.13 85.4759994,88.536 Z M90.4879993,93.1 C90.4879993,90.314 92.7419993,88.018 95.4999993,88.018 C98.2579993,88.018 100.511999,90.314 100.511999,93.1 C100.511999,95.886 98.2579993,98.182 95.4999993,98.182 C92.7419993,98.182 90.4879993,95.886 90.4879993,93.1 Z M91.6079993,93.1 C91.6079993,95.2 93.3159993,97.202 95.4999993,97.202 C97.7119993,97.202 99.3919993,95.2 99.3919993,93.1 C99.3919993,90.986 97.7119993,88.998 95.4999993,88.998 C93.3159993,88.998 91.6079993,90.986 91.6079993,93.1 Z M107.147999,89.026 C108.127999,89.026 109.051999,89.348 109.947999,89.95 C110.087999,90.062 110.171999,90.006 110.255999,89.852 L110.521999,89.418 C110.577999,89.278 110.605999,89.194 110.451999,89.11 C109.387999,88.466 108.449999,88.046 107.007999,88.046 C104.291999,88.046 103.479999,89.894 103.479999,90.972 C103.479999,92.834 105.257999,93.296 106.783999,93.506 C108.617999,93.758 109.667999,94.136 109.667999,95.298 C109.667999,96.754 108.323999,97.174 107.035999,97.174 C105.985999,97.174 104.823999,96.852 103.927999,96.236 C103.759999,96.138 103.703999,96.166 103.605999,96.32 L103.339999,96.768 C103.255999,96.922 103.255999,96.992 103.395999,97.076 C104.459999,97.818 105.691999,98.154 107.175999,98.154 C109.583999,98.154 110.745999,96.754 110.745999,95.256 C110.745999,93.38 109.205999,92.82 107.399999,92.582 C105.859999,92.386 104.557999,92.092 104.557999,90.944 C104.557999,90.216 105.019999,89.026 107.147999,89.026 Z M119.453999,88.2 L122.883999,88.2 C125.641999,88.2 127.755999,90.314 127.755999,93.1 C127.755999,95.886 125.641999,98 122.883999,98 L119.453999,98 C119.299999,98 119.229999,97.944 119.229999,97.776 L119.229999,88.424 C119.229999,88.256 119.285999,88.2 119.453999,88.2 Z M122.869999,89.152 L120.335999,89.152 L120.335999,97.048 L122.869999,97.048 C125.151999,97.048 126.635999,95.2 126.635999,93.1 C126.635999,90.986 125.151999,89.152 122.869999,89.152 Z M136.827999,96.544 L137.093999,96.866 C137.191999,96.992 137.191999,97.076 137.093999,97.174 C136.435999,97.818 135.301999,98.154 134.265999,98.154 C132.151999,98.154 130.527999,96.488 130.527999,94.444 C130.527999,92.4 132.151999,90.72 134.195999,90.72 C136.379999,90.72 137.653999,92.484 137.653999,94.584 C137.653999,94.752 137.625999,94.808 137.443999,94.808 L131.605999,94.808 C131.703999,96.11 132.893999,97.23 134.307999,97.23 C134.993999,97.23 135.833999,97.02 136.505999,96.53 C136.659999,96.446 136.715999,96.418 136.827999,96.544 Z M131.633999,94.08 L136.575999,94.08 C136.519999,92.82 135.609999,91.602 134.181999,91.602 C132.739999,91.602 131.675999,92.82 131.633999,94.08 Z M143.057999,98.042 C143.141999,98.182 143.155999,98.238 143.225999,98.238 L143.267999,98.238 C143.351999,98.238 143.365999,98.168 143.449999,98.042 L146.725999,91.098 C146.767999,90.986 146.739999,90.874 146.585999,90.874 L145.885999,90.874 C145.759999,90.874 145.689999,90.916 145.605999,91.098 L143.253999,96.222 L143.253999,96.208 L140.887999,91.098 C140.803999,90.916 140.747999,90.874 140.593999,90.874 L139.893999,90.874 C139.767999,90.874 139.711999,90.972 139.767999,91.098 L143.057999,98.042 Z M155.125998,96.544 L155.391998,96.866 C155.489998,96.992 155.489998,97.076 155.391998,97.174 C154.733998,97.818 153.599998,98.154 152.563998,98.154 C150.449998,98.154 148.825998,96.488 148.825998,94.444 C148.825998,92.4 150.449998,90.72 152.493998,90.72 C154.677998,90.72 155.951998,92.484 155.951998,94.584 C155.951998,94.752 155.923998,94.808 155.741998,94.808 L149.903998,94.808 C150.001998,96.11 151.191998,97.23 152.605998,97.23 C153.291998,97.23 154.131998,97.02 154.803998,96.53 C154.957998,96.446 155.013998,96.418 155.125998,96.544 Z M149.931998,94.08 L154.873998,94.08 C154.817998,92.82 153.907998,91.602 152.479998,91.602 C151.037998,91.602 149.973998,92.82 149.931998,94.08 Z M159.395998,97.776 C159.395998,97.944 159.451998,98 159.619998,98 L160.235998,98 C160.403998,98 160.445998,97.944 160.445998,97.776 L160.445998,87.892 C160.445998,87.724 160.403998,87.668 160.235998,87.668 L159.619998,87.668 C159.451998,87.668 159.395998,87.724 159.395998,87.892 L159.395998,97.776 Z M163.959998,94.444 C163.959998,92.4 165.597998,90.72 167.641998,90.72 C169.685998,90.72 171.323998,92.4 171.323998,94.444 C171.323998,96.488 169.685998,98.154 167.641998,98.154 C165.597998,98.154 163.959998,96.488 163.959998,94.444 Z M167.641998,97.216 C169.111998,97.216 170.287998,95.984 170.287998,94.444 C170.287998,92.904 169.111998,91.672 167.641998,91.672 C166.185998,91.672 165.009998,92.904 165.009998,94.444 C165.009998,95.984 166.185998,97.216 167.641998,97.216 Z M175.761998,96.516 L175.761998,100.632 C175.761998,100.8 175.705998,100.856 175.551998,100.856 L174.921998,100.856 C174.767998,100.856 174.711998,100.8 174.711998,100.632 L174.711998,91.098 C174.711998,90.93 174.767998,90.874 174.921998,90.874 L175.257998,90.874 C175.383998,90.874 175.425998,90.93 175.495998,91.098 L175.607998,92.4 C175.943998,91.868 176.699998,90.72 178.351998,90.72 C180.311998,90.72 181.585998,92.414 181.585998,94.444 C181.585998,96.488 180.311998,98.154 178.351998,98.154 C176.699998,98.154 175.943998,96.908 175.761998,96.516 Z M178.155998,91.658 C176.685998,91.658 175.761998,93.044 175.761998,94.43 C175.761998,95.83 176.685998,97.202 178.155998,97.202 C179.611998,97.202 180.549998,95.886 180.549998,94.444 C180.549998,92.89 179.611998,91.658 178.155998,91.658 Z M190.629998,96.544 L190.895998,96.866 C190.993998,96.992 190.993998,97.076 190.895998,97.174 C190.237998,97.818 189.103998,98.154 188.067998,98.154 C185.953998,98.154 184.329998,96.488 184.329998,94.444 C184.329998,92.4 185.953998,90.72 187.997998,90.72 C190.181998,90.72 191.455998,92.484 191.455998,94.584 C191.455998,94.752 191.427998,94.808 191.245998,94.808 L185.407998,94.808 C185.505998,96.11 186.695998,97.23 188.109998,97.23 C188.795998,97.23 189.635998,97.02 190.307998,96.53 C190.461998,96.446 190.517998,96.418 190.629998,96.544 Z M185.435998,94.08 L190.377998,94.08 C190.321998,92.82 189.411998,91.602 187.983998,91.602 C186.541998,91.602 185.477998,92.82 185.435998,94.08 Z M198.581998,91.756 C198.749998,91.756 198.791998,91.714 198.833998,91.546 L198.917998,90.916 C198.945998,90.776 198.917998,90.72 198.721998,90.72 C196.733998,90.72 196.089998,91.91 195.809998,92.498 L195.641998,91.098 C195.571998,90.93 195.515998,90.874 195.403998,90.874 L195.053998,90.874 C194.899998,90.874 194.843998,90.93 194.843998,91.098 L194.843998,97.776 C194.843998,97.944 194.899998,98 195.053998,98 L195.683998,98 C195.837998,98 195.893998,97.944 195.893998,97.776 L195.893998,94.332 C195.893998,93.03 196.761998,91.756 198.581998,91.756 Z M205.441998,88.424 C205.497998,88.256 205.441998,88.2 205.259998,88.2 L204.685998,88.2 C204.545998,88.2 204.461998,88.242 204.405998,88.396 L201.185998,97.776 C201.129998,97.944 201.185998,98 201.353998,98 L201.941998,98 C202.095998,98 202.151998,97.972 202.221998,97.804 L205.441998,88.424 Z M208.913997,88.2 L212.343997,88.2 C215.101997,88.2 217.215997,90.314 217.215997,93.1 C217.215997,95.886 215.101997,98 212.343997,98 L208.913997,98 C208.759997,98 208.689997,97.944 208.689997,97.776 L208.689997,88.424 C208.689997,88.256 208.745997,88.2 208.913997,88.2 Z M212.329997,89.152 L209.795997,89.152 L209.795997,97.048 L212.329997,97.048 C214.611997,97.048 216.095997,95.2 216.095997,93.1 C216.095997,90.986 214.611997,89.152 212.329997,89.152 Z M226.287997,96.544 L226.553997,96.866 C226.651997,96.992 226.651997,97.076 226.553997,97.174 C225.895997,97.818 224.761997,98.154 223.725997,98.154 C221.611997,98.154 219.987997,96.488 219.987997,94.444 C219.987997,92.4 221.611997,90.72 223.655997,90.72 C225.839997,90.72 227.113997,92.484 227.113997,94.584 C227.113997,94.752 227.085997,94.808 226.903997,94.808 L221.065997,94.808 C221.163997,96.11 222.353997,97.23 223.767997,97.23 C224.453997,97.23 225.293997,97.02 225.965997,96.53 C226.119997,96.446 226.175997,96.418 226.287997,96.544 Z M221.093997,94.08 L226.035997,94.08 C225.979997,92.82 225.069997,91.602 223.641997,91.602 C222.199997,91.602 221.135997,92.82 221.093997,94.08 Z M232.685997,97.3 C231.761997,97.3 230.935997,96.95 230.319997,96.516 C230.151997,96.39 230.081997,96.46 230.011997,96.6 L229.815997,96.95 C229.731997,97.104 229.731997,97.174 229.857997,97.258 C230.893997,97.944 231.999997,98.154 232.741997,98.154 C234.547997,98.154 235.611997,97.23 235.611997,95.942 C235.611997,94.584 234.267997,94.136 232.881997,93.94 C231.607997,93.758 230.907997,93.618 230.907997,92.848 C230.907997,92.078 231.481997,91.574 232.657997,91.574 C233.567997,91.574 234.099997,91.784 234.855997,92.246 C235.023997,92.358 235.093997,92.288 235.163997,92.148 L235.345997,91.812 C235.415997,91.686 235.443997,91.602 235.275997,91.504 C234.295997,90.902 233.329997,90.72 232.601997,90.72 C230.949997,90.72 229.913997,91.574 229.913997,92.904 C229.913997,94.374 231.243997,94.696 232.629997,94.878 C233.903997,95.06 234.603997,95.382 234.603997,95.998 C234.603997,96.712 234.043997,97.3 232.685997,97.3 Z M239.293997,97.776 C239.293997,97.944 239.335997,98 239.503997,98 L240.119997,98 C240.287997,98 240.343997,97.944 240.343997,97.776 L240.343997,91.098 C240.343997,90.93 240.301997,90.874 240.119997,90.874 L239.503997,90.874 C239.335997,90.874 239.293997,90.93 239.293997,91.098 L239.293997,97.776 Z M239.069997,88.536 C239.069997,88.942 239.391997,89.264 239.797997,89.264 C240.203997,89.264 240.539997,88.942 240.539997,88.536 C240.539997,88.13 240.203997,87.808 239.797997,87.808 C239.391997,87.808 239.069997,88.13 239.069997,88.536 Z M249.877997,97.608 L249.877997,96.516 C249.709997,96.908 248.939997,98.154 247.287997,98.154 C245.313997,98.154 244.053997,96.488 244.053997,94.444 C244.053997,92.414 245.327997,90.72 247.287997,90.72 C248.939997,90.72 249.695997,91.868 250.045997,92.4 L250.157997,91.098 C250.213997,90.93 250.269997,90.874 250.395997,90.874 L250.717997,90.874 C250.871997,90.874 250.927997,90.93 250.927997,91.098 L250.927997,97.496 C250.927997,100.184 249.835997,101.458 247.665997,101.458 C246.139997,101.458 245.187997,101.066 244.893997,100.954 C244.753997,100.898 244.725997,100.856 244.767997,100.702 L244.907997,100.17 C244.949997,100.002 244.991997,99.974 245.145997,100.044 C245.579997,100.198 246.307997,100.52 247.511997,100.52 C249.317997,100.52 249.877997,99.288 249.877997,97.608 Z M247.497997,91.658 C246.027997,91.658 245.103997,92.89 245.103997,94.444 C245.103997,95.872 246.027997,97.202 247.497997,97.202 C248.953997,97.202 249.891997,95.83 249.891997,94.43 C249.891997,93.044 248.953997,91.658 247.497997,91.658 Z M255.827997,91.098 C255.757997,90.93 255.701997,90.874 255.589997,90.874 L255.239997,90.874 C255.085997,90.874 255.029997,90.93 255.029997,91.098 L255.029997,97.776 C255.029997,97.944 255.085997,98 255.239997,98 L255.869997,98 C256.023997,98 256.079997,97.944 256.079997,97.776 L256.079997,94.248 C256.079997,92.848 256.863997,91.672 258.081997,91.672 C259.215997,91.672 260.055997,92.484 260.055997,94.15 L260.055997,97.776 C260.055997,97.944 260.111997,98 260.265997,98 L260.895997,98 C261.049997,98 261.105997,97.944 261.105997,97.776 L261.105997,93.87 C261.105997,91.63 259.831997,90.72 258.333997,90.72 C256.961997,90.72 256.233997,91.798 255.939997,92.358 L255.827997,91.098 Z M270.485997,96.544 L270.751997,96.866 C270.849997,96.992 270.849997,97.076 270.751997,97.174 C270.093997,97.818 268.959997,98.154 267.923997,98.154 C265.809997,98.154 264.185997,96.488 264.185997,94.444 C264.185997,92.4 265.809997,90.72 267.853997,90.72 C270.037997,90.72 271.311997,92.484 271.311997,94.584 C271.311997,94.752 271.283997,94.808 271.101997,94.808 L265.263997,94.808 C265.361997,96.11 266.551997,97.23 267.965997,97.23 C268.651997,97.23 269.491997,97.02 270.163997,96.53 C270.317997,96.446 270.373997,96.418 270.485997,96.544 Z M265.291997,94.08 L270.233997,94.08 C270.177997,92.82 269.267997,91.602 267.839997,91.602 C266.397997,91.602 265.333997,92.82 265.291997,94.08 Z M278.437996,91.756 C278.605996,91.756 278.647996,91.714 278.689996,91.546 L278.773996,90.916 C278.801996,90.776 278.773996,90.72 278.577996,90.72 C276.589996,90.72 275.945996,91.91 275.665996,92.498 L275.497996,91.098 C275.427996,90.93 275.371996,90.874 275.259996,90.874 L274.909996,90.874 C274.755996,90.874 274.699996,90.93 274.699996,91.098 L274.699996,97.776 C274.699996,97.944 274.755996,98 274.909996,98 L275.539996,98 C275.693996,98 275.749996,97.944 275.749996,97.776 L275.749996,94.332 C275.749996,93.03 276.617996,91.756 278.437996,91.756 Z" id="title" fill="#000000"></path>
            <g id="Animated-Logo" transform="translate(120.000000, 0.000000)">
                <g id="Logo2017" fill="#32688B">
                    <g id="Logo">
                        <path d="M41.2622797,36.4598964 L31.0597828,38.2603851 L25.9498174,57.4232671 L23.4157972,53.0129885 L36.6455018,3.4002709 L22.9297337,3.4002709 L4.03160153,36.2911006 L22.9297337,69.1819304 L36.7382606,69.1819304 L30.8101081,46.9507647 L32.6473632,40.0608738 L41.4450604,72.9197928 L20.9722044,72.9197928 L0,36.4191907 L20.9254278,7.10542736e-15 L41.2622797,7.10542736e-15 L32.0200178,34.6594077 L41.2622797,36.4598964 Z M52.6356741,34.6594077 L57.8119027,15.2480319 L60.345923,19.6583106 L47.1399771,69.1819304 L60.7259981,69.1819304 L79.6241305,36.2911006 L60.7259981,3.4002709 L47.0794002,3.4002709 L53.0586346,25.8229989 L51.2033792,32.7803923 L42.4621747,0 L63.0349106,6.66065891e-15 L83.9603384,36.4191907 L62.9881341,72.9197928 L42.4331773,72.9197928 L51.6754391,38.2603851 L42.4331773,36.4598964 L52.6356741,34.6594077 Z M60.1108153,6.62687958 L62.6448355,11.0371582 L61.4116836,15.6616014 L58.8776634,11.2513228 L60.1108153,6.62687958 L60.1108153,6.62687958 L60.1108153,6.62687958 Z M21.131418,61.5796392 L22.3500365,57.0096977 L24.8840568,61.4199763 L23.6654383,65.9899178 L21.131418,61.5796392 L21.131418,61.5796392 Z M23.7694823,6.63460457 L28.839137,25.6463175 L26.9841054,32.6028717 L21.2354621,11.0448832 L23.7694823,6.63460457 L23.7694823,6.63460457 L23.7694823,6.63460457 Z M62.6521898,61.799792 L60.1178638,66.2106028 L55.0298434,47.1300164 L56.8850988,40.1726229 L62.6521898,61.799792 L62.6521898,61.799792 L62.6521898,61.799792 Z"></path>
                    </g>
                </g>
                <g id="LogoLine" transform="translate(2.000000, 1.000000)" stroke="#979797">
                    <path d="M20.9090909,61.7706551 L21.7909209,58.1818182" id="Dfirst"></path>
                    <polyline id="D1" points="23.3894339 51.513785 37.0230439 0.890919078 20.0322394 0.890919078 0.159066322 35.1759353 20.0322394 69.9160623 37.0230439 69.9160623 30.0894782 43.8733835"></polyline>
                    <polyline id="A" points="23.5069785 51.2786957 37.1747475 0.909090909 42.7877811 0.909090909 49.7194328 26.9469556"></polyline>
                    <path d="M52.5,35.5 L43.5,35.5" id="Amiddlelast"></path>
                    <path d="M28.0731234,35.5 L36.5,35.5" id="Amiddlefirst"></path>
                    <path d="M54.5454545,44.5454545 L58.8946062,61.942061" id="Alast" transform="translate(56.720030, 53.243758) scale(-1, -1) translate(-56.720030, -53.243758) "></path>
                    <path d="M21.1560857,9.66789378 L25.5052374,27.0645002" id="Vfirst"></path>
                    <polyline id="V" points="30.4421122 44.696196 37.0230439 69.9223612 42.9394848 69.9223612 56.4411062 18.6465405"></polyline>
                    <path d="M58.1818182,12.679746 L59.0636482,9.09090909" id="I" transform="translate(58.622733, 10.885328) scale(-1, -1) translate(-58.622733, -10.885328) "></path>
                    <polyline id="D2" transform="translate(61.159262, 35.421663) scale(-1, -1) translate(-61.159262, -35.421663) " points="65.9576403 51.5319568 79.5912503 0.909090909 62.6004458 0.909090909 42.7272727 35.1941071 62.6004458 69.9342341 79.5912503 69.9342341 72.6576846 43.8915553"></polyline>
                </g>
            </g>
            <path d="M91,51 L16,51" id="dLine" stroke="#32688B"></path>
            <path d="M316,51 L241,51" id="hLine" stroke="#32688B" transform="translate(278.500000, 51.000000) scale(-1, 1) translate(-278.500000, -51.000000) "></path>
        </g>
    </g>
</svg>